<svg xmlns="http://www.w3.org/2000/svg" viewBox="0 0 953.19 1114.54">
  <defs>
    <style>
      .cls-1 {
        fill: #9bf6dc;
      }

      .cls-2, .cls-20 {
        fill: #2d7863;
      }

      .cls-19, .cls-3 {
        fill: #6bcaaf;
      }

      .cls-4 {
        fill: #fff794;
      }

      .cls-5 {
        fill: #ffef2e;
      }

      .cls-6 {
        fill: #fff46e;
      }

      .cls-7 {
        fill: #ffa794;
      }

      .cls-8 {
        fill: #853c2b;
      }

      .cls-9 {
        fill: #d77b67;
      }

      .cls-10 {
        fill: #c194ff;
      }

      .cls-11 {
        fill: #512b85;
      }

      .cls-12 {
        fill: #9767d7;
      }

      .cls-13, .cls-18 {
        fill: #defcf3;
      }

      .cls-14 {
        fill: #fffbd4;
      }

      .cls-15 {
        fill: #ffdbd4;
      }

      .cls-16 {
        fill: #e6d4ff;
      }

      .cls-17 {
        fill: none;
        stroke-width: 7px;
      }

      .cls-17, .cls-18, .cls-19 {
        stroke: #6bcaaf;
      }

      .cls-17, .cls-18, .cls-19, .cls-20 {
        stroke-miterlimit: 10;
      }

      .cls-20 {
        stroke: #2d7863;
      }
    </style>
  </defs>
  <g id="colors">
    <rect class="cls-1" y="256" width="77" height="77"/>
    <rect class="cls-2" y="85" width="77" height="77"/>
    <rect class="cls-3" y="170" width="77" height="77"/>
    <rect class="cls-4" x="87" y="257" width="77" height="77"/>
    <rect class="cls-5" x="87" y="86" width="77" height="77"/>
    <rect class="cls-6" x="87" y="171" width="77" height="77"/>
    <rect class="cls-7" x="174" y="259" width="77" height="77"/>
    <rect class="cls-8" x="174" y="88" width="77" height="77"/>
    <rect class="cls-9" x="174" y="173" width="77" height="77"/>
    <rect class="cls-10" x="261" y="260" width="77" height="77"/>
    <rect class="cls-11" x="261" y="89" width="77" height="77"/>
    <rect class="cls-12" x="261" y="174" width="77" height="77"/>
    <rect class="cls-13" y="344" width="77" height="77"/>
    <rect class="cls-14" x="87" y="345" width="77" height="77"/>
    <rect class="cls-15" x="174" y="347" width="77" height="77"/>
    <rect class="cls-16" x="261" y="348" width="77" height="77"/>
  </g>
  <g id="body">
    <path class="cls-1" d="M971.63,597.43a41.11,41.11,0,0,1-8.43-5.26l-15.33-10.74c-12.57-6-24.9-12.14-28.62-22.64,0,0-.32-1.64-.37-2.47a624.47,624.47,0,0,0-11-85.88,41.9,41.9,0,0,0-5.65-14.4c-23.31-36.59-14.32-88.89-22.3-165.51-.41-4-.75-7.94-.78-11.92-.09-12.77-4.66-23.66-13.06-32.93a55,55,0,0,0-35.6-17.56,172.21,172.21,0,0,1-31.17-6.41,30.42,30.42,0,0,1-16.87-12.31c-3.55-5.35-7.59-20.4-7.59-20.4q-.77-4.33-1.28-8.81c0-.12,0-.23,0-.35l-.18-1.81c0-.24-.05-.47-.07-.71,0-.56-.1-1.12-.14-1.68l-.06-.88c0-.53-.08-1.06-.11-1.6,0-.33,0-.66-.05-1,0-.51,0-1-.07-1.54l0-1.13c0-.79,0-1.58,0-2.38,0-.51,0-1,0-1.55s0-.79,0-1.19,0-1,0-1.51,0-.8,0-1.19l.06-1.56.06-1.17c0-.55.07-1.1.11-1.65,0-.37.05-.73.08-1.1,0-.62.11-1.24.17-1.85l.09-.94c.09-.93.2-1.87.32-2.82a81.83,81.83,0,0,1,7.78-25.78c8.44-17.18,14.67-31.38,10.58-55.89-3.85-26.94-22.44-43.51-60.19-46.6-41-2.71-64.56,11.74-73.79,47.57-.27,3.77-.35,9.64,1.19,12.14a10,10,0,0,1,.77,9.08,51,51,0,0,1-7,11.8c-.51.65-6.8,10.11-8.4,14.37a4.5,4.5,0,0,0,2.58,5.8,20.8,20.8,0,0,0,4.48,1,1.88,1.88,0,0,1,1.66,1.79,29.48,29.48,0,0,1-2.07,11c-.27,1.28.56,1.8,1.94,1.94-1.46.41-2.15,1-1.94,1.94a12.09,12.09,0,0,0,2.58,5.71,14.74,14.74,0,0,1,3.38,8.31c.73,12.76,4.5,18.94,11.52,18,8.64-1.05,16.87-1.76,23.06-.74a6.49,6.49,0,0,1,4.78,3.6c.23.48.44.94.64,1.4l.15.38c.16.36.29.71.42,1.06l.1.27c.14.4.26.79.37,1.17l.09.36q.11.42.18.81c0,.13.05.25.07.37.06.34.1.67.13,1,0,.12,0,.24,0,.36s0,.43,0,.64,0,.28,0,.42,0,.45-.07.67-.06.36-.1.53-.08.37-.13.55-.08.29-.13.43-.11.32-.17.47-.19.44-.29.65c-2,4.11-3.42,8.44-5.55,12.51a35.75,35.75,0,0,1-5.22,8.07,104,104,0,0,1-8.72,8.07c-2.86,2.46-6,4.79-9.67,5.86a172.21,172.21,0,0,1-31.17,6.41,56.46,56.46,0,0,0-13.66,3l-.44.16c-.51.18-1,.37-1.51.57l-.57.23-1.45.62-.45.21q-1.37.62-2.7,1.32c-.2.1-.4.2-.59.31-.38.2-.76.42-1.13.63l-.88.51c-.35.2-.69.41-1,.62l-1,.63-.91.6-1.32.94-.75.56c-.51.38-1,.78-1.52,1.19l-.64.53-1.15,1-.64.58c-.39.36-.77.73-1.15,1.1-.18.17-.36.34-.53.52-.55.55-1.09,1.11-1.61,1.69-8.4,9.27-13,20.16-13.06,32.93,0,4-.37,8-.78,11.92-8,76.62,1,128.92-22.3,165.51a41.9,41.9,0,0,0-5.65,14.4,622.75,622.75,0,0,0-10.76,81.74l-1.88,5.17c-3.57,10.73-16,16.92-28.76,23l-15.33,10.74a41.26,41.26,0,0,1-8.43,5.27,4.21,4.21,0,0,0-.78,7.3c5.27,3.6,11.44,1.39,17.92-2.87,12.25-8.27,15.92-3.73,11.79,12.45l-13,33.65a31.18,31.18,0,0,0-2,8.84,4.24,4.24,0,0,0,6.87,3.66h0a7.91,7.91,0,0,0,2.33-3l3.86-8.75,9.77-17.91a.56.56,0,0,1,1,.42L524.7,658c-.21.71-.45,1.41-.68,2.12a25.49,25.49,0,0,0-1.17,8.61,4.12,4.12,0,0,0,7.59,2.14,17.06,17.06,0,0,0,2-4.59c.16-.61.33-1.22.54-1.81l11.72-32.22a.31.31,0,0,1,.6.18l-5.47,23a38,38,0,0,1-1.8,5.82c-.51,1.21-.74,2.46-1.12,3.66-2.39,7.55,6.47,10,8.81,3.28.93-2.66,7.39-27.83,9.92-36.19a.83.83,0,0,1,1.63.21,105.26,105.26,0,0,1-.34,13.37,26.11,26.11,0,0,1-1.62,6.2,9.94,9.94,0,0,0-.18,5.71,3.52,3.52,0,0,0,6.6.73,39.46,39.46,0,0,0,4.34-17.44s.85-13.56,2.16-17.17,7-35,6.36-37.66c-.28-1.15,2.75-10.57,2.75-10.57a61.69,61.69,0,0,1,5.3-11.21,375.32,375.32,0,0,0,36.81-81.1,20.39,20.39,0,0,0,.75-3.25c5.52-36.65,7.5-74.85,18.08-84.16a.91.91,0,0,1,.24-.16,1.14,1.14,0,0,1,.26-.09,1.15,1.15,0,0,1,1.39,1c4.12,37.51,3.74,76.5,2.2,115.87a59.17,59.17,0,0,1-4,19.16c-9.29,24-15.76,48.59-18.38,74-1.25,27.83,2.14,59.91,6.89,93.53a175.61,175.61,0,0,1,95.5,1.46q.76-12.3,1.44-24.82a2,2,0,0,1,2.76-1.69,53.06,53.06,0,0,0,14.82,0,2,2,0,0,1,2.76,1.69c4,74.52,10.52,143.46,21.39,203a74.2,74.2,0,0,1,.25,24.16c-4.46,30.21.47,64.87,1.18,105a105.63,105.63,0,0,1-3.81,30.06,238.72,238.72,0,0,0-7.87,48,28.48,28.48,0,0,1-2.5,10c-4.09,9-6.35,19.14-7.84,29.84-.88,6.27,4.58,11.85,10.81,10.7a9,9,0,0,0,2.39-.8,8,8,0,0,1,5.77-.66,9,9,0,0,0,5.44-.22,8,8,0,0,1,5.07,0,12.58,12.58,0,0,0,8-.17,8.52,8.52,0,0,1,5.12,0,14.29,14.29,0,0,0,11.45-1l.16-.06a14.93,14.93,0,0,0,8.55-20.16A129.53,129.53,0,0,1,796,1058.5c10-48,31.71-100.16,34-151-3.8-27.22-12.9-38.59-8-65,5.2-78.38,29-170,26-237-2.62-25.44-9.09-50-18.38-74a59.17,59.17,0,0,1-4-19.16c-1.54-39.37-1.92-78.36,2.2-115.87a1.15,1.15,0,0,1,1.89-.75c10.58,9.31,12.56,47.51,18.08,84.16a20.39,20.39,0,0,0,.75,3.25,375.39,375.39,0,0,0,36.8,81.08C887,569,892.55,584.8,892,587.06c-.65,2.69,5,34.07,6.36,37.67s2.16,17.16,2.16,17.16a39.5,39.5,0,0,0,4.34,17.45,3.52,3.52,0,0,0,6.6-.73,9.93,9.93,0,0,0-.18-5.71,25.76,25.76,0,0,1-1.62-6.2,103.43,103.43,0,0,1-.34-13.37.83.83,0,0,1,1.63-.21c2.53,8.36,9,33.52,9.91,36.19,2.35,6.72,11.21,4.27,8.82-3.28-.38-1.2-.61-2.46-1.12-3.67a36.52,36.52,0,0,1-1.8-5.81l-5.47-23a.31.31,0,0,1,.6-.18l11.72,32.22c.21.6.37,1.21.54,1.82a16.56,16.56,0,0,0,2.05,4.58,4.12,4.12,0,0,0,7.59-2.13,25.55,25.55,0,0,0-1.17-8.62c-.23-.7-.47-1.4-.68-2.11l-8.13-27.88a.56.56,0,0,1,1-.43l9.77,17.91,3.86,8.75a7.94,7.94,0,0,0,2.33,3,4.25,4.25,0,0,0,6.87-3.66,31.32,31.32,0,0,0-2-8.85l-13-33.65c-4.13-16.17-.47-20.72,11.79-12.44,6.48,4.26,12.65,6.46,17.92,2.87A4.22,4.22,0,0,0,971.63,597.43Z" transform="translate(-21 -22)"/>
  </g>
  <g id="leg">
    <path id="leg-2" data-name="leg" class="cls-13" d="M723,1125.69c-1.49-10.7-3.75-20.89-7.84-29.84a28.48,28.48,0,0,1-2.5-10,238.72,238.72,0,0,0-7.87-48,105.63,105.63,0,0,1-3.81-30.06c.71-40.09,5.64-74.75,1.18-105a74.2,74.2,0,0,1,.25-24.16c5.53-30.28,9.93-63,13.46-97.65,2.62-25.83,4.75-52.74,6.49-80.51a175.61,175.61,0,0,0-95.5-1.46c3.78,26.81,8.43,54.59,12.31,82,3,20.94,5.48,41.64,6.8,61.5,4.9,26.41-4.2,37.78-8,65,2.29,50.84,24,103,34,151a129.53,129.53,0,0,1-11.71,54.78,14.93,14.93,0,0,0,8.55,20.16l.16.06a14.29,14.29,0,0,0,11.45,1,8.52,8.52,0,0,1,5.12,0,12.58,12.58,0,0,0,8,.17,8,8,0,0,1,5.07,0,9,9,0,0,0,5.44.22,8,8,0,0,1,5.77.66,9,9,0,0,0,2.39.8C718.45,1137.54,723.91,1132,723,1125.69Z" transform="translate(-21 -22)"/>
  </g>
  <g id="nerve">
    <path class="cls-13" d="M943.12,586.85c-5,2.26-11.72,3.95-17.47,3.21a13,13,0,0,1-5.63-2c-2-1.33-3-3.38-4.49-5.19A22.41,22.41,0,0,0,904,575.62a23,23,0,0,0-7.33-.87c-1.23-6.12-2.59-12.2-4.13-18.24A150.36,150.36,0,0,0,885,533.45c-.86-2-2-3.86-3-5.75a.23.23,0,0,0,.09-.08c1.66-2.19,5.38-1.21,7.54-.53a28,28,0,0,1,5.22,2.23c.85.47,1.61-.82.76-1.29a29.44,29.44,0,0,0-4.12-1.88,15,15,0,0,0-7.43-1.22,5,5,0,0,0-2.79,1.42,31.42,31.42,0,0,1-1.84-4.05c-3.84-10.69-5.88-22.15-8.14-33.24-3.6-17.67-6.76-35.43-9.83-53.19q-5.18-30-9.94-60Q847.22,349,843,322.11q-1.59-10.25-3.2-20.49a39.54,39.54,0,0,0-4.56-14.13A34.33,34.33,0,0,0,823,275.44c-18-10.87-31.66-28.54-43.16-45.79a321.43,321.43,0,0,1-22.23-38.94c-.34-.69-.67-1.39-1-2.09-.4-.88-1.7-.11-1.3.76a291.19,291.19,0,0,0,15,28c10.38,17.36,22.27,34.43,37.24,48.17A98.21,98.21,0,0,0,819,274.64c2.21,1.5,4.59,2.74,6.74,4.33a31.09,31.09,0,0,1,6.83,7c5.12,7.33,5.85,16.06,7.18,24.61q3.84,24.5,7.68,49,4.64,29.26,9.49,58.48c3.14,18.69,6.36,37.37,9.9,56,.89,4.69,1.78,9.38,2.72,14.07-.59-.14-1.16-.29-1.73-.48a9.18,9.18,0,0,1-4.18-2.32s-.21-.27-.14-.16c-.05-.08-.11-.16-.16-.25a2.54,2.54,0,0,1-.16-.28l0-.06,0-.09c0-.1-.07-.21-.1-.31s0-.09,0-.13V484a2,2,0,0,1,0-.34c0-.06,0-.35,0-.23a.77.77,0,0,0-.53-.92.75.75,0,0,0-.92.52c-.6,4,4.39,5.79,7.49,6.53l.84.17c1.67,8.33,3.49,16.63,5.67,24.84A67.66,67.66,0,0,0,879,525.3c.77,1.67,1.86,3.17,2.72,4.79a75.86,75.86,0,0,1,4.12,9.59c6.12,16.83,9.49,34.76,12.31,52.4,1.32,8.21,2.45,16.45,3.29,24.72a118.34,118.34,0,0,1,1,15.85c0,.6-.09,1.19-.14,1.78a1.47,1.47,0,0,1-.06.39.75.75,0,0,0,.07,1.4c2.29.59,1.64-5.73,1.61-6.69-.18-5.61-.75-11.22-1.4-16.8,3.81,2,9.13,3.11,12.6,0,.72-.64-.35-1.7-1.06-1.06-3.07,2.75-8.11,1.33-11.29-.53a.73.73,0,0,0-.44-.09c0-.19-.05-.38-.07-.58-.38-3.18-.8-6.36-1.24-9.54l.12-.06.22-.11.11,0h0l.62-.22c.22-.07.45-.13.68-.18l.14,0h0l.34,0h.32l.16,0,.11,0h0l.12.07h0l.12.13h0l.1.17v.06a2,2,0,0,1,.11.47v0c0,.05,0,.09,0,.14a2,2,0,0,1,0,.35.75.75,0,0,0,1.5,0,3.29,3.29,0,0,0-.64-2.19,2.34,2.34,0,0,0-1.6-.78,5.67,5.67,0,0,0-2.84.6c-1.09-7.74-2.36-15.48-3.87-23.16A21.84,21.84,0,0,1,915,584.65c1.31,1.77,2.39,3.48,4.25,4.72a12.53,12.53,0,0,0,3.09,1.47c-.57,3.6,3.71,5.08,6.56,5.59.4.07.8.13,1.2.17a.76.76,0,0,0,.75-.75.77.77,0,0,0-.75-.75l-.2,0h0l-.33-.05a17.61,17.61,0,0,1-1.75-.38c-.36-.1-.72-.21-1.07-.33l-.23-.09-.2-.08,0,0a.61.61,0,0,1-.14-.07l-.29-.13a7.51,7.51,0,0,1-.94-.56l-.05-.05,0,0-.2-.17a4.59,4.59,0,0,1-.37-.39h0l-.08-.11c0-.08-.1-.16-.14-.24a1.26,1.26,0,0,1-.08-.18,1.18,1.18,0,0,1-.07-.2,2.8,2.8,0,0,1-.06-.28c0,.2,0-.12,0-.18s0-.2,0-.3h0c.38.08.76.17,1.15.23a30.2,30.2,0,0,0,11.92-.94,43.3,43.3,0,0,0,7-2.38C944.76,587.75,944,586.46,943.12,586.85Z" transform="translate(-21 -22)"/>
  </g>
  <g id="bone">
    <path class="cls-2" d="M837.09,309.6s-2.92-22.69-11.38-26.76a8.5,8.5,0,0,1-4.38-6.11c-1.44-7.35-1.59-19.46,13-19.58a6.93,6.93,0,0,1,3.51.67,5.63,5.63,0,0,0,3.37.76c2.84-.31,7.5.53,6.9,9.61-.85,13-.5,26.32,0,27.52,1,2.55,7.36,68.57,11.83,84.41.79,2.8,11.46,28.73,12,33.77a13.38,13.38,0,0,0,2.18,6,22.78,22.78,0,0,1,2.76,5.57c1,3.19-1,6.65-2.24,8.44a20.81,20.81,0,0,0-1.38,2.2,4.71,4.71,0,0,1-4,2.65,19.06,19.06,0,0,0-5.7,1.08l-.38.13c-3.15,1-14.27-.76-15.2-1.83-1.93-2.21-4.77-7.14.21-13.55,6.85-8.83,1.69-34.41,1.69-34.41s-6-35.19-6.05-38.1C843.6,346.63,837.09,309.6,837.09,309.6Z" transform="translate(-21 -22)"/>
  </g>
  <g id="muscle">
    <g id="muscle-2" data-name="muscle">
      <g>
        <path class="cls-17" d="M797.09,689.68c-2.16-2.53-4.05-4.6-5.41-6a2,2,0,0,0-3.32.75c-3.35,10.48-14.12,43.94-17.49,52.34l-3.72,10.21a10.12,10.12,0,0,0-.5,5c1,6.92,2.56,14.47,4.37,22.13,4.89-18.44,10-34.55,13.85-38.37C789.86,730.73,794.09,709.62,797.09,689.68Z" transform="translate(-21 -22)"/>
        <path class="cls-17" d="M819.37,724.22c-4.92-12.93-15.14-26.22-22.28-34.54-3,19.94-7.23,41.05-12.22,46-3.82,3.82-9,19.93-13.85,38.37,5.73,24.27,14.33,49.59,19.5,59.22a3.23,3.23,0,0,0,5.7,0C805.72,815.26,826.52,743,819.37,724.22Z" transform="translate(-21 -22)"/>
      </g>
      <g>
        <path class="cls-13" d="M797.09,689.68c-2.16-2.53-4.05-4.6-5.41-6a2,2,0,0,0-3.32.75c-3.35,10.48-14.12,43.94-17.49,52.34l-3.72,10.21a10.12,10.12,0,0,0-.5,5c1,6.92,2.56,14.47,4.37,22.13,4.89-18.44,10-34.55,13.85-38.37C789.86,730.73,794.09,709.62,797.09,689.68Z" transform="translate(-21 -22)"/>
        <path class="cls-13" d="M819.37,724.22c-4.92-12.93-15.14-26.22-22.28-34.54-3,19.94-7.23,41.05-12.22,46-3.82,3.82-9,19.93-13.85,38.37,5.73,24.27,14.33,49.59,19.5,59.22a3.23,3.23,0,0,0,5.7,0C805.72,815.26,826.52,743,819.37,724.22Z" transform="translate(-21 -22)"/>
      </g>
      <g>
        <path class="cls-3" d="M784.87,735.72c5-5,9.22-26.1,12.22-46l-.57-.66c-.54,3.35-1.1,6.71-1.71,10.05-1.5,8-3,16-5.23,23.78-1.15,3.85-2.38,7.8-4.45,11-.26.4-.58.7-.85,1.07l-1.06,1.28a22.91,22.91,0,0,0-1.64,2.75c-.5.92-.93,1.87-1.34,2.81s-.8,1.9-1.19,2.86c-2.93,7.69-5.17,15.55-7.34,23.42-.38,1.4-.74,2.8-1.11,4.2l.42,1.83C775.91,755.65,781.05,739.54,784.87,735.72Z" transform="translate(-21 -22)"/>
        <path class="cls-3" d="M778.19,744.51c.7-1.84,1.49-3.64,2.34-5.38l.69-1.24c.23-.42.52-.74.77-1.13l.93-1.3c.28-.45.51-.91.77-1.37a68.41,68.41,0,0,0,4.1-11.39c2.15-7.7,3.9-15.48,5.39-23.31q1.13-5.86,2.15-11.74l-1.05-1.18q-1.24,6.31-2.6,12.61c-1.72,7.76-3.42,15.52-5.64,23.12a67.17,67.17,0,0,1-4,11c-.24.4-.45.83-.7,1.22l-.81,1.12a13.79,13.79,0,0,0-.92,1.33l-.78,1.35q-1.37,2.74-2.46,5.55c-2.8,7.31-5,14.77-7.11,22.25.26,1.25.54,2.51.82,3.78.26-.9.51-1.81.77-2.71C773,759.48,775.32,751.86,778.19,744.51Z" transform="translate(-21 -22)"/>
        <path class="cls-3" d="M777.75,738.38c.42-.88.88-1.49,1.44-2.48a24.4,24.4,0,0,0,1.32-2.73A111.26,111.26,0,0,0,784.28,722c2.17-7.49,4.09-15,5.81-22.62,1.08-4.7,2.11-9.42,3.12-14.14l-1-1.06c-1.18,5-2.38,9.91-3.64,14.84-2,7.51-3.82,15.05-6.06,22.46a110.38,110.38,0,0,1-3.79,10.9,22.46,22.46,0,0,1-1.22,2.51c-.4.7-1.09,1.67-1.51,2.54a57.51,57.51,0,0,0-2.41,5.42c-2.12,5.58-3.93,11.22-5.63,16.9.24,1.29.49,2.59.76,3.9,2-6.77,4.18-13.52,6.73-20.07A56,56,0,0,1,777.75,738.38Z" transform="translate(-21 -22)"/>
        <path class="cls-3" d="M774.93,737.53l.3-.61.31-.67.61-1.35c.44-.9.7-1.8,1.06-2.7,1.33-3.6,2.46-7.23,3.59-10.86,2.21-7.28,4.33-14.58,6.27-21.92q2.14-8.05,4.21-16.12a1.91,1.91,0,0,0-1.08-.29q-2.28,8-4.6,16c-2.18,7.27-4.25,14.56-6.54,21.79-1.15,3.6-2.3,7.22-3.64,10.73-.35.86-.63,1.79-1,2.59l-.58,1.24-.28.63-.34.66c-.88,1.77-1.59,3.53-2.29,5.32-1.44,3.82-2.76,7.67-4,11.54.21,1.33.44,2.68.68,4.06,1.61-5,3.31-10,5.19-14.88C773.43,740.93,774.13,739.17,774.93,737.53Z" transform="translate(-21 -22)"/>
        <path class="cls-3" d="M772,736.48c.67-1.76,1.27-3.52,1.87-5.28,1.2-3.52,2.36-7.05,3.51-10.58,2.28-7.07,4.58-14.13,6.74-21.23L789,683.46a2,2,0,0,0-.63.92c-3.35,10.48-14.12,43.94-17.49,52.34l-3.72,10.21a10.18,10.18,0,0,0-.56,4.41c1.12-3.23,2.27-6.46,3.47-9.66C770.69,739.93,771.34,738.22,772,736.48Z" transform="translate(-21 -22)"/>
        <path class="cls-3" d="M817.8,725.06c.15.45.29.9.4,1.38a29.77,29.77,0,0,1,.57,2.93c.29,2,.45,4.07.54,6.14a187.43,187.43,0,0,1-.24,18.8c2-13.07,2.55-24.21.3-30.09a77.47,77.47,0,0,0-5.2-10.82c.93,3.41,1.89,6.81,3.12,10.17Z" transform="translate(-21 -22)"/>
        <path class="cls-3" d="M809.88,723.66c.26,1.07.48,1.94.64,2.93s.29,2,.39,3c.19,2,.29,4.08.35,6.15.23,8.27-.07,16.63-.51,25s-1,16.69-1.66,25c-.41,5.55-.9,11.09-1.41,16.63,1.91-6.3,3.79-13,5.5-19.84q1-10.79,1.56-21.61c.37-8.4.66-16.82.29-25.31-.1-2.12-.26-4.25-.51-6.39-.13-1.07-.28-2.15-.49-3.24s-.52-2.23-.77-3.19l-.8-3-.74-3c-.51-2-.94-4.06-1.41-6.09-.37-1.72-.72-3.44-1.08-5.16-1.24-1.85-2.52-3.63-3.79-5.35q.82,5.57,1.82,11.12C808,715.4,808.81,719.54,809.88,723.66Z" transform="translate(-21 -22)"/>
        <path class="cls-3" d="M802.43,723.66a89.36,89.36,0,0,1,.76,12.21c.11,8.26-.07,16.57-.35,24.87s-.57,16.61-.94,24.91-.79,16.61-1.17,24.92q-.39,7.15-.77,14.3c1.1-2.75,2.25-5.88,3.43-9.29.15-1.59.31-3.19.45-4.79.76-8.3,1.29-16.62,1.84-24.94s.87-16.65,1.16-25,.37-16.69.13-25.07a92.76,92.76,0,0,0-1.09-12.68c-.69-4.07-1.28-8.17-1.87-12.28-.68-5-1.32-10.07-2-15.11q-1.39-1.77-2.73-3.38.66,9.43,1.6,18.86C801.36,715.35,801.8,719.51,802.43,723.66Z" transform="translate(-21 -22)"/>
        <path class="cls-3" d="M795,723.58c.08,2.08.12,4.11.15,6.17l0,6.19c0,8.28-.07,16.57-.2,24.86l-.24,24.87c0,8.29-.17,16.58-.17,24.87l-.07,24.25a3.16,3.16,0,0,0,1.77-1.52c.12-.22.23-.45.35-.68.41-7.32.78-14.65,1.07-22,.38-8.3.58-16.59.84-24.89s.34-16.59.45-24.89.08-16.61,0-24.92l-.15-6.25c-.08-2.08-.18-4.2-.29-6.27L797.7,711q-.53-9.19-1.06-18.39c-.66,4.25-1.38,8.52-2.15,12.64,0,2,.06,3.92.1,5.87C794.68,715.28,794.78,719.43,795,723.58Z" transform="translate(-21 -22)"/>
        <path class="cls-3" d="M791.27,785.7,791,760.83c-.13-8.29-.17-16.58-.19-24.85v-6.2c0-2.06.08-4.09.15-6.16,0-1,.07-1.9.1-2.85a64.89,64.89,0,0,1-4,11.5l-.09,3.68c-.11,8.31-.08,16.62,0,24.92s.26,16.6.46,24.89.46,16.6.83,24.89q.4,10.11,1,20.22c.42.89.83,1.72,1.22,2.44a3,3,0,0,0,1,1.08l-.07-23.81C791.44,802.28,791.31,794,791.27,785.7Z" transform="translate(-21 -22)"/>
        <path class="cls-3" d="M784.07,785.75c-.38-8.31-.73-16.61-1-24.91-.25-7.35-.41-14.71-.37-22a70.09,70.09,0,0,0-3.86,9.08c0,4.36.13,8.72.24,13.07q.42,12.51,1.15,25c.55,8.32,1.09,16.63,1.84,24.93.07.78.15,1.55.22,2.32,1.21,3.5,2.4,6.74,3.54,9.65q-.33-6.09-.64-12.18C784.85,802.36,784.39,794.06,784.07,785.75Z" transform="translate(-21 -22)"/>
        <path class="cls-3" d="M775.21,760.85c0-.48,0-1-.07-1.46-1.09,3.65-2.19,7.55-3.29,11.6.23,3.16.47,6.32.74,9.48,1.69,6.65,3.55,13.28,5.46,19.53-.42-4.71-.83-9.41-1.18-14.12C776.21,777.54,775.6,769.2,775.21,760.85Z" transform="translate(-21 -22)"/>
      </g>
    </g>
  </g>
  <g id="brain">
    <g>
      <path class="cls-13" d="M692,75.55c-25.06-6.84-31.07-16-15.71-27.81a84.33,84.33,0,0,0,8-7.05c5.18-5.15,13-8.13,24.19-8.44a21.91,21.91,0,0,0,4.78-.64c17.55-4.42,31.39-4,40.93,1.92a22.53,22.53,0,0,0,7.19,2.82c8.56,1.85,12.65,6,14.88,11a39.45,39.45,0,0,0,4.69,8.07c4.22,5.55,4.81,11.14,2.94,16.75a31.5,31.5,0,0,0-1.39,6.61c-.59,5.88-2.46,10.26-5.43,13.31a25.93,25.93,0,0,0-5.63,8.6c-2.22,5.72-11,7.74-26.55,5.9-2.49-.3-5.28,1-5.51,3.19-.75,7-12.66,2.51-13.66-4.22-.43-2.9-.56-6.35-2.69-8.76-1.9-2.13-5.86-3.14-8.56-4.29-6.12-2.59-14.86-5.93-17.07-12.13A7.81,7.81,0,0,0,692,75.55Z" transform="translate(-21 -22)"/>
      <path class="cls-3" d="M786.8,63.65a21.21,21.21,0,0,0-4.23-9.33,59.08,59.08,0,0,1-4.93-8.78,18.63,18.63,0,0,0-4.17-5.48,21.75,21.75,0,0,0-6.59-3.94c-3.16-1.25-6.59-1.56-9.66-3-2.45-1.17-4.65-2.66-7.2-3.64a35.29,35.29,0,0,0-7.64-2,63.09,63.09,0,0,0-18.15.23c-3.64.52-7.23,1.26-10.8,2.13s-7.27.71-10.92,1.18a35.8,35.8,0,0,0-15.59,5.36,57.57,57.57,0,0,0-6.5,5.69c-2.46,2.27-5.17,4.22-7.68,6.43-2.86,2.51-5.81,5.76-6.44,9.65-1.43,8.8,9.36,13.52,15.91,16,3.06,1.16,6.19,2.12,9.33,3a6.8,6.8,0,0,1,3.57,2.36A36,36,0,0,1,696.86,83a17.76,17.76,0,0,0,5.56,5.52c4.6,3.09,10,5,15.13,7,2.74,1.06,5.05,2.31,6,5.29.77,2.54.53,5.33,1.68,7.75a12.36,12.36,0,0,0,10.09,6.64,5.62,5.62,0,0,0,4.74-1.92,5.45,5.45,0,0,0,1.08-2.47,2.56,2.56,0,0,1,2.13-2.22c1.53-.41,3.21,0,4.74.16s3.37.28,5.06.34a50.53,50.53,0,0,0,8.34-.34c3.69-.49,7.79-1.55,10.34-4.47,1.48-1.7,2-3.91,3.17-5.84,1.59-2.74,3.93-4.77,5.72-7.33a22.46,22.46,0,0,0,3.37-8c.76-3.4.86-6.85,1.93-10.2A20.36,20.36,0,0,0,786.8,63.65Zm-19.75-24.2c.45.22.89.45,1.33.7a21.49,21.49,0,0,0-8.49,4c-.18-.11-.36-.2-.53-.32l-.36-.25,0,0,0,0-.55-.49c-.17-.16-.33-.33-.48-.5l-.07-.08-.16-.24c-.11-.17-.19-.39-.31-.54h0a2.83,2.83,0,0,1-.11-.31c0-.09-.06-.35-.07-.38a3.33,3.33,0,0,1,0-.55s0-.09,0-.14a.69.69,0,0,0,0-.16c.06-.26.14-.49.22-.74,0,0,0,0,0-.06s0,0,0,0l.15-.32c.13-.25.27-.49.42-.73a9.61,9.61,0,0,1,.92-1.21C761.63,37.84,764.45,38.24,767.05,39.45Zm-95,14a35.87,35.87,0,0,1,5.18-4.75c.93-.73,1.85-1.48,2.75-2.25a1.76,1.76,0,0,0,.41.11h0l.24,0,.47.09c.33.08.66.17,1,.28l.26.1h0l.38.18a7.15,7.15,0,0,1,.88.54.91.91,0,0,1,.16.11h0l.37.33a8.27,8.27,0,0,1,.71.74,1.15,1.15,0,0,0,.14.17h0l.3.45c.05.06.08.14.13.21a9.73,9.73,0,0,0-1.28,3A11.33,11.33,0,0,0,684,56.9a16.72,16.72,0,0,0-8,.94,1.74,1.74,0,0,0-.63.25,19.27,19.27,0,0,0-5.76,3.69,6.19,6.19,0,0,1-.23-.6C668.64,58.49,670.15,55.67,672,53.49Zm98.8,46.39a7.54,7.54,0,0,1-2.37,3.36,12.46,12.46,0,0,1-4.56,2c-5.14,1.32-10.69,1-15.92.51h-.05a7,7,0,0,0,1.1-4.54,5.14,5.14,0,0,0-.62-1.83,8.69,8.69,0,0,1,8.74-.2c1.77.88,3.22,1.84,5.27,1.89A6.7,6.7,0,0,0,767,99.36c1.47-1.26-.66-3.37-2.12-2.12a4,4,0,0,1-4.14.51c-.84-.35-1.6-.91-2.42-1.3a15.39,15.39,0,0,0-2.77-1,11.2,11.2,0,0,0-9.17,1.71c-.52-.45-1.07-.89-1.59-1.36a13.35,13.35,0,0,1-1.61-1.66,1.94,1.94,0,0,1,.15-.24l.26-.32c.14-.16.3-.31.46-.46l.22-.19,0,0,0,0c.17-.12.33-.24.5-.34l.6-.34.28-.14.07,0,.05,0a12.47,12.47,0,0,1,1.35-.43c.26-.06.51-.12.77-.16l.37-.07.15,0a21.64,21.64,0,0,1,3.69-.07,1.5,1.5,0,0,0,0-3c-3.75-.22-7.9.4-10.55,3.06a5.69,5.69,0,0,1-.18-.84c-.33-2.54,1.29-4.78,2.93-6.53,1.32-1.4-.8-3.53-2.12-2.12a12.89,12.89,0,0,0-3.72,6.62,9.08,9.08,0,0,0,1.31,6.14l.34.51h0a15.07,15.07,0,0,0,1.91,2.29c.92.9,2,1.58,2.94,2.49,1.81,1.78.77,4-.58,5.67a6.92,6.92,0,0,0-4.49,1.4,4.72,4.72,0,0,0-1.77,2.87,3,3,0,0,1-.85,1.95c-1,.79-2.68.48-3.85.12a10.33,10.33,0,0,1-4.56-3c-1.51-1.72-1.62-3.71-1.93-5.88-.39-2.67-1.14-5.5-3.22-7.39a10.53,10.53,0,0,0-1.71-1.27,2.14,2.14,0,0,0-.1-.22,12.81,12.81,0,0,1-1.82-6,8.37,8.37,0,0,1,5.76-.43,5.54,5.54,0,0,1,2.15,1.42,3.15,3.15,0,0,1,.8,2.38c.11,4.16,3.57,6.33,7.16,7.45,1.85.57,2.64-2.32.8-2.9a8.26,8.26,0,0,1-4.24-2.42,3.47,3.47,0,0,1-.71-1.91c0-.36,0-.71-.08-1a6.32,6.32,0,0,0,2.36-.74A6.54,6.54,0,0,0,736.75,87a1.5,1.5,0,0,0-2.59-1.51,6,6,0,0,1-.3.56l-.15.23-.1.14-.07.08a2.09,2.09,0,0,1-.2.22l-.21.2-.11.09-.06,0-.25.16-.25.13-.12.06,0,0-.35.1-.45.09c-.22,0-.45,0-.67,0a8.43,8.43,0,0,0-4.64-3.1,10.2,10.2,0,0,0-4.5-.06,6.8,6.8,0,0,1,.69-.58,17.37,17.37,0,0,1,7.43-2.51c4-.62,8-.35,12-.29,2.48,0,5,0,7.44-.12a11.21,11.21,0,0,1,3.42.2,8.64,8.64,0,0,1,2.7,1.21c1.61,1.08,3.12-1.52,1.52-2.59-4-2.7-8.87-1.68-13.42-1.69-1.28,0-2.57-.06-3.85-.12l0,0A7.87,7.87,0,0,0,741,76.37c.37-.59.55-1.27.9-1.88,1.76-3,6.26-3,9.32-3a1.5,1.5,0,0,0,0-3c-3.7,0-8.36.24-11,3.24a7.69,7.69,0,0,0-1.36,2.17,5.1,5.1,0,0,1-.89,1.54A11.24,11.24,0,0,1,734,78c-1.43.08-2.87.23-4.29.43-5,.69-11.62,2.57-12.5,8.41a11.34,11.34,0,0,0,.73,5.64l-1.7-.63c-2.4-.91-4.78-2-7.1-3A33.15,33.15,0,0,1,702.61,85l-.18-.16c3.63-2,7.82-2.18,12-1.35a1.54,1.54,0,0,0,1.85-1,1.51,1.51,0,0,0-1-1.84,25.52,25.52,0,0,0-2.76-.42,9.22,9.22,0,0,0,2.15-6.72,14,14,0,0,1,7.6-.24,47.6,47.6,0,0,1,9.57,3.26,1.56,1.56,0,0,0,2-.54,1.5,1.5,0,0,0-.54-2c-1.45-.64-3-1.31-4.6-1.91a14.31,14.31,0,0,0,5.89-3.46c1.36-1.38-.76-3.5-2.12-2.12a9.85,9.85,0,0,1-.83.75l0,0h0l-.26.2-.49.33c-.35.22-.71.42-1.08.61l-.58.28a1.57,1.57,0,0,0-.23.1l-.24.09a24.91,24.91,0,0,1-5.9,1.43,17.16,17.16,0,0,0-8.78.29c-.38-1.07-.92-2.1-1.4-3.14,4.58-2.41,9.69-4.42,14.89-4.5h.07a18.85,18.85,0,0,1,3.88.34,17.71,17.71,0,0,1,4.85,1.65,27.74,27.74,0,0,0,4.55,2.3,14.81,14.81,0,0,0,10.14-1c1.76-.8.24-3.39-1.51-2.59a10.81,10.81,0,0,1-9.87-.27,23.43,23.43,0,0,0-7.26-3,12.52,12.52,0,0,0,1.11-.94,16.11,16.11,0,0,0,3-4.42,7.34,7.34,0,0,1,4.33-3.3A44.89,44.89,0,0,1,748.25,50a1.55,1.55,0,0,0,1.5-1.5,1.51,1.51,0,0,0-1.5-1.5,52.71,52.71,0,0,0-7.77,1.58,11.46,11.46,0,0,0-5.6,3.33c-1.2,1.41-1.65,3.24-2.88,4.62a14.25,14.25,0,0,1-4.75,3.3c-5.49.12-10.78,2.1-15.65,4.6a7,7,0,0,1-.1-.92c-.1-2.93,1.7-5.29,4-6.85,1.6-1.06.1-3.66-1.51-2.59a12.26,12.26,0,0,0-5,5.94,10.34,10.34,0,0,0,.78,8.33,19,19,0,0,1,1.52,3.74,1.53,1.53,0,0,0,.24,1.2,7.41,7.41,0,0,1,0,1.94,6.42,6.42,0,0,1-3.48,4.59,1.48,1.48,0,0,0-.3.23,16.59,16.59,0,0,0-7.6,2.54l-.08-.1a16.94,16.94,0,0,1-1.72-3.33,9.48,9.48,0,0,0-.76-1.27c2.9-.56,5.88-1.44,8.1-3.35a5.78,5.78,0,0,0,1.56-6.69c-.32-.81-.8-1.49-1.18-2.26a2.55,2.55,0,0,1-.18-.53c0,.09.07.1,0-.06V65s0,0,0,0l.13-.16a4.06,4.06,0,0,1,.57-.35,1.51,1.51,0,0,0,.54-2,1.54,1.54,0,0,0-2.05-.54,3.91,3.91,0,0,0-2.09,2.33,4.12,4.12,0,0,0,.52,3.06c.16.29.35.57.51.86.08.13.15.26.22.4l.13.28a5.44,5.44,0,0,1,.23.68c0,.14.06.28.1.42a0,0,0,0,0,0,0V70c0,.23,0,.46,0,.69v0c0,.13-.07.25-.1.38a.76.76,0,0,0,0,.11c0,.08-.08.16-.13.24s-.13.2-.19.31v0l-.07.08c-.18.2-.37.38-.56.56l-.17.14h0l-.42.29c-.28.18-.56.34-.85.49l-.48.23-.21.1-.09,0-.07,0a30.82,30.82,0,0,1-6.48,1.65,10.8,10.8,0,0,0-2.57-1.15c-5.6-1.54-11.29-3.31-16.34-6.23a19.9,19.9,0,0,1-4.78-3.62,16,16,0,0,1,5.13-3.52,3.88,3.88,0,0,1,1.16.4,1.8,1.8,0,0,1,.68,1,11.92,11.92,0,0,0,2.26,3.92,10.64,10.64,0,0,0,7.77,3.56c1.93,0,1.93-3,0-3a7.66,7.66,0,0,1-6.15-3.33,6.78,6.78,0,0,1-.83-1.5,8.89,8.89,0,0,0-.85-2l-.06-.08a11.53,11.53,0,0,1,7.31,1.37c1.51,1,2.33,2.44,3.35,3.86A32.22,32.22,0,0,0,694.26,69c1.54,1.53,3.87,3.29,6.17,2.39,1.78-.7,1-3.6-.8-2.89-1.6.63-3.65-1.8-4.88-3.4A18,18,0,0,0,704.81,61c1.77-1.52,2.88-3.57,4.58-5.15a22.32,22.32,0,0,1,6.79-4.18,1.54,1.54,0,0,0,1-1.84,1.51,1.51,0,0,0-1.84-1.05,27.83,27.83,0,0,0-6.61,3.69,17.32,17.32,0,0,0-2.9,2.71c-.71.88-1.29,1.82-2.07,2.64-2.95,3.11-6.94,4.32-11.1,4.42A15.35,15.35,0,0,0,690.88,60a11,11,0,0,0-3.71-2.29,8.43,8.43,0,0,1,3.5-9.11c4.75-3.42,11-4.59,16.65-5.48a1.5,1.5,0,0,0,1-1.84,1.54,1.54,0,0,0-1.85-1.05c-5.2.81-10.55,2-15.24,4.46a17.92,17.92,0,0,0-3.87,2.78,10.22,10.22,0,0,0-2.28-2.22,8.71,8.71,0,0,0-2.44-1.17c.75-.69,1.49-1.39,2.22-2.11a27.52,27.52,0,0,1,12.85-7,47,47,0,0,1,9-1.31l1,0a1.53,1.53,0,0,0,.4.35c2,1.23,4.4,2.64,5.75,4.67.81,1.22.93,2.15,0,3.24-1.46,1.84-3.83,2.46-5.86,3.46-3.84.19-8.13.66-11.43,2.81a8.69,8.69,0,0,0-4,8.12,1.54,1.54,0,0,0,1.5,1.5,1.5,1.5,0,0,0,1.5-1.5,9.38,9.38,0,0,1,0-1.06c0-.19,0-.39,0-.58a.2.2,0,0,0,0-.07.45.45,0,0,1,0-.08c.06-.31.13-.62.22-.92l.15-.41.09-.2c.15-.26.3-.52.47-.77l.06-.08a1.47,1.47,0,0,1,.1-.13l.27-.29a4.92,4.92,0,0,1,1.37-1.09,15.67,15.67,0,0,1,6-1.92,13.11,13.11,0,0,0-1.83,3.77,1.51,1.51,0,0,0,2.9.8,10.12,10.12,0,0,1,2.28-3.88c1.13-1.28,2.61-1.67,4.11-2.38,2.09-1,4.36-2.42,5.32-4.64,1.6-3.75-1.57-6.94-4.71-9.17,1.7-.31,3.38-.79,5.07-1.16,3.18-.69,6.51-1.3,9.89-1.69a18.8,18.8,0,0,0-.81,3.59,1.38,1.38,0,0,0-.13.59s0,.07,0,.1c-2.27,1.27-4.25,3.16-4.51,5.88a4.69,4.69,0,0,1-1.1,2.85,6.86,6.86,0,0,1-3.49,2.06,1.5,1.5,0,1,0,.79,2.89c3-.77,5.93-3,6.61-6.19a8,8,0,0,0,.16-1.2s0-.19,0-.27,0-.23,0-.25.07-.25.11-.38a.88.88,0,0,1,0-.15,5.63,5.63,0,0,1,.38-.68l.1-.14h0l.29-.33a7.7,7.7,0,0,1,.6-.54,19,19,0,0,0,.41,2.66c.39,1.76.67,3.3-.55,4.83a10.82,10.82,0,0,1-5.09,3.19c-1.83.59-1,3.49.8,2.89,3.9-1.26,8.09-4.1,8.23-8.59a12.25,12.25,0,0,0-.5-3.12,17.09,17.09,0,0,1-.44-3.7c0-.14,0-.28,0-.43a17.26,17.26,0,0,1,3.87,0,6.87,6.87,0,0,1,1.67.46,7.37,7.37,0,0,1,1.27,1c2.8,2.24,7.57,1.68,10.16-.66,1.44-1.29-.69-3.41-2.12-2.12a6,6,0,0,1-3.92,1.18,3.78,3.78,0,0,1-2-.55c-.53-.33-.92-.85-1.45-1.2-2-1.34-4.7-1.39-7.15-1.21a16.77,16.77,0,0,1,.94-2.83c7-.48,14,.14,20.19,3.07,1.79.84,3.44,1.87,5.2,2.74a10.76,10.76,0,0,0-1.41,2.43,28.43,28.43,0,0,0-11.45,3c-1.86,1-3.48,2.37-5.4,3.32a47.68,47.68,0,0,1-6.68,2.56c-1.83.58-1,3.47.8,2.89a56.84,56.84,0,0,0,6.45-2.42,42,42,0,0,0,5.33-3.16,23.26,23.26,0,0,1,10.51-3.14,5.84,5.84,0,0,0,.11.73,7.8,7.8,0,0,0,3.4,4.31A27.44,27.44,0,0,1,755,49.7a9.44,9.44,0,0,1-5.81,2.48c-1.91.14-1.93,3.14,0,3A12.72,12.72,0,0,0,755.66,53a12.36,12.36,0,0,0,2.45-2.23c.64-.78,1.14-1.68,1.77-2.47A12,12,0,0,1,761,47.16l0,0c2.64-2.53,6.26-3.76,9.82-4.45a1.37,1.37,0,0,0,.69-.35,14.51,14.51,0,0,1,1.29,1.31c.24.27.46.55.67.83a19.71,19.71,0,0,1-10.27,8.6c-2.38.94-4.92,1.16-7.28,2.15a14.66,14.66,0,0,0-5.75,4.25c-1.21,1.49.9,3.63,2.12,2.13a12.25,12.25,0,0,1,5.76-4c.42-.14.85-.24,1.29-.34a31.14,31.14,0,0,1-.88,7.09,6.29,6.29,0,0,1-1.09,2.54s-.23.25-.29.31l-.11.09-.2.14a1.51,1.51,0,0,1-.62.17,1.54,1.54,0,0,0-1.5,1.5,1.51,1.51,0,0,0,1.5,1.5c2.76-.14,4.26-2.4,5-4.82a33.64,33.64,0,0,0,1.19-9.23,31,31,0,0,0,3.35-1.31,22.32,22.32,0,0,0,9.48-7.84c.37.75.72,1.51,1.1,2.27.08.18.18.35.27.53a15.57,15.57,0,0,0-4.79,9.85,17.9,17.9,0,0,0-9,7.44A1.5,1.5,0,0,0,765.29,69c.18-.31.37-.62.58-.92l.19-.26a.92.92,0,0,1,.11-.14l.06-.08.22-.26a15.83,15.83,0,0,1,1.93-1.91l.25-.21.11-.09.62-.45c.43-.29.86-.57,1.32-.83s.68-.36,1-.53c0,.2,0,.41,0,.61a6.85,6.85,0,0,1-.1,3c-.71,2.12-3,3.55-5.09,4.17-1.85.56-1.06,3.45.79,2.89a11.86,11.86,0,0,0,6.08-4.06,7.42,7.42,0,0,0,1.33-3.12,14.79,14.79,0,0,0-.07-3.58A13.28,13.28,0,0,1,778.06,53c.16.27.32.55.49.82,1,1.5,2.1,2.86,3,4.37a15.78,15.78,0,0,1,2.41,9,26.19,26.19,0,0,1-1.25,5.9c-5.63,3.66-11.93,6.38-18.74,6.54-1.92,0-1.93,3,0,3a31.77,31.77,0,0,0,6.18-.78,23.69,23.69,0,0,1-2.53,4.33s-.26.34-.41.51l-.57.64c-.19.19-.39.39-.6.57l-.33.29-.21.17a6.65,6.65,0,0,1-2.2,1.12,23.28,23.28,0,0,1-3.94-5.68c-.87-1.72-3.46-.2-2.59,1.52a23.29,23.29,0,0,0,7.07,8.53,18.56,18.56,0,0,0,8.38,3.19A25,25,0,0,0,770.81,99.88ZM732.34,87.45l.15-.07A.51.51,0,0,1,732.34,87.45ZM703.55,72.53Zm1.11-1.35ZM706,65s0,0,0,0h0S706,65,706,65Zm0,.07s0,.06,0,0Zm50.93,2.32Zm23.16,18.32a20.7,20.7,0,0,1-4.38,6.59q-.86,1-1.62,2l-.24,0A16.33,16.33,0,0,1,766,91.65c4-2.09,6.32-6.76,7.93-10.83a44.36,44.36,0,0,0,7.93-3.64A41.21,41.21,0,0,1,780.07,85.66Z" transform="translate(-21 -22)"/>
    </g>
  </g>
  <g id="eye">
    <g>
      <g>
        <path class="cls-18" d="M678.51,88.91a1.5,1.5,0,0,0,0-2.82l-7.35-2.81a4,4,0,0,0-1-.25,19.28,19.28,0,0,1,0,8.94,4.86,4.86,0,0,0,1-.25Z" transform="translate(-21 -22)"/>
        <g>
          <path class="cls-19" d="M670.15,83a3.86,3.86,0,0,0-.83,0,4.12,4.12,0,0,0-3.61,2.73,1.8,1.8,0,0,1,0,3.6A4.21,4.21,0,0,0,670.18,92,19.28,19.28,0,0,0,670.15,83Z" transform="translate(-21 -22)"/>
          <path class="cls-20" d="M667.41,87.54a1.84,1.84,0,0,0-1.7-1.8A4,4,0,0,0,665.5,87v1.1a3.65,3.65,0,0,0,.24,1.29A1.85,1.85,0,0,0,667.41,87.54Z" transform="translate(-21 -22)"/>
        </g>
      </g>
      <path class="cls-3" d="M664.5,81.5A6.36,6.36,0,0,1,669.16,79a12.47,12.47,0,0,1,5.39.73q1.28.48,2.49,1.08c.77.46,1.59.84,2.31,1.37s1.48,1,2.16,1.59,1.35,1.16,2,1.77c-.78-.43-1.52-.92-2.27-1.37s-1.54-.87-2.28-1.32a34.75,34.75,0,0,0-4.73-2.18,14.14,14.14,0,0,0-5-.89,7.92,7.92,0,0,0-2.5.44A5.81,5.81,0,0,0,664.5,81.5Z" transform="translate(-21 -22)"/>
    </g>
  </g>
  <g id="lungs">
    <g>
      <path class="cls-3" d="M723.92,277.14c-1.09-24.21-8.62-32.32-21.32-27.5a26.72,26.72,0,0,0-9.9,6.73C678,272,668.12,291.15,662,313c-8.21,24.35-7.23,45.55-3.31,65.75a12.77,12.77,0,0,0,7.73,9.35c12.56,5.12,25.94,5.3,39.83,2.27a20.44,20.44,0,0,0,16.07-21.83c-1.47-15.91-2.07-30.64,1.68-39.54,3.79-10.86,5.27-21.7,2.8-32.49A108.48,108.48,0,0,1,723.92,277.14Z" transform="translate(-21 -22)"/>
      <path class="cls-3" d="M746.85,277.14c1.08-24.21,8.61-32.32,21.32-27.5a26.6,26.6,0,0,1,9.89,6.73c14.7,15.65,24.59,34.78,30.71,56.63,8.2,24.35,7.22,45.55,3.3,65.75a12.78,12.78,0,0,1-7.72,9.35c-12.57,5.12-25.94,5.3-39.84,2.27a20.45,20.45,0,0,1-16.07-21.83c1.48-15.91,2.08-30.64-1.67-39.54-3.79-10.86-5.27-21.7-2.8-32.49A109.39,109.39,0,0,0,746.85,277.14Z" transform="translate(-21 -22)"/>
    </g>
  </g>
  <g id="bronchus">
    <path id="bronchus-2" data-name="bronchus" class="cls-2" d="M796.39,350.91c3,.64,5.29-.81,7.46-2.8a.45.45,0,0,0-.41-.77,58.76,58.76,0,0,1-28.76-.76,11.13,11.13,0,0,1-6.86-5.81c-2.28-4.64-4-9.1-4.06-13a1.91,1.91,0,0,1,2.62-1.84,77.13,77.13,0,0,1,13.1,7.34,5.72,5.72,0,0,1,2.44,4.29,34,34,0,0,0,1.64,7.13.22.22,0,0,0,.42-.07,32.4,32.4,0,0,1,.73-7.45.37.37,0,0,1,.71-.07,11.21,11.21,0,0,0,5.6,5.45.36.36,0,0,0,.48-.49,26.46,26.46,0,0,0-4.75-6.63,3,3,0,0,1,.66-4.82l.65-.28A.18.18,0,0,0,788,330c-2,0-3.62.33-4.53,1.34a.81.81,0,0,1-1.15,0,38,38,0,0,0-8.41-5.81.74.74,0,0,1-.14-1.21c3.28-2.8,8.68-3.18,19,2.06a.49.49,0,0,0,.64-.67,11.07,11.07,0,0,0-5.91-5.14.62.62,0,0,1-.1-1.11,9.69,9.69,0,0,0,3.19-3.6.29.29,0,0,0-.37-.4c-15.35,7.48-29.69,8.92-33-8.24a.88.88,0,0,1,1-1.05,21.69,21.69,0,0,1,8.71,4.08.38.38,0,0,0,.57-.47,14.66,14.66,0,0,0-3.58-5,.54.54,0,0,1,.22-.92,4.81,4.81,0,0,0,2.67-2.92.4.4,0,0,0-.57-.48,35.85,35.85,0,0,1-6.07,3,5.11,5.11,0,0,1-5.89-2.28,3.59,3.59,0,0,1-.37-2.81,1.08,1.08,0,0,1,.42-.59c12-9.17,18.49-6.48,20.57,5.5a.21.21,0,0,0,.41,0,14.17,14.17,0,0,0,.83-6.17.45.45,0,0,1,.73-.39c1.94,1.43,4.7,1.9,7.68,2.12a.54.54,0,0,0,.29-1,59,59,0,0,1-11.53-7.63.53.53,0,0,1,.41-.92c6,.62,11.92-3.62,17.85-9a.63.63,0,0,0-.67-1.05,42.61,42.61,0,0,0-7.75,3.91.6.6,0,0,1-.94-.58,29,29,0,0,0,.18-7,.43.43,0,0,0-.84-.06c-2.09,6.28-4.83,9.54-8.26,9.6a.78.78,0,0,1-.64-1.18c3.07-5.42,4.48-10.61,3.67-15.52a.34.34,0,0,0-.67,0,28.51,28.51,0,0,1-4,8.77.58.58,0,0,1-1-.12c-1.28-2.88-4.27-4.1-7.84-4.75a.41.41,0,0,0-.31.73,22.79,22.79,0,0,1,5.71,5.72,2.57,2.57,0,0,1,.18,2.58c-3.45,6.93-8.65,8.6-15.39,5.69a6.29,6.29,0,0,1-3-1.87,14.13,14.13,0,0,1-2.43-3.75,33.13,33.13,0,0,1-1.9-5.3,66.22,66.22,0,0,1-1.42-6.54c-.09-.51-.16-1-.24-1.54H729.59c-1.73,10.42-5.24,17.43-11.59,19-6.74,2.91-12,1.24-15.39-5.69a2.57,2.57,0,0,1,.17-2.58,23,23,0,0,1,5.71-5.72.4.4,0,0,0-.3-.73c-3.57.65-6.56,1.87-7.84,4.75a.59.59,0,0,1-1,.12,28.74,28.74,0,0,1-4-8.77.34.34,0,0,0-.67,0c-.8,4.91.6,10.1,3.68,15.52a.78.78,0,0,1-.64,1.18c-3.44-.06-6.18-3.32-8.27-9.6a.43.43,0,0,0-.83.06,27.94,27.94,0,0,0,.18,7,.61.61,0,0,1-1,.58,42.17,42.17,0,0,0-7.74-3.91.63.63,0,0,0-.67,1.05c5.92,5.4,11.86,9.64,17.84,9a.53.53,0,0,1,.41.92,58.89,58.89,0,0,1-11.52,7.63.54.54,0,0,0,.29,1c3-.22,5.74-.69,7.67-2.12a.46.46,0,0,1,.74.39,14,14,0,0,0,.83,6.17.21.21,0,0,0,.4,0c2.09-12,8.54-14.67,20.58-5.5a1.19,1.19,0,0,1,.42.59,3.64,3.64,0,0,1-.37,2.81,5.12,5.12,0,0,1-5.89,2.28,35.85,35.85,0,0,1-6.07-3,.4.4,0,0,0-.57.48,4.76,4.76,0,0,0,2.67,2.92.54.54,0,0,1,.21.92,14.49,14.49,0,0,0-3.57,5,.38.38,0,0,0,.56.47,21.67,21.67,0,0,1,8.72-4.08.89.89,0,0,1,1,1.05c-3.27,17.16-17.62,15.72-33,8.24a.28.28,0,0,0-.37.4,9.61,9.61,0,0,0,3.19,3.6.62.62,0,0,1-.1,1.11,11,11,0,0,0-5.91,5.14.48.48,0,0,0,.64.67c10.27-5.24,15.66-4.86,19-2.06a.74.74,0,0,1-.14,1.21,38.37,38.37,0,0,0-8.42,5.81.8.8,0,0,1-1.14,0c-.92-1-2.53-1.35-4.53-1.34a.17.17,0,0,0-.06.34c.22.09.44.18.64.28a3,3,0,0,1,.67,4.81A26.54,26.54,0,0,0,679.5,342a.36.36,0,0,0,.49.49,11.25,11.25,0,0,0,5.6-5.45.37.37,0,0,1,.71.07,33,33,0,0,1,.73,7.45.21.21,0,0,0,.41.07,33.43,33.43,0,0,0,1.65-7.13,5.69,5.69,0,0,1,2.44-4.29,76.75,76.75,0,0,1,13.1-7.34,1.91,1.91,0,0,1,2.62,1.84c-.08,3.92-1.79,8.38-4.07,13a11.11,11.11,0,0,1-6.86,5.81,58.75,58.75,0,0,1-28.76.76.45.45,0,0,0-.41.77c2.17,2,4.51,3.44,7.47,2.8a.32.32,0,0,1,.29.56,16.56,16.56,0,0,0-4.31,6,.42.42,0,0,0,.64.49c7.4-5.71,15.3-8.5,23.78-8.07a.7.7,0,0,1,.62.92c-.46,1.38-.15,2-1.64,2.14-12.75,1.28-22.72,7.32-26.42,14.69a.42.42,0,0,0,.61.54,27.53,27.53,0,0,0,7-6,4.07,4.07,0,0,1,2.7-1.74c2-.29,1.58,1.13-.27,3.52a.32.32,0,0,0,.45.46,23.45,23.45,0,0,0,5-4.61,8.71,8.71,0,0,1,4.36-3.38,11.61,11.61,0,0,1,2.76-.55,1.13,1.13,0,0,1,1.07,1.61c-4.73,10.16-10.78,12-17.05,12.4a.48.48,0,0,0-.22.88c2,1.33,4.41,1.69,7.79-.12a.4.4,0,0,1,.55.53l-1.6,3.2a.45.45,0,0,0,.68.57c5.72-4.38,14.83-16.05,23.44-26.65a.45.45,0,0,1,.79.37,33.85,33.85,0,0,1-3.6,9.4.53.53,0,0,0,.77.68,12.28,12.28,0,0,0,4.81-5.65.43.43,0,0,1,.79,0c1.24,2.73,2.55,4.44,3.95,4.9a.87.87,0,0,0,1-1.22c-6.27-14.43.81-36.22,19.73-64.53a2.82,2.82,0,0,1,4.69,0c18.91,28.31,26,50.1,19.73,64.53a.87.87,0,0,0,1,1.22c1.4-.46,2.7-2.17,3.94-4.9a.43.43,0,0,1,.79,0,12.28,12.28,0,0,0,4.81,5.65.53.53,0,0,0,.78-.68,33.58,33.58,0,0,1-3.61-9.4.45.45,0,0,1,.79-.37c8.62,10.6,17.73,22.27,23.44,26.65a.46.46,0,0,0,.69-.57l-1.61-3.2a.4.4,0,0,1,.56-.53c3.37,1.81,5.8,1.45,7.79.12a.48.48,0,0,0-.22-.88c-6.27-.42-12.32-2.24-17.06-12.4a1.13,1.13,0,0,1,1.08-1.61,11.44,11.44,0,0,1,2.75.55,8.71,8.71,0,0,1,4.36,3.38,23.69,23.69,0,0,0,5,4.61.33.33,0,0,0,.46-.46c-1.85-2.39-2.29-3.81-.27-3.52a4.12,4.12,0,0,1,2.7,1.74,27.64,27.64,0,0,0,7,6,.42.42,0,0,0,.61-.54c-3.7-7.37-13.67-13.41-26.41-14.69-1.5-.15-1.18-.76-1.65-2.14a.7.7,0,0,1,.63-.92c8.47-.43,16.38,2.36,23.77,8.07a.41.41,0,0,0,.64-.49,16.53,16.53,0,0,0-4.3-6A.32.32,0,0,1,796.39,350.91Z" transform="translate(-21 -22)"/>
  </g>
  <g id="mouth">
    <path id="mouth-2" data-name="mouth" class="cls-2" d="M729.59,268H744c-.3-2-.57-3.92-.78-5.89,0-.37-.07-.74-.1-1.11-.23-2.3-.42-4.61-.56-6.91q-.25-4.14-.36-8.28c-.08-2.73-.12-5.47-.13-8.2s0-5.21,0-7.82c0-2.36.09-4.73.17-7.09a153,153,0,0,0-2.09-30.38q-2-12.13-4-24.28c-1.38-8.35-2.49-16.81-4.21-25.09-.56-2.71-1.91-5.2-3-7.76-1.23-3-2.55-6-4.07-8.88-.37-.7-.78-1.38-1.2-2A10.13,10.13,0,0,0,722,122c-12.57-11.22-25.35-22.57-42.18-23.23a63.16,63.16,0,0,0-10,.41L665.92,117a34.7,34.7,0,0,1,17-.18,2.49,2.49,0,0,1,.47.12c9.67,4.64,16.38,8.18,21.17,11.35a.84.84,0,0,1-.66,1.51c-15.72-3.65-32-4.37-48.9,4.23-1.82,3.17-.15,11.53,5,15q3.29.72,6.66,1.16a8.49,8.49,0,0,1,7.2-14.47l18.79,2.8a8.49,8.49,0,0,1,7.15,9.66h0a8,8,0,0,1-.24,1.1c4.85-.75,9.73-1.72,14.62-2.86a3.73,3.73,0,0,1,4.45,2.67v0c2.74,10.35,5.59,20.69,7.62,31.21a160.35,160.35,0,0,1,2.34,16c.44,4.84.07,9.8.7,14.59,1.42,18.62,2.35,36.37,1.16,50.07C730.24,263.47,730,265.81,729.59,268Z" transform="translate(-21 -22)"/>
  </g>
  <g id="esophagusTrachea">
    <g id="esophagous_trachea" data-name="esophagous/trachea">
      <path class="cls-13" d="M727.28,194.58a2.07,2.07,0,0,0,0,1.89.83.83,0,0,0,.87.45,66.44,66.44,0,0,1,13.67-1,.89.89,0,0,0,.9-.6,2.51,2.51,0,0,0,0-1.83.75.75,0,0,0-.74-.48,31.36,31.36,0,0,0-7.64,1.53,6.52,6.52,0,0,1-2.84.32,16.51,16.51,0,0,1-3.27-.7A.72.72,0,0,0,727.28,194.58Z" transform="translate(-21 -22)"/>
      <path class="cls-13" d="M742.6,203.39a2.07,2.07,0,0,0,0-1.89.85.85,0,0,0-.87-.45,66.44,66.44,0,0,1-13.67,1,.89.89,0,0,0-.9.61,2.48,2.48,0,0,0,0,1.82.75.75,0,0,0,.74.48,31.94,31.94,0,0,0,7.64-1.52,6.38,6.38,0,0,1,2.84-.33,16.51,16.51,0,0,1,3.27.7A.72.72,0,0,0,742.6,203.39Z" transform="translate(-21 -22)"/>
      <path class="cls-13" d="M727.29,198.73a2.53,2.53,0,0,0-.06,1.22,1,1,0,0,0,1.25.79c3.82-1,8.26-.72,12.95.09a1,1,0,0,0,1.17-1.13,2,2,0,0,0-.22-.7,2.57,2.57,0,0,0,.21-1.38.66.66,0,0,0-.74-.54c-5.24.82-10.23,1.47-13.57,1A.89.89,0,0,0,727.29,198.73Z" transform="translate(-21 -22)"/>
      <path class="cls-13" d="M728.32,205.41a30.55,30.55,0,0,0,13.12.06,1.32,1.32,0,0,1,1.51,1.65s0,0,0,.08a1.64,1.64,0,0,1-1.44,1.12,72.3,72.3,0,0,1-13.41,0,1,1,0,0,1-.79-.59,3,3,0,0,1-.29-1.32A1.09,1.09,0,0,1,728.32,205.41Z" transform="translate(-21 -22)"/>
      <path class="cls-13" d="M741.68,212.59a30.55,30.55,0,0,0-13.12-.06,1.31,1.31,0,0,1-1.51-1.65.24.24,0,0,1,0-.08,1.46,1.46,0,0,1,1.43-1.12c5.33.74,8.92.32,13.41,0a.88.88,0,0,1,.79.59,2.71,2.71,0,0,1,.29,1.32A1.09,1.09,0,0,1,741.68,212.59Z" transform="translate(-21 -22)"/>
      <path class="cls-13" d="M742.76,220a30.51,30.51,0,0,0-13.07,1.1,1.31,1.31,0,0,1-1.64-1.52s0-.05,0-.08a1.48,1.48,0,0,1,1.35-1.24c5.36.27,8.9-.47,13.36-1.16a.88.88,0,0,1,.83.53,2.69,2.69,0,0,1,.39,1.28A1.11,1.11,0,0,1,742.76,220Z" transform="translate(-21 -22)"/>
      <path class="cls-13" d="M728.3,222.35a2.08,2.08,0,0,0-.09,1.89.85.85,0,0,0,.87.48,66.87,66.87,0,0,1,13.68-.57.89.89,0,0,0,.92-.57,2.51,2.51,0,0,0,0-1.83.73.73,0,0,0-.73-.5,31.45,31.45,0,0,0-7.67,1.3,6.39,6.39,0,0,1-2.85.23,16.15,16.15,0,0,1-3.24-.79A.71.71,0,0,0,728.3,222.35Z" transform="translate(-21 -22)"/>
      <path class="cls-13" d="M741.68,216.59a30.55,30.55,0,0,0-13.12-.06,1.31,1.31,0,0,1-1.51-1.65.24.24,0,0,1,0-.08,1.46,1.46,0,0,1,1.43-1.12c5.33.74,8.92.32,13.41,0a.88.88,0,0,1,.79.59,2.71,2.71,0,0,1,.29,1.32A1.09,1.09,0,0,1,741.68,216.59Z" transform="translate(-21 -22)"/>
      <path class="cls-13" d="M742.68,228.59a30.55,30.55,0,0,0-13.12-.06,1.31,1.31,0,0,1-1.51-1.65.24.24,0,0,1,0-.08,1.63,1.63,0,0,1,1.43-1.12,72.3,72.3,0,0,1,13.41,0,1,1,0,0,1,.79.59,2.71,2.71,0,0,1,.29,1.32A1.09,1.09,0,0,1,742.68,228.59Z" transform="translate(-21 -22)"/>
      <path class="cls-13" d="M739.68,184a34.22,34.22,0,0,0-13.85,1.17,1.35,1.35,0,0,1-1.73-1.51.24.24,0,0,0,0-.08,1.56,1.56,0,0,1,1.44-1.25c5.68.24,9.43-.51,14.16-1.22a.92.92,0,0,1,.88.52,2.6,2.6,0,0,1,.4,1.28A1.17,1.17,0,0,1,739.68,184Z" transform="translate(-21 -22)"/>
      <path class="cls-13" d="M726.3,186.35a2.08,2.08,0,0,0-.09,1.89.85.85,0,0,0,.87.48,66.87,66.87,0,0,1,13.68-.57.89.89,0,0,0,.92-.57,2.51,2.51,0,0,0,0-1.83.73.73,0,0,0-.73-.5,31.45,31.45,0,0,0-7.67,1.3,6.39,6.39,0,0,1-2.85.23,16.15,16.15,0,0,1-3.24-.79A.71.71,0,0,0,726.3,186.35Z" transform="translate(-21 -22)"/>
      <path class="cls-13" d="M741.68,192.59a30.55,30.55,0,0,0-13.12-.06,1.31,1.31,0,0,1-1.51-1.65.24.24,0,0,1,0-.08,1.63,1.63,0,0,1,1.43-1.12,72.3,72.3,0,0,1,13.41,0,1,1,0,0,1,.79.59,2.71,2.71,0,0,1,.29,1.32A1.09,1.09,0,0,1,741.68,192.59Z" transform="translate(-21 -22)"/>
    </g>
  </g>
  <g id="thyroid">
    <g id="thyroid-2" data-name="thyroid">
      <path class="cls-3" d="M728.86,201.64l0-.1-3.28-6.85c-3.66-3.28-6.62-2.46-8.77,3.2-1.22,4.66-1.33,8.26,0,10.49a21.66,21.66,0,0,0,6.19,9.76,4,4,0,0,0,5.2-.22c4.77-4.78,9.36-5.69,13.73-1.55a6.27,6.27,0,0,0,8.62-.32,17.77,17.77,0,0,0,3.78-8.81c2.86-7.52,2.19-12.69-2.74-15.05-2.63-1-4.67,1.75-6,8.66a17.77,17.77,0,0,1-2.07,3.53C739.5,209.55,729.81,207.72,728.86,201.64Z" transform="translate(-21 -22)"/>
      <path class="cls-2" d="M703.08,174.07h.84a1.08,1.08,0,0,1,1.08,1.08v.78a.79.79,0,0,1-.79.79h-1.14a1.08,1.08,0,0,1-1.08-1.08v-.49a1.08,1.08,0,0,1,1.08-1.08Z"/>
      <rect class="cls-2" x="698" y="172.31" width="3" height="2.65" rx="1.08"/>
      <path class="cls-2" d="M703.08,177.6h.84a1.08,1.08,0,0,1,1.08,1.08v.78a.79.79,0,0,1-.79.79h-1.14a1.08,1.08,0,0,1-1.08-1.08v-.49a1.08,1.08,0,0,1,1.08-1.08Z"/>
      <path class="cls-2" d="M722.36,203.51h0a1.29,1.29,0,0,1-1.66.17l-.76-.53a.69.69,0,0,1-.14-1.05l.21-.24a1.3,1.3,0,0,1,1.67-.17l.49.34A1,1,0,0,1,722.36,203.51Z" transform="translate(-21 -22)"/>
      <path class="cls-2" d="M725.32,203.58h0a1,1,0,0,1-.12,1.48l-.73.56a.92.92,0,0,1-1.19-.08l-.23-.22a1,1,0,0,1,.12-1.48l.48-.36A1.29,1.29,0,0,1,725.32,203.58Z" transform="translate(-21 -22)"/>
      <path class="cls-2" d="M721.93,205.28l.3.25a1.22,1.22,0,0,1,0,1.87h0a1.64,1.64,0,0,1-2.12,0h0a1.21,1.21,0,0,1,0-1.87l.28-.26A1.19,1.19,0,0,1,721.93,205.28Z" transform="translate(-21 -22)"/>
      <path class="cls-2" d="M717.85,204.7h0a1.16,1.16,0,0,1,1.34.89l0,.3a.78.78,0,0,1-.72.84l-.34,0a1.17,1.17,0,0,1-1.34-.89h0A1.08,1.08,0,0,1,717.85,204.7Z" transform="translate(-21 -22)"/>
      <path class="cls-2" d="M726.47,207h0a.81.81,0,0,0,1.26.17l.58-.53a.82.82,0,0,0,.1-1l-.16-.24a.81.81,0,0,0-1.26-.17l-.38.34A1.16,1.16,0,0,0,726.47,207Z" transform="translate(-21 -22)"/>
      <path class="cls-2" d="M723.93,207.33h0a1.32,1.32,0,0,0-.2,1.7l.56.56c.27.27.76.16,1.11-.23l.25-.3a1.29,1.29,0,0,0,.2-1.69l-.36-.37C725.12,206.63,724.42,206.77,723.93,207.33Z" transform="translate(-21 -22)"/>
      <path class="cls-2" d="M726.79,208.81l-.22.24a1.48,1.48,0,0,0,0,1.87h0a1,1,0,0,0,1.61.05h0a1.48,1.48,0,0,0,0-1.87l-.21-.26A.75.75,0,0,0,726.79,208.81Z" transform="translate(-21 -22)"/>
      <path class="cls-2" d="M730,206.8h0a.93.93,0,0,0-1,.89l-.1.84a.73.73,0,0,0,.55.84l.25,0a.94.94,0,0,0,1-.9l.07-.54A1,1,0,0,0,730,206.8Z" transform="translate(-21 -22)"/>
      <path class="cls-2" d="M719.34,200h0a.92.92,0,0,1-1.36.17l-.62-.53a.8.8,0,0,1-.12-1.05l.18-.23a.92.92,0,0,1,1.36-.18l.4.35A1.09,1.09,0,0,1,719.34,200Z" transform="translate(-21 -22)"/>
      <path class="cls-2" d="M718.76,201.82h0a1.11,1.11,0,0,1-.1,1.48l-.59.56a.67.67,0,0,1-1-.08l-.18-.23a1.12,1.12,0,0,1,.09-1.48l.39-.36A.92.92,0,0,1,718.76,201.82Z" transform="translate(-21 -22)"/>
      <path class="cls-2" d="M722,198.22l.24.25a1.39,1.39,0,0,1,0,1.87h0a1.16,1.16,0,0,1-1.73,0h0a1.4,1.4,0,0,1,0-1.87l.23-.26A.86.86,0,0,1,722,198.22Z" transform="translate(-21 -22)"/>
      <path class="cls-2" d="M721.57,208.56h0a1,1,0,0,1,1.1.89l.11.85a.74.74,0,0,1-.59.84l-.27,0a1,1,0,0,1-1.1-.89l-.07-.55A1,1,0,0,1,721.57,208.56Z" transform="translate(-21 -22)"/>
      <path class="cls-2" d="M720.32,208h0a1,1,0,0,1-.12,1.48l-.73.56a.92.92,0,0,1-1.19-.08l-.23-.23a1,1,0,0,1,.12-1.47l.48-.36A1.29,1.29,0,0,1,720.32,208Z" transform="translate(-21 -22)"/>
      <path class="cls-2" d="M732.93,209.69l.3.25a1.22,1.22,0,0,1,0,1.87h0a1.64,1.64,0,0,1-2.12,0h0a1.21,1.21,0,0,1,0-1.87l.28-.26A1.19,1.19,0,0,1,732.93,209.69Z" transform="translate(-21 -22)"/>
      <path class="cls-2" d="M721.72,214.37h0c.6,0,1-.41.8-.89l-.24-.7a1,1,0,0,0-1-.6H721c-.6,0-1,.41-.8.88l.16.46A1.45,1.45,0,0,0,721.72,214.37Z" transform="translate(-21 -22)"/>
      <path class="cls-2" d="M749.93,209.1h0a1.3,1.3,0,0,0-.2,1.69l.56.56c.27.27.76.17,1.11-.23l.25-.29a1.3,1.3,0,0,0,.2-1.7l-.36-.36C751.12,208.39,750.42,208.54,749.93,209.1Z" transform="translate(-21 -22)"/>
      <path class="cls-2" d="M726.79,214.1l-.22.25a1.48,1.48,0,0,0,0,1.87h0a1,1,0,0,0,1.61,0h0a1.48,1.48,0,0,0,0-1.87l-.21-.26A.76.76,0,0,0,726.79,214.1Z" transform="translate(-21 -22)"/>
      <path class="cls-2" d="M730,212.09h0a.94.94,0,0,0-1,.89l-.1.85a.74.74,0,0,0,.55.84l.25,0a.93.93,0,0,0,1-.89l.07-.55A1,1,0,0,0,730,212.09Z" transform="translate(-21 -22)"/>
      <path class="cls-2" d="M723.59,216.09h0a1.12,1.12,0,0,1,1.49,0l.75.53a.68.68,0,0,1,.24,1l-.17.2a1.13,1.13,0,0,1-1.49,0l-.48-.35A1,1,0,0,1,723.59,216.09Z" transform="translate(-21 -22)"/>
      <path class="cls-2" d="M743.77,215.36h0a1,1,0,0,1,.25-1.46l.78-.51a.92.92,0,0,1,1.18.16l.21.25a1,1,0,0,1-.26,1.46l-.5.33A1.29,1.29,0,0,1,743.77,215.36Z" transform="translate(-21 -22)"/>
      <path class="cls-2" d="M747.3,213.91l-.27-.26a1.23,1.23,0,0,1,.12-1.87h0a1.64,1.64,0,0,1,2.12.11h0a1.21,1.21,0,0,1-.12,1.86l-.3.24A1.2,1.2,0,0,1,747.3,213.91Z" transform="translate(-21 -22)"/>
      <path class="cls-2" d="M743,211.84h0a.82.82,0,0,0-1.25-.26l-.63.49a.83.83,0,0,0-.2,1l.14.25a.82.82,0,0,0,1.25.26l.4-.31A1.19,1.19,0,0,0,743,211.84Z" transform="translate(-21 -22)"/>
      <path class="cls-2" d="M745.5,211.73h0a1.32,1.32,0,0,0,.35-1.68l-.5-.6c-.24-.29-.75-.22-1.13.15l-.28.28a1.31,1.31,0,0,0-.35,1.67l.32.39C744.25,212.34,745,212.25,745.5,211.73Z" transform="translate(-21 -22)"/>
      <path class="cls-2" d="M742.78,210.05l.25-.23a1.49,1.49,0,0,0,.21-1.86h0a1,1,0,0,0-1.6-.16h0a1.47,1.47,0,0,0-.21,1.86l.19.27A.74.74,0,0,0,742.78,210.05Z" transform="translate(-21 -22)"/>
      <path class="cls-2" d="M739.44,211.83h0a1,1,0,0,0,1.1-.82l.18-.83a.73.73,0,0,0-.47-.88l-.25-.06a1,1,0,0,0-1.1.81l-.12.54A1,1,0,0,0,739.44,211.83Z" transform="translate(-21 -22)"/>
      <path class="cls-2" d="M748,210.67h0a1,1,0,0,1-1-1l0-.85a.74.74,0,0,1,.66-.79l.28,0a1,1,0,0,1,1,1l0,.55A1,1,0,0,1,748,210.67Z" transform="translate(-21 -22)"/>
      <path class="cls-2" d="M749.32,200.05h0a1,1,0,0,1-.12,1.48l-.73.56a.92.92,0,0,1-1.19-.07l-.23-.23a1,1,0,0,1,.12-1.48l.48-.36A1.3,1.3,0,0,1,749.32,200.05Z" transform="translate(-21 -22)"/>
      <path class="cls-2" d="M752.93,197.34l.3.25a1.22,1.22,0,0,1,0,1.87h0a1.64,1.64,0,0,1-2.12,0h0a1.21,1.21,0,0,1,0-1.87l.28-.26A1.19,1.19,0,0,1,752.93,197.34Z" transform="translate(-21 -22)"/>
      <path class="cls-2" d="M750.47,203.51h0a.81.81,0,0,0,1.26.17l.58-.53a.83.83,0,0,0,.1-1.05l-.16-.24a.81.81,0,0,0-1.26-.17l-.38.34A1.18,1.18,0,0,0,750.47,203.51Z" transform="translate(-21 -22)"/>
      <path class="cls-2" d="M747.93,203.8h0a1.32,1.32,0,0,0-.2,1.7l.56.56c.27.27.76.16,1.11-.23l.25-.3a1.29,1.29,0,0,0,.2-1.69l-.36-.36C749.12,203.1,748.42,203.24,747.93,203.8Z" transform="translate(-21 -22)"/>
      <path class="cls-2" d="M750.79,205.28l-.22.25a1.48,1.48,0,0,0,0,1.87h0a1,1,0,0,0,1.61,0h0a1.48,1.48,0,0,0,0-1.87l-.21-.26A.76.76,0,0,0,750.79,205.28Z" transform="translate(-21 -22)"/>
      <path class="cls-2" d="M754,203.27h0a.94.94,0,0,0-1,.89l-.1.85a.74.74,0,0,0,.55.84l.25,0a.93.93,0,0,0,1-.89l.07-.55A1,1,0,0,0,754,203.27Z" transform="translate(-21 -22)"/>
      <path class="cls-2" d="M745.57,205h0a1,1,0,0,1,1.1.89l.11.85a.73.73,0,0,1-.59.84l-.27,0a1,1,0,0,1-1.1-.89l-.07-.55A1,1,0,0,1,745.57,205Z" transform="translate(-21 -22)"/>
      <path class="cls-2" d="M728.32,208.87h0a1,1,0,0,1-.12,1.48l-.73.56a.92.92,0,0,1-1.19-.07l-.23-.23a1,1,0,0,1,.12-1.48l.48-.36A1.3,1.3,0,0,1,728.32,208.87Z" transform="translate(-21 -22)"/>
      <path class="cls-2" d="M724.93,210.57l.3.25a1.22,1.22,0,0,1,0,1.87h0a1.64,1.64,0,0,1-2.12,0h0a1.21,1.21,0,0,1,0-1.87l.28-.26A1.19,1.19,0,0,1,724.93,210.57Z" transform="translate(-21 -22)"/>
      <path class="cls-2" d="M734.47,209.68h0a.81.81,0,0,0,1.26.17l.58-.53a.83.83,0,0,0,.1-1l-.16-.23a.81.81,0,0,0-1.26-.17l-.38.34A1.16,1.16,0,0,0,734.47,209.68Z" transform="translate(-21 -22)"/>
      <path class="cls-2" d="M735.93,210.86h0a1.32,1.32,0,0,0-.2,1.7l.56.55c.27.27.76.17,1.11-.23l.25-.29a1.3,1.3,0,0,0,.2-1.7l-.36-.36C737.12,210.15,736.42,210.3,735.93,210.86Z" transform="translate(-21 -22)"/>
      <path class="cls-2" d="M747.79,196.46l-.22.25a1.48,1.48,0,0,0,0,1.87h0a1,1,0,0,0,1.61,0h0a1.48,1.48,0,0,0,0-1.87l-.21-.26A.76.76,0,0,0,747.79,196.46Z" transform="translate(-21 -22)"/>
      <path class="cls-2" d="M752.61,200.21h0c-.34.32-.2.87.31,1.23l.76.53a.9.9,0,0,0,1.09.05l.18-.17c.34-.33.21-.88-.3-1.24l-.49-.34A1.29,1.29,0,0,0,752.61,200.21Z" transform="translate(-21 -22)"/>
      <path class="cls-2" d="M750.57,194.45h0a1,1,0,0,1,1.1.89l.11.85a.74.74,0,0,1-.59.84l-.27,0a1,1,0,0,1-1.1-.89l-.07-.55A1,1,0,0,1,750.57,194.45Z" transform="translate(-21 -22)"/>
    </g>
  </g>
  <g id="thymus">
    <g id="thymus-2" data-name="thymus">
      <path class="cls-3" d="M739.16,237.15l.08,0a4.25,4.25,0,0,1,5,4.21c.37,9.32,1,18,2.59,24.37a6.9,6.9,0,0,1-2.82,7.5,24.26,24.26,0,0,1-15.22,3.71,3.46,3.46,0,0,1-3-4.09c1.53-8.77,2-21.69,2.27-35.2a1,1,0,0,1,.5-.88l.13-.07a3.3,3.3,0,0,1,4.42,1.93,7.79,7.79,0,0,1,.07,3.12c0,1.08,0,2.16,0,3.24.11,2.48.38,5,.69,7.42.13,1,.27,2,.41,3,.07.5.15,1,.22,1.51,0,.27,0,1.09.34,1.2s.55-.87.62-1.13c.14-.53.27-1.06.4-1.6.26-1.12.49-2.26.67-3.4a44.77,44.77,0,0,0,.59-7.49c0-1.24-.09-2.49-.22-3.72a3.56,3.56,0,0,1,.58-2.46A3,3,0,0,1,739.16,237.15Z" transform="translate(-21 -22)"/>
      <path class="cls-2" d="M709.08,216.07h.84a1.08,1.08,0,0,1,1.08,1.08v.78a.79.79,0,0,1-.79.79h-1.14a1.08,1.08,0,0,1-1.08-1.08v-.49a1.08,1.08,0,0,1,1.08-1.08Z"/>
      <rect class="cls-2" x="719" y="217.31" width="3" height="2.65" rx="1.08"/>
      <path class="cls-2" d="M730.08,241.6h.84a1.08,1.08,0,0,1,1.08,1.08v.78a.79.79,0,0,1-.79.79h-1.14a1.08,1.08,0,0,1-1.08-1.08v-.49A1.08,1.08,0,0,1,730.08,241.6Z" transform="translate(163.3 -321.58) rotate(26.41)"/>
      <path class="cls-2" d="M743.36,248.51h0a1.29,1.29,0,0,1-1.66.17l-.76-.53a.69.69,0,0,1-.14-1.05l.21-.24a1.3,1.3,0,0,1,1.67-.17l.49.34A1,1,0,0,1,743.36,248.51Z" transform="translate(-21 -22)"/>
      <path class="cls-2" d="M731.32,245.58h0a1,1,0,0,1-.12,1.48l-.73.56a.92.92,0,0,1-1.19-.08l-.23-.22a1,1,0,0,1,.12-1.48l.48-.36A1.29,1.29,0,0,1,731.32,245.58Z" transform="translate(-21 -22)"/>
      <path class="cls-2" d="M742.93,250.28l.3.25a1.22,1.22,0,0,1,0,1.87h0a1.64,1.64,0,0,1-2.12,0h0a1.21,1.21,0,0,1,0-1.87l.28-.26A1.19,1.19,0,0,1,742.93,250.28Z" transform="translate(-21 -22)"/>
      <path class="cls-2" d="M738.85,249.7h0a1.16,1.16,0,0,1,1.34.89l0,.3a.78.78,0,0,1-.72.84l-.34,0a1.17,1.17,0,0,1-1.34-.89h0A1.08,1.08,0,0,1,738.85,249.7Z" transform="translate(-21 -22)"/>
      <path class="cls-2" d="M731.47,261h0a.81.81,0,0,0,1.26.17l.58-.53a.82.82,0,0,0,.1-1l-.16-.24a.81.81,0,0,0-1.26-.17l-.38.34A1.16,1.16,0,0,0,731.47,261Z" transform="translate(-21 -22)"/>
      <path class="cls-2" d="M728.93,250.33h0a1.32,1.32,0,0,0-.2,1.7l.56.56c.27.27.76.16,1.11-.23l.25-.3a1.29,1.29,0,0,0,.2-1.69l-.36-.37C730.12,249.63,729.42,249.77,728.93,250.33Z" transform="translate(-21 -22)"/>
      <path class="cls-2" d="M731.79,262.81l-.22.24a1.48,1.48,0,0,0,0,1.87h0a1,1,0,0,0,1.61.05h0a1.48,1.48,0,0,0,0-1.87l-.21-.26A.75.75,0,0,0,731.79,262.81Z" transform="translate(-21 -22)"/>
      <path class="cls-2" d="M735,260.8h0a.93.93,0,0,0-1,.89l-.1.84a.73.73,0,0,0,.55.84l.25.05a.94.94,0,0,0,1-.9l.07-.54A1,1,0,0,0,735,260.8Z" transform="translate(-21 -22)"/>
      <path class="cls-2" d="M740.34,245h0a.92.92,0,0,1-1.36.17l-.62-.53a.8.8,0,0,1-.12-1.05l.18-.23a.92.92,0,0,1,1.36-.18l.4.35A1.09,1.09,0,0,1,740.34,245Z" transform="translate(-21 -22)"/>
      <path class="cls-2" d="M739.76,246.82h0a1.11,1.11,0,0,1-.1,1.48l-.59.56a.67.67,0,0,1-1-.08l-.18-.23a1.12,1.12,0,0,1,.09-1.48l.39-.36A.92.92,0,0,1,739.76,246.82Z" transform="translate(-21 -22)"/>
      <path class="cls-2" d="M743,243.22l.24.25a1.39,1.39,0,0,1,0,1.87h0a1.16,1.16,0,0,1-1.73,0h0a1.4,1.4,0,0,1,0-1.87l.23-.26A.86.86,0,0,1,743,243.22Z" transform="translate(-21 -22)"/>
      <path class="cls-2" d="M742.57,253.56h0a1,1,0,0,1,1.1.89l.11.85a.74.74,0,0,1-.59.84l-.27,0a1,1,0,0,1-1.1-.89l-.07-.55A1,1,0,0,1,742.57,253.56Z" transform="translate(-21 -22)"/>
      <path class="cls-2" d="M741.32,253h0a1,1,0,0,1-.12,1.48l-.73.56a.92.92,0,0,1-1.19-.08l-.23-.23a1,1,0,0,1,.12-1.47l.48-.36A1.29,1.29,0,0,1,741.32,253Z" transform="translate(-21 -22)"/>
      <path class="cls-2" d="M728.93,272.69l.3.25a1.22,1.22,0,0,1,0,1.87h0a1.64,1.64,0,0,1-2.12,0h0a1.21,1.21,0,0,1,0-1.87l.28-.26A1.19,1.19,0,0,1,728.93,272.69Z" transform="translate(-21 -22)"/>
      <path class="cls-2" d="M742.72,259.37h0c.6,0,1-.41.8-.89l-.24-.7a1,1,0,0,0-1-.6H742c-.6,0-1,.41-.8.88l.16.46A1.45,1.45,0,0,0,742.72,259.37Z" transform="translate(-21 -22)"/>
      <path class="cls-2" d="M731.79,267.1l-.22.25a1.48,1.48,0,0,0,0,1.87h0a1,1,0,0,0,1.61,0h0a1.48,1.48,0,0,0,0-1.87l-.21-.26A.76.76,0,0,0,731.79,267.1Z" transform="translate(-21 -22)"/>
      <path class="cls-2" d="M735,266.09h0a.94.94,0,0,0-1,.89l-.1.85a.74.74,0,0,0,.55.84l.25,0a.93.93,0,0,0,1-.89l.07-.55A1,1,0,0,0,735,266.09Z" transform="translate(-21 -22)"/>
      <path class="cls-2" d="M736.59,258.09h0a1.12,1.12,0,0,1,1.49,0l.75.53a.68.68,0,0,1,.24,1l-.17.2a1.13,1.13,0,0,1-1.49,0l-.48-.35A1,1,0,0,1,736.59,258.09Z" transform="translate(-21 -22)"/>
      <path class="cls-2" d="M729.77,276.36h0a1,1,0,0,1,.25-1.46l.78-.51a.92.92,0,0,1,1.18.16l.21.25a1,1,0,0,1-.26,1.46l-.5.33A1.29,1.29,0,0,1,729.77,276.36Z" transform="translate(-21 -22)"/>
      <path class="cls-2" d="M730.3,272.91l-.27-.26a1.23,1.23,0,0,1,.12-1.87h0a1.64,1.64,0,0,1,2.12.11h0a1.21,1.21,0,0,1-.12,1.86l-.3.24A1.2,1.2,0,0,1,730.3,272.91Z" transform="translate(-21 -22)"/>
      <path class="cls-2" d="M731,257.84h0a.82.82,0,0,0-1.25-.26l-.63.49a.83.83,0,0,0-.2,1l.14.25a.82.82,0,0,0,1.25.26l.4-.31A1.19,1.19,0,0,0,731,257.84Z" transform="translate(-21 -22)"/>
      <path class="cls-2" d="M735.5,275.73h0a1.32,1.32,0,0,0,.35-1.68l-.5-.6c-.24-.29-.75-.22-1.13.15l-.28.28a1.31,1.31,0,0,0-.35,1.67l.32.39C734.25,276.34,735,276.25,735.5,275.73Z" transform="translate(-21 -22)"/>
      <path class="cls-2" d="M729.78,256.05l.25-.23a1.49,1.49,0,0,0,.21-1.86h0a1,1,0,0,0-1.6-.16h0a1.47,1.47,0,0,0-.21,1.86l.19.27A.74.74,0,0,0,729.78,256.05Z" transform="translate(-21 -22)"/>
      <path class="cls-2" d="M729.44,262.83h0a1,1,0,0,0,1.1-.82l.18-.83a.73.73,0,0,0-.47-.88l-.25-.06a1,1,0,0,0-1.1.81l-.12.54A1,1,0,0,0,729.44,262.83Z" transform="translate(-21 -22)"/>
      <path class="cls-2" d="M738,275.67h0a1,1,0,0,1-1-1l0-.85a.74.74,0,0,1,.66-.79l.28,0a1,1,0,0,1,1,1l0,.55A1,1,0,0,1,738,275.67Z" transform="translate(-21 -22)"/>
      <path class="cls-2" d="M739.32,265.05h0a1,1,0,0,1-.12,1.48l-.73.56a.92.92,0,0,1-1.19-.07l-.23-.23a1,1,0,0,1,.12-1.48l.48-.36A1.3,1.3,0,0,1,739.32,265.05Z" transform="translate(-21 -22)"/>
      <path class="cls-2" d="M742.93,262.34l.3.25a1.22,1.22,0,0,1,0,1.87h0a1.64,1.64,0,0,1-2.12,0h0a1.21,1.21,0,0,1,0-1.87l.28-.26A1.19,1.19,0,0,1,742.93,262.34Z" transform="translate(-21 -22)"/>
      <path class="cls-2" d="M740.47,268.51h0a.81.81,0,0,0,1.26.17l.58-.53a.83.83,0,0,0,.1-1l-.16-.24a.81.81,0,0,0-1.26-.17l-.38.34A1.18,1.18,0,0,0,740.47,268.51Z" transform="translate(-21 -22)"/>
      <path class="cls-2" d="M737.93,268.8h0a1.32,1.32,0,0,0-.2,1.7l.56.56c.27.27.76.16,1.11-.23l.25-.3a1.29,1.29,0,0,0,.2-1.69l-.36-.36C739.12,268.1,738.42,268.24,737.93,268.8Z" transform="translate(-21 -22)"/>
      <path class="cls-2" d="M740.79,270.28l-.22.25a1.48,1.48,0,0,0,0,1.87h0a1,1,0,0,0,1.61,0h0a1.48,1.48,0,0,0,0-1.87l-.21-.26A.76.76,0,0,0,740.79,270.28Z" transform="translate(-21 -22)"/>
      <path class="cls-2" d="M744,268.27h0a.94.94,0,0,0-1,.89l-.1.85a.74.74,0,0,0,.55.84l.25,0a.93.93,0,0,0,1-.89l.07-.55A1,1,0,0,0,744,268.27Z" transform="translate(-21 -22)"/>
      <path class="cls-2" d="M735.57,270h0a1,1,0,0,1,1.1.89l.11.85a.73.73,0,0,1-.59.84l-.27,0a1,1,0,0,1-1.1-.89l-.07-.55A1,1,0,0,1,735.57,270Z" transform="translate(-21 -22)"/>
      <path class="cls-2" d="M733.32,262.87h0a1,1,0,0,1-.12,1.48l-.73.56a.92.92,0,0,1-1.19-.07l-.23-.23a1,1,0,0,1,.12-1.48l.48-.36A1.3,1.3,0,0,1,733.32,262.87Z" transform="translate(-21 -22)"/>
      <path class="cls-2" d="M744.93,259.57l.3.25a1.22,1.22,0,0,1,0,1.87h0a1.64,1.64,0,0,1-2.12,0h0a1.21,1.21,0,0,1,0-1.87l.28-.26A1.19,1.19,0,0,1,744.93,259.57Z" transform="translate(-21 -22)"/>
      <path class="cls-2" d="M728.47,268.68h0a.81.81,0,0,0,1.26.17l.58-.53a.83.83,0,0,0,.1-1.05l-.16-.23a.81.81,0,0,0-1.26-.17l-.38.34A1.16,1.16,0,0,0,728.47,268.68Z" transform="translate(-21 -22)"/>
      <path class="cls-2" d="M727.93,263.86h0a1.32,1.32,0,0,0-.2,1.7l.56.55c.27.27.76.17,1.11-.23l.25-.29a1.3,1.3,0,0,0,.2-1.7l-.36-.36C729.12,263.15,728.42,263.3,727.93,263.86Z" transform="translate(-21 -22)"/>
      <path class="cls-2" d="M737.79,261.46l-.22.25a1.48,1.48,0,0,0,0,1.87h0a1,1,0,0,0,1.61,0h0a1.48,1.48,0,0,0,0-1.87l-.21-.26A.76.76,0,0,0,737.79,261.46Z" transform="translate(-21 -22)"/>
      <path class="cls-2" d="M742.61,265.21h0c-.34.32-.2.87.31,1.23l.76.53a.9.9,0,0,0,1.09,0l.18-.17c.34-.33.21-.88-.3-1.24l-.49-.34A1.29,1.29,0,0,0,742.61,265.21Z" transform="translate(-21 -22)"/>
      <path class="cls-2" d="M740.57,259.45h0a1,1,0,0,1,1.1.89l.11.85a.74.74,0,0,1-.59.84l-.27,0a1,1,0,0,1-1.1-.89l-.07-.55A1,1,0,0,1,740.57,259.45Z" transform="translate(-21 -22)"/>
      <path class="cls-2" d="M740,256.94h0a1,1,0,0,0-.73-1.16l-.82-.24a.73.73,0,0,0-.91.4l-.08.25a1,1,0,0,0,.73,1.16l.53.15A1,1,0,0,0,740,256.94Z" transform="translate(-21 -22)"/>
      <path class="cls-2" d="M732.21,253.85h0c.31.08.62-.18.7-.58l.11-.6a.53.53,0,0,0-.3-.63l-.16,0a.62.62,0,0,0-.7.58l-.07.39A.75.75,0,0,0,732.21,253.85Z" transform="translate(-21 -22)"/>
      <path class="cls-2" d="M732.13,254.6h.73a1.13,1.13,0,0,1,1.13,1.13v.67a.84.84,0,0,1-.84.84h-1a1.13,1.13,0,0,1-1.13-1.13v-.38A1.13,1.13,0,0,1,732.13,254.6Z" transform="translate(1006.89 -483.57) rotate(93.12)"/>
      <path class="cls-2" d="M731.82,249.77h0a.6.6,0,0,0,.2-.88l-.28-.54a.53.53,0,0,0-.63-.32l-.15.06a.62.62,0,0,0-.2.89l.18.35A.75.75,0,0,0,731.82,249.77Z" transform="translate(-21 -22)"/>
    </g>
  </g>
  <g id="tongue">
    <path id="tongue-2" data-name="tongue" class="cls-3" d="M692.65,138.49l-18.79-2.8a8.5,8.5,0,0,0-2.51,16.82l18.79,2.8a8.51,8.51,0,0,0,9.42-6.06,8,8,0,0,0,.24-1.1h0A8.49,8.49,0,0,0,692.65,138.49Z" transform="translate(-21 -22)"/>
  </g>
  <g id="nose">
    <path id="nose-2" data-name="nose" class="cls-3" d="M667.5,99.5c-8.47,2.65-14,8.47-17.77,16.23a2.09,2.09,0,0,0,1.78,3c4.41.22,8.48.06,11.77-1q1.31-.42,2.64-.75l3.93-17.79C669.07,99.28,668.29,99.37,667.5,99.5Z" transform="translate(-21 -22)"/>
  </g>
  <g id="spine">
    <g>
      <path class="cls-13" d="M770,181.84a18.38,18.38,0,0,1-2.69-.52,19.2,19.2,0,0,1-2.37-1.25c-2.3-1.21-3.05-.92-3.71,1.52a2,2,0,0,1-2.16,1.64,9.68,9.68,0,0,0-2.34.54c-.59.16-1.15.42-1.73.58-2.21.57-4.45,1-6.63,1.72-1.36.42-2,0-2.3-1.28a32.57,32.57,0,0,0-.91-3.21,2,2,0,0,1,1.44-2.85c1.23-.34,2.52-.48,3.77-.74a9.85,9.85,0,0,0,2.57-.7c1.52-.81,2.75-.9,3.7,1a7.6,7.6,0,0,0,.32-.72c.94-3.23,3.34-3.81,5.9-1.64a25.72,25.72,0,0,0,4.5,2.71C768.58,179.27,769.85,179.83,770,181.84Z" transform="translate(-21 -22)"/>
      <path class="cls-13" d="M763.85,172.34c-2.43-.8-4.72-1.5-7-2.3-1.69-.61-3.2-.85-4.53.79-.37.46-1.18.57-1.79.82-1.37.57-2.8,1-4.11,1.73-1.61.85-2.45.56-3-1.21a14.11,14.11,0,0,0-.65-2.06c-.77-1.64-.62-2.53,1.11-3.16s3.78-.87,5.66-1.35a8.47,8.47,0,0,0,2.67-1c1.63-1.12,2.71-.92,3.27,1a4.09,4.09,0,0,0,3,2.89c1.91.63,3.84,1.2,5.71,1.91a1.64,1.64,0,0,1,.73,1.25C764.94,171.85,764.22,172.11,763.85,172.34Z" transform="translate(-21 -22)"/>
      <path class="cls-13" d="M750.63,155.31A11.74,11.74,0,0,1,751,153c.17-.46.64-1.08,1-1.12a3,3,0,0,1,1.57.67,1.16,1.16,0,0,1,.39.72,6,6,0,0,0,4.91,5.06,1.15,1.15,0,0,1,.59.3c.44.58.82,1.2,1.23,1.8a5.59,5.59,0,0,1-2-.08c-1.49-.62-2.88-1.46-4.35-2.12s-2.64-.66-3.71.77a4.06,4.06,0,0,1-2,1.13c-2,.66-4.06,1.18-6.07,1.81-1.6.5-2.2.18-2.39-1.47-.16-1.26-.73-2.85-.19-3.7s2.29-.57,3.44-1a9.6,9.6,0,0,0,2.85-1.63c1.8-1.57,2.08-1.61,3.52.26C750,154.65,750.23,154.87,750.63,155.31Z" transform="translate(-21 -22)"/>
      <path class="cls-13" d="M746.85,143.82c1.21-2,2.46-2.26,3.69-.46a9.26,9.26,0,0,0,4.58,3.45,8.78,8.78,0,0,1,2.11,1.32,1.06,1.06,0,0,1,.25,1,1,1,0,0,1-1,.34,9,9,0,0,1-1.79-.87c-2.31-1.36-4.62-2-7-.11a2.07,2.07,0,0,1-1.25.4,8.61,8.61,0,0,0-4.87,1.46c-1.66,1-2.76.4-3.1-1.51,0-.16,0-.33-.06-.5-.35-3.69-.35-3.68,3.29-4.22a5.79,5.79,0,0,0,1.43-.45C745,142.86,745,142.85,746.85,143.82Z" transform="translate(-21 -22)"/>
      <path class="cls-13" d="M749,134.45c2.46.33,7.72,5.33,7.87,7.84L754.73,141c-1.7-1-3.39-2.08-5.1-3.09a1.53,1.53,0,0,0-.81-.18c-2.52.22-5.05.31-7.54.73s-3.15-.23-2.68-2.6c.12-.6.28-1.2.37-1.8.3-2.09.92-2.57,3-2.15,1.71.34,3.29.92,5.18.2C748.68,131.53,748.89,133.13,749,134.45Z" transform="translate(-21 -22)"/>
      <path class="cls-13" d="M757.42,133.15a16.57,16.57,0,0,1-1.93-1.22,22.28,22.28,0,0,0-2.49-2.2,6.15,6.15,0,0,0-2.5-.43c-1.23-.11-2.46-.12-3.69-.19a28,28,0,0,0-4.07-.26c-1.57.14-2.39-.58-1.92-2.11a8.21,8.21,0,0,1,1.23-2.9,3.56,3.56,0,0,1,2.38-1.07,24.69,24.69,0,0,1,4,.47,3.16,3.16,0,0,1,2.76,2.07,4.29,4.29,0,0,0,1.87,1.75,9.21,9.21,0,0,1,4.37,4.21,9.4,9.4,0,0,1,.42,1.49Z" transform="translate(-21 -22)"/>
      <path class="cls-13" d="M748.8,190.45c-.95-1.94-.4-2.71,1-3,2.08-.49,4.16-1,6.39-1.56l.46,2.7Z" transform="translate(-21 -22)"/>
      <path class="cls-13" d="M753.06,172.58l.67,2.23c-2.21,1.65-4.9,1.33-7.35,1.92-.11,0-.38-.55-.8-1.18Z" transform="translate(-21 -22)"/>
      <path class="cls-13" d="M749.89,161.51l.59,2-7.32,1.43c-.49-.59-.5-1.16.57-1.5C745.73,162.81,747.72,162.18,749.89,161.51Z" transform="translate(-21 -22)"/>
      <path class="cls-13" d="M740.55,152.57l6.54-2.19.28.65c-1.81,1-2.88,3.06-5.29,3.15C740.74,154.24,740.74,154.29,740.55,152.57Z" transform="translate(-21 -22)"/>
      <path class="cls-13" d="M746.6,140.51c-.3.28-.56.69-.91.8-1,.3-2,.48-3,.69s-1.78.33-2.68.49c-.27-1.82,1-2.72,3.19-2.54.55,0,1.1.17,1.65.21s1,0,1.48,0Z" transform="translate(-21 -22)"/>
      <path class="cls-13" d="M746.39,131.16l-3.38-.62.08-.61,3.44.4Z" transform="translate(-21 -22)"/>
    </g>
  </g>
  <g id="heart">
    <g id="heart-2" data-name="heart">
      <path class="cls-2" d="M721,272.56v52.87a4.14,4.14,0,0,0,3.08,4,7.27,7.27,0,0,0,3.59,0,4.14,4.14,0,0,0,3.09-4V272.56a3.59,3.59,0,0,0-2.16-3.27,6.64,6.64,0,0,0-5.45,0A3.58,3.58,0,0,0,721,272.56Z" transform="translate(-21 -22)"/>
      <path class="cls-13" d="M768,313.08c-3.16-11.77-6.54-19.63-21.81-21.24-1.11-.27-2.19-.51-3.24-.73-1.53,3.9-8,18.48-22.71,27.77a37.62,37.62,0,0,0,4.13,9.7c4.86,7.16,15.2,11.06,33.3,10.33C771.18,339.2,773.92,333.56,768,313.08Z" transform="translate(-21 -22)"/>
      <path class="cls-13" d="M755.13,280.76l3.14-3.13a1.66,1.66,0,0,0,.48-1.62,2.15,2.15,0,0,0-1.45-1.45,1.66,1.66,0,0,0-1.61.47l-3.53,3.52q-1.15-.72-2.55-1.41l1.39-4.37a1.66,1.66,0,0,0-.33-1.65,2.1,2.1,0,0,0-1.94-.62,1.64,1.64,0,0,0-1.22,1.16l-1.29,4.06a10.22,10.22,0,0,0-2.88-.39v-3.68a1.63,1.63,0,0,0-.81-1.47,2.08,2.08,0,0,0-2,0,1.63,1.63,0,0,0-.81,1.47v4.42a15.06,15.06,0,0,0-4.91,3.45A21,21,0,0,0,729,291.88l-1.48,12.88,21.24,4.59,8.9-11.2C759.35,289.85,759.51,284.85,755.13,280.76Z" transform="translate(-21 -22)"/>
      <path class="cls-3" d="M743,291.11c-16.66-3.37-27.2.64-24.32,20.82.45,2.37,1,4.7,1.61,6.95C735,309.59,741.44,295,743,291.11Z" transform="translate(-21 -22)"/>
      <path class="cls-2" d="M766.78,286.28H743a2.1,2.1,0,0,0-1.82,1.94,6.54,6.54,0,0,0,0,2.25,2.1,2.1,0,0,0,1.82,1.94h23.82a1.68,1.68,0,0,0,1.47-1.35,5.73,5.73,0,0,0,0-3.43A1.68,1.68,0,0,0,766.78,286.28Z" transform="translate(-21 -22)"/>
      <g>
        <path class="cls-2" d="M757.3,324.08l-.09,0a8,8,0,0,0,6.16-2.63,4.81,4.81,0,0,0,.52-.73c.49-1-1-1.86-1.49-.87l-.06.11-.16.23-.1.13a2.39,2.39,0,0,1-.22.23l-.24.24-.25.21a8.19,8.19,0,0,1-.71.46,4.84,4.84,0,0,1-.91.42,8.69,8.69,0,0,1-2.67.49,16.08,16.08,0,0,1-4.47-.57,25.5,25.5,0,0,1-3.07-2.61c-.59-.58-1.17-1.18-1.74-1.79a.43.43,0,0,0-.09-.1c-1.1-1.19-2.13-2.45-3.13-3.72a11.56,11.56,0,0,0,7,.2,9.7,9.7,0,0,0,4.83-3.53,6.57,6.57,0,0,0,.63-1c.47-1-1-1.87-1.49-.87a6.41,6.41,0,0,1-1.66,2.14,7.94,7.94,0,0,1-5.69,2,14.27,14.27,0,0,1-5.56-1.54c-.85-1.16-1.68-2.35-2.48-3.55a.59.59,0,0,0-.17-.25c-.55-.83-1.09-1.67-1.61-2.52s-2.07-.08-1.49.87,1.09,1.75,1.66,2.61a9.48,9.48,0,0,1-.94,5.72,9.13,9.13,0,0,1-.53.84l-.11.15-.06.07a3.33,3.33,0,0,1-.25.28,3.7,3.7,0,0,1-.49.48.87.87,0,0,0,0,1.22.88.88,0,0,0,1.21,0,7.37,7.37,0,0,0,1.8-2.31,10.42,10.42,0,0,0,1.11-3.87,79.05,79.05,0,0,0,6.09,7.64,8.35,8.35,0,0,1-.74,6.61,10.15,10.15,0,0,1-3.25,3.27,8.71,8.71,0,0,1-.88.51c-1,.47-.13,2,.87,1.49a11.2,11.2,0,0,0,4.27-3.66,5.41,5.41,0,0,0,1.22,1.51,11.29,11.29,0,0,0,3.41,2c.25.09.51.19.77.26a.87.87,0,0,0,1.06-.6.88.88,0,0,0-.61-1.06l-.54-.18-.26-.1-.16-.06,0,0h0c-.23-.11-.48-.21-.71-.33s-.52-.27-.77-.42l-.39-.25-.17-.12-.11-.07s-.17-.13-.05-.05l-.12-.09-.16-.14-.36-.34a3,3,0,0,1-.23-.25l0-.06-.07-.1a1.64,1.64,0,0,1-.14-.22,2.53,2.53,0,0,1-.13-.22.36.36,0,0,0,0-.09.15.15,0,0,0,0-.06,2.38,2.38,0,0,1-.11-.42s0-.06,0-.1l0-.07v-.17c0-.11,0-.21,0-.31s0-.07,0-.11v0h0a8.67,8.67,0,0,0,.45-1.56,10,10,0,0,0,.14-2.18,20.13,20.13,0,0,0,5.31,3.95c1.43.68,2.92,1.18,4.33,1.88a21.09,21.09,0,0,1,3.69,2.26c1.7,1.35,3.19,3.22,2.57,5.5a.86.86,0,0,0,1.66.46C767.43,329.21,761.3,325.84,757.3,324.08Z" transform="translate(-21 -22)"/>
        <path class="cls-2" d="M751.47,328.25c-.2-.1-.08,0,0,0Z" transform="translate(-21 -22)"/>
      </g>
      <polygon class="cls-2" points="741.57 291.71 738 278.17 723.96 281.88 741.55 291.71 741.57 291.71"/>
    </g>
  </g>
  <g id="pericardium">
    <polygon id="pericardium-2" data-name="pericardium" class="cls-3" points="727.51 295.42 741.55 291.71 723.96 281.88 723.94 281.88 727.51 295.42"/>
  </g>
  <g id="artery">
    <path id="artery-2" data-name="artery" class="cls-13" d="M745.53,275.12c-.18-1.32-.38-2.63-.61-3.94q-.67-3.93-1.62-7.8a100.31,100.31,0,0,0-5-15.23,67,67,0,0,0-8.05-14.2,43.25,43.25,0,0,0-12.4-11.32,37.19,37.19,0,0,0-16.2-5,49.63,49.63,0,0,0-16.41,1.69,81.82,81.82,0,0,0-28.55,14.19A88.48,88.48,0,0,0,645,244.24a93.07,93.07,0,0,0-9.66,12.57,101.93,101.93,0,0,0-12.7,28.79,107.54,107.54,0,0,0-3,15.42c-.64,5.09-1.2,10.19-1.74,15.29q-1.59,15.3-2.66,30.64t-1.62,30.7q-.28,7.68-.44,15.37L613,405.57l-.22-.14c-3,5-5.73,10.07-8.38,15.22S599.32,431,597,436.32s-4.4,10.69-6.23,16.18l-1.34,4.13-1.16,4.19c-.19.7-.4,1.39-.57,2.1l-.47,2.12c-.3,1.42-.67,2.82-.9,4.26l-.67,4.3c-.23,1.44-.37,2.83-.61,4.24a79.75,79.75,0,0,1-1.8,8.33,97.06,97.06,0,0,1-5.91,16c-2.4,5.2-5.19,10.21-7.94,15.26-1.36,2.53-2.73,5.07-3.86,7.71a21.41,21.41,0,0,0-2.08,8.32,21.35,21.35,0,0,1,2.31-8.22c1.2-2.59,2.63-5.08,4.06-7.57,2.89-5,5.84-9.9,8.41-15.06a99,99,0,0,0,6.46-16.07,83.77,83.77,0,0,0,2.07-8.44c.29-1.41.48-2.88.75-4.27l.78-4.19c.26-1.39.67-2.76,1-4.14l.52-2.07c.19-.68.42-1.36.62-2l1.26-4.08,1.44-4q2.94-8,6.6-15.78t7.76-15.26q2.57-4.67,5.29-9.25a198,198,0,0,1-10,55.14,204.18,204.18,0,0,1-12,28c-4.66,9.07-9.92,17.83-15.14,26.62s-10.4,17.66-14.47,27.08a90.66,90.66,0,0,0-7.64,29.6,90.52,90.52,0,0,1,8.15-29.38c4.22-9.29,9.56-18,14.92-26.72S587.37,506,592.23,497a207,207,0,0,0,12.67-28.07,203.22,203.22,0,0,0,11.44-60.45l.53-15.34q.3-7.64.73-15.29.84-15.27,2.18-30.52T623,316.89c.64-5.06,1.29-10.11,2-15.16a101.55,101.55,0,0,1,3.09-14.62C633.57,268,645,250.56,660.81,238.9a74.86,74.86,0,0,1,26.26-12.48,42.38,42.38,0,0,1,14-1.22,29.32,29.32,0,0,1,12.76,4.21,35.36,35.36,0,0,1,9.92,9.42,59.08,59.08,0,0,1,6.8,12.56,91.93,91.93,0,0,1,4.28,14q.81,3.6,1.38,7.24c.18,1.21.35,2.43.49,3.64s.27,2.47.34,3.54l9-.58C745.87,277.73,745.71,276.47,745.53,275.12Z" transform="translate(-21 -22)"/>
  </g>
  <g id="vein">
    <path id="vein-2" data-name="vein" class="cls-2" d="M730,271.54q0-1-.12-2-.15-1.93-.42-3.84a63.48,63.48,0,0,0-1.5-7.58,51.82,51.82,0,0,0-6.07-14.44,38.28,38.28,0,0,0-11.07-11.61,39,39,0,0,0-14.82-5.9,48.83,48.83,0,0,0-7.77-.78,57.33,57.33,0,0,0-7.66.29,86.32,86.32,0,0,0-14.78,2.81,134.55,134.55,0,0,0-14,4.76c-1.14.44-2.28.91-3.4,1.4s-2.25.94-3.43,1.52a47.88,47.88,0,0,0-6.71,3.84,52,52,0,0,0-6,4.83,52.84,52.84,0,0,0-5.2,5.69,50.85,50.85,0,0,0-4.21,6.37l-.14-.08a32.52,32.52,0,0,1-5,7c-.49.54-1,1.07-1.52,1.58l-1.66,1.62-1.73,1.7-1.65,1.77a79.64,79.64,0,0,0-15.5,24.4,74.29,74.29,0,0,0-3,9.2c-.45,1.56-.71,3.15-1.06,4.73s-.57,3.18-.71,4.79c-.41,3.22-.56,6.35-.69,9.53a168.88,168.88,0,0,0,.47,19c.25,3.14.59,6.3,1,9.4s.67,6.13.87,9.21a163.46,163.46,0,0,1,.14,18.52c-.32,6.16-.93,12.4-1.5,18.59-1.22,12.4-2.69,24.79-4.86,37a179.33,179.33,0,0,1-4.08,18.16,65.93,65.93,0,0,1-3.11,8.69,27.26,27.26,0,0,1-2.18,4c-.43.63-.87,1.15-1.38,1.82a18,18,0,0,0-1.41,2,46.41,46.41,0,0,0-4.22,8.5c-1.16,2.93-2.08,5.94-2.94,8.95-1.69,6-3,12.18-4,18.34a363.63,363.63,0,0,0-4.37,37.21,361.16,361.16,0,0,1,5.11-37.08c1.2-6.11,2.58-12.2,4.38-18.15a92.15,92.15,0,0,1,3.08-8.78,46.1,46.1,0,0,1,4.25-8.16,16.14,16.14,0,0,1,1.36-1.81c.44-.56,1-1.23,1.49-1.88a30.07,30.07,0,0,0,2.4-4.18,68.48,68.48,0,0,0,3.37-8.87,181.17,181.17,0,0,0,4.5-18.28c2.43-12.3,4.16-24.71,5.63-37.14l1-9.32c.33-3.11.65-6.24.86-9.39a165.84,165.84,0,0,0,.23-18.92q-.21-4.74-.69-9.45c-.34-3.1-.6-6.16-.78-9.25a162.78,162.78,0,0,1-.09-18.48,80.07,80.07,0,0,1,2.67-18,71.12,71.12,0,0,1,3-8.53,75.24,75.24,0,0,1,4.05-8.08,76.75,76.75,0,0,1,10.87-14.4l1.14-1.17a158.21,158.21,0,0,0-4.65,19A162.26,162.26,0,0,0,609.76,335h-.1q-.9,19.15-1.65,38.3-.37,9.58-.66,19.17-.14,4.8-.2,9.6c0,1.59.05,3.3-.07,4.75s-.32,3.09-.48,4.64c-1.83,12.56-4.45,25.09-7,37.59s-5.31,25-8.1,37.45q4.8-18.56,9.32-37.17c3-12.44,6-24.84,8.25-37.49l.37-2.41c.06-.4.13-.79.18-1.2l.11-1.26c.19-1.73.15-3.22.23-4.82.14-3.18.32-6.36.51-9.54.39-6.37.83-12.73,1.28-19.1q.62-8.53,1.26-17.06.9,4.19,2,8.31c.29,1.18.65,2.34,1,3.51l1,3.45.47,1.69.4,1.71.4,1.72.33,1.73a119.4,119.4,0,0,1,1.6,28.29c-1.05,19-5.25,37.85-10.72,56.2A469,469,0,0,1,589.3,517q-5.81,13.18-12.25,26.09c-4.3,8.59-8.77,17.11-13.55,25.45,5-8.25,9.57-16.68,14-25.2s8.72-17.15,12.77-25.88a470.11,470.11,0,0,0,21.29-53.69c5.86-18.36,10.48-37.26,11.94-56.66a123.14,123.14,0,0,0-1.1-29.19l-.31-1.82-.38-1.8-.39-1.81-.46-1.79-.92-3.51c-.3-1.15-.63-2.29-.9-3.44-1.16-4.61-2.09-9.27-2.85-13.95s-1.29-9.23-1.63-13.88c0-.18,0-.37,0-.56h-.09a157.5,157.5,0,0,1,2.63-42,150.59,150.59,0,0,1,8.06-27.08,43.43,43.43,0,0,1,16.67-20.55,42,42,0,0,1,5.85-3.21c1-.45,2.1-.89,3.19-1.33s2.19-.88,3.29-1.28a126.92,126.92,0,0,1,13.36-4.24,79.92,79.92,0,0,1,13.57-2.32,52.42,52.42,0,0,1,6.74-.12,41.57,41.57,0,0,1,6.55.79,30.9,30.9,0,0,1,11.7,4.9,29.78,29.78,0,0,1,8.49,9.29,43.44,43.44,0,0,1,4.81,12.16,58.46,58.46,0,0,1,1.17,6.58c.13,1.11.23,2.23.29,3.33,0,.55.06,1.11.07,1.65s0,1.14,0,1.52l9,.26C730,272.81,730,272.23,730,271.54Z" transform="translate(-21 -22)"/>
  </g>
  <g id="breast">
    <g id="breast-2" data-name="breast">
      <path class="cls-13" d="M724.12,317.19s8.77,31.14-9.7,47.84c-12.63,11.42-29.57,13.13-43.6,8.75a37,37,0,0,1-23.66-22.5c-3.16-8.52-3.54-20.58.75-34.09" transform="translate(-21 -22)"/>
      <ellipse class="cls-3" cx="667.09" cy="314.37" rx="10.16" ry="8.8"/>
      <ellipse class="cls-2" cx="666.98" cy="314.6" rx="3.35" ry="3.16"/>
      <g id="mamary_gland" data-name="mamary gland">
        <path class="cls-2" d="M678.76,312.27c-.21-2.29.22-5.32,5-1.63a6.1,6.1,0,0,1,.93,1.9,2.35,2.35,0,0,0,1.1,1.43c.72.45,1.34,1.81.27,5.7,0,0-.31,1.52-1.7,1.32a3.44,3.44,0,0,0-2.08.42c-.58.29-1.29.31-1.76-.84h0a3.5,3.5,0,0,0-.81-2.24c-.8-.95-1.85-2.45-1.43-3.39A5.51,5.51,0,0,0,678.76,312.27Z" transform="translate(-21 -22)"/>
        <path class="cls-2" d="M692,324.45a1.35,1.35,0,0,1-1.55-.27,2.19,2.19,0,0,1-.24-3.15c1.66-2-1.52-4,1.48-4.45a4.37,4.37,0,0,0,2.12-.9c.83-.65,2.17-1.15,3.33.83,1.38,2.37.95,3.73.65,4.26a9.12,9.12,0,0,0-.41.83,4,4,0,0,1-3.47,2.59A5,5,0,0,0,692,324.45Z" transform="translate(-21 -22)"/>
        <path class="cls-2" d="M706.29,329.35a2.85,2.85,0,0,1,3.16-1.33,1.13,1.13,0,0,0,1-.24,2.17,2.17,0,0,1,1.76-.66,1.07,1.07,0,0,0,1-.36c.78-.95,2.6-2.48,4.93-.08a1.09,1.09,0,0,0,.44.29c1,.32,4.58,1.78.32,5.25a1.14,1.14,0,0,1-.23.15c-.78.36-5,2.17-6.54.34a1.11,1.11,0,0,0-.79-.42c-1.08-.07-3.59-.36-5-1.61A1,1,0,0,1,706.29,329.35Z" transform="translate(-21 -22)"/>
        <path class="cls-2" d="M705.93,316.11c1.47-1.12,3.69-2.14,3.23,2.49a4.7,4.7,0,0,1-.88,1.42,1.82,1.82,0,0,0-.49,1.33c0,.65-.64,1.63-3.73,2.62,0,0-1.16.46-1.62-.53a2.65,2.65,0,0,0-1.18-1.16c-.45-.25-.76-.7-.19-1.49h0a2.77,2.77,0,0,0,1.16-1.49c.3-.92.87-2.24,1.68-2.38A4.54,4.54,0,0,0,705.93,316.11Z" transform="translate(-21 -22)"/>
        <path class="cls-2" d="M671.17,322.46c1.43.93,2.93,2.61-1.79,4a4.39,4.39,0,0,1-1.6-.27,1.88,1.88,0,0,0-1.43.06c-.65.26-1.77,0-3.41-2.46a1.26,1.26,0,0,1,.18-1.72,3.36,3.36,0,0,0,.91-1.55,1.06,1.06,0,0,1,1.45-.76h0a2.39,2.39,0,0,0,1.72.51c1-.08,2.43-.07,2.74.63A3.46,3.46,0,0,0,671.17,322.46Z" transform="translate(-21 -22)"/>
        <path class="cls-2" d="M661.28,354.14a1.05,1.05,0,0,1-.52-1.47,3.94,3.94,0,0,1,3.59-2.54c3.28-.14,3.95-4.25,6-2.07a4,4,0,0,0,2.2,1.07c1.22.2,2.53.93.82,3.35-2,2.9-3.87,3.54-4.65,3.69-.41.07-.81.17-1.21.28-1.3.33-3.83.72-4.93-.94A3.55,3.55,0,0,0,661.28,354.14Z" transform="translate(-21 -22)"/>
        <path class="cls-2" d="M718,345.33a2.89,2.89,0,0,1-3.44-.27,1.09,1.09,0,0,0-1-.25,2.24,2.24,0,0,1-1.87-.22,1,1,0,0,0-1-.14c-1.15.49-3.49,1-4.4-2.18a1,1,0,0,0-.25-.45c-.74-.74-3.2-3.67,2.23-4.8a1.23,1.23,0,0,1,.27,0c.86,0,5.44.36,5.94,2.69a1.11,1.11,0,0,0,.5.73c.93.55,3,1.95,3.61,3.68A1,1,0,0,1,718,345.33Z" transform="translate(-21 -22)"/>
        <path class="cls-2" d="M697.25,358.13c-.42-2.1-.34-4.94,4.4-2a5.49,5.49,0,0,1,1.06,1.67,2.25,2.25,0,0,0,1.16,1.21c.71.34,1.42,1.53.84,5.24,0,0-.13,1.43-1.44,1.38a3.27,3.27,0,0,0-1.88.59c-.51.33-1.16.41-1.71-.6h0a3.25,3.25,0,0,0-1-2c-.84-.8-2-2.09-1.68-3A5,5,0,0,0,697.25,358.13Z" transform="translate(-21 -22)"/>
        <path class="cls-2" d="M675.38,315.4c1.17,2,2.09,4.92-3.79,3.51a6,6,0,0,1-1.66-1.34,2.45,2.45,0,0,0-1.62-.84c-.84-.12-2-1.09-2.7-5.06,0,0-.37-1.51,1-1.9a3.36,3.36,0,0,0,1.71-1.23c.41-.51,1-.81,2,0h0a3.6,3.6,0,0,0,1.7,1.7c1.14.54,2.74,1.47,2.77,2.5A5.35,5.35,0,0,0,675.38,315.4Z" transform="translate(-21 -22)"/>
        <path class="cls-2" d="M665.45,335.49a.8.8,0,0,1-.3-1.13,2.8,2.8,0,0,1,2.78-1.62c2.42.15,3.14-2.87,4.55-1.09a3,3,0,0,0,1.55,1c.88.25,1.8.89.41,2.56-1.66,2-3,2.35-3.63,2.4-.3,0-.6.07-.9.11-1,.15-2.85.25-3.56-1.07A2.78,2.78,0,0,0,665.45,335.49Z" transform="translate(-21 -22)"/>
        <path class="cls-2" d="M689.53,347.52c.76.18,1.88.65,1.89,1.9a.76.76,0,0,0,.45.67,1.53,1.53,0,0,1,1,1.07.72.72,0,0,0,.54.6c1,.3,2.7,1.19,1.26,3.5a.82.82,0,0,0-.13.39c0,.81-.38,3.76-4.32,1.66a.66.66,0,0,1-.17-.12c-.49-.46-3-3-1.88-4.57a.82.82,0,0,0,.16-.68,5.89,5.89,0,0,1,.14-4A1,1,0,0,1,689.53,347.52Z" transform="translate(-21 -22)"/>
        <path class="cls-2" d="M706.84,349.19c1.2,1.68,2.19,4.23-3.54,3.61a5.31,5.31,0,0,1-1.65-1,2.22,2.22,0,0,0-1.59-.58c-.82,0-2-.77-2.78-4.29a1.48,1.48,0,0,1,.88-1.83,3.65,3.65,0,0,0,1.6-1.31,1.2,1.2,0,0,1,1.89-.19h0a3,3,0,0,0,1.7,1.35c1.11.36,2.69,1,2.75,1.95A4.4,4.4,0,0,0,706.84,349.19Z" transform="translate(-21 -22)"/>
        <path class="cls-2" d="M682.49,355.75c-.76,2.18-2.39,4.79-5.2-.45a6,6,0,0,1-.08-2.11,2.28,2.28,0,0,0-.42-1.74c-.47-.69-.48-2.18,2.09-5.33a1.61,1.61,0,0,1,2.1-.53,3.57,3.57,0,0,0,2.08.43c.66,0,1.31.22,1.27,1.45h0a3.41,3.41,0,0,0-.18,2.37c.34,1.19.68,3-.08,3.68A5.47,5.47,0,0,0,682.49,355.75Z" transform="translate(-21 -22)"/>
        <path class="cls-2" d="M657.33,346.4c-2.36.08-5.43-.49-1.41-4.91a6.15,6.15,0,0,1,2-.82,2.41,2.41,0,0,0,1.51-1c.5-.68,1.91-1.21,5.84,0,0,0,1.54.38,1.26,1.73a3.29,3.29,0,0,0,.32,2.06c.27.58.25,1.27-.94,1.67h0a3.7,3.7,0,0,0-2.33.67c-1,.74-2.6,1.68-3.54,1.23A5.91,5.91,0,0,0,657.33,346.4Z" transform="translate(-21 -22)"/>
        <path class="cls-2" d="M681.66,369.06a1.37,1.37,0,0,1-1.55-.26,2.2,2.2,0,0,1-.24-3.16c1.66-2-1.52-4.05,1.49-4.45a4.45,4.45,0,0,0,2.11-.89c.84-.65,2.17-1.15,3.33.83,1.39,2.37,1,3.72.65,4.25a9.12,9.12,0,0,0-.41.83,4,4,0,0,1-3.47,2.59A5,5,0,0,0,681.66,369.06Z" transform="translate(-21 -22)"/>
        <path class="cls-2" d="M663,330.54a2.87,2.87,0,0,1-3.2,1.25,1.11,1.11,0,0,0-1,.21,2.2,2.2,0,0,1-1.78.62,1,1,0,0,0-1,.33c-.81.92-2.67,2.41-4.93-.06a.92.92,0,0,0-.43-.29c-1-.35-4.53-1.91-.17-5.27a1.09,1.09,0,0,1,.23-.14c.79-.34,5.05-2,6.55-.16a1.13,1.13,0,0,0,.78.44c1.08.1,3.58.45,4.9,1.74A1,1,0,0,1,663,330.54Z" transform="translate(-21 -22)"/>
      </g>
    </g>
  </g>
  <g id="spleen">
    <path id="spleen-2" data-name="spleen" class="cls-2" d="M801.8,437.67c2-2.21,3.76-4.57,5.53-6.95,1.64-2.21,4.22-3.76,7.13,1.49,3.57,6.41,0,14.85-2.31,19.17a12.89,12.89,0,0,1-6,5.8c-2.88,1.28-6.51,1.44-8.68-4C795,447,798.65,441.19,801.8,437.67Z" transform="translate(-21 -22)"/>
  </g>
  <g id="stomach">
    <path id="stomach-2" data-name="stomach" class="cls-3" d="M723.65,460.28c11.58,13.42,26.56,7.42,30.41-8.69,2.83-11.86,8.15-23,16.39-32A233.3,233.3,0,0,1,788,402.71c9.82,4.76,16.6,12,18.6,23.09a28.6,28.6,0,0,1-2.3,17.29,179.6,179.6,0,0,0-10.18,27.73,27.09,27.09,0,0,1-10.14,14.51c-13,9.41-28,14.1-46.15,11.46a19.63,19.63,0,0,1-10.34-5,78.62,78.62,0,0,1-15.82-19.92,7.22,7.22,0,0,1-.87-2.79c-.42-4.07.29-7.28,2.37-9.42A7.19,7.19,0,0,1,723.65,460.28Z" transform="translate(-21 -22)"/>
  </g>
  <g id="smallIntestine">
    <g id="small_intestine" data-name="small intestine">
      <path class="cls-13" d="M689.17,573.35c3,9.38,9.84,16.87,19.49,23a5.52,5.52,0,0,0,4.84.51,49.3,49.3,0,0,0,12.19-6.28,5.41,5.41,0,0,1,4.77-.82,11.08,11.08,0,0,0,7.22-.29,5.51,5.51,0,0,1,5.9,1.26,39.12,39.12,0,0,0,17.32,10.22,5.49,5.49,0,0,0,5.33-1.34c3.95-3.8,7.32-7.55,7.91-11.05a5.48,5.48,0,0,1,3.19-4.09c10.9-4.83,18-14.91,24.3-26.13a5.69,5.69,0,0,0,.52-1.25c1.92-7,2.39-13.56.22-19.35a5.85,5.85,0,0,1-.39-2.07,28.68,28.68,0,0,0-3-13,5.34,5.34,0,0,1-.52-3.48c.73-3.39-.66-7.08-3.2-10.93a5.5,5.5,0,0,0-.71-.87l-4-3.95a5.49,5.49,0,0,0-4-1.61l-96.87,1.85a5.5,5.5,0,0,0-5.38,5.89L688.92,572A5.4,5.4,0,0,0,689.17,573.35Z" transform="translate(-21 -22)"/>
      <path class="cls-2" d="M796.57,520.26a13.59,13.59,0,0,1-3.72.7,7.6,7.6,0,0,0-3.22.28,3.42,3.42,0,0,0-1.85,2.32,7.34,7.34,0,0,0,.34,2.9c.6,3.56-.26,7.43-1.31,10.89a13.41,13.41,0,0,0-5.5,2.85l-.32.28a92,92,0,0,1-1.93-11.87c-.16-1.7-.29-3.44-.29-5.17l0-.23c0-.18,0-.34,0-.51a23.22,23.22,0,0,1,.37-3.83,8.44,8.44,0,0,1,1.25-3.44,7.41,7.41,0,0,1,4.52-2.34,15.35,15.35,0,0,1,9.3,1.91c1.69.93,3.21-1.66,1.51-2.59-5.78-3.18-15.91-4.14-18.81,3.29a14.54,14.54,0,0,0-.74,2.62c-3-1.93-7.86-2.18-10.84-2.17-.79,0-1.58.05-2.37.06a1.5,1.5,0,0,0,0,3c1.69,0,3.36-.09,5,0l1,.08.46.05.2,0,.2,0,.33,0,.46.08c.35.06.69.14,1,.22a15.7,15.7,0,0,1,1.77.54l.07,0,.13.07.37.18c.26.14.49.29.73.45h0a.64.64,0,0,1,.15.13,2.91,2.91,0,0,1,.31.3l.11.11h0l.23.37s0,.09.07.14.08.25.11.39l0,.1c0,1.13,0,2.26.07,3.34A87.31,87.31,0,0,0,777.23,537c.36,2,.76,4,1.24,5.92a51.31,51.31,0,0,0-4.42,5.69c-2.38,3.47-4.48,7.12-6.51,10.81a4.16,4.16,0,0,0-3.25,1.25,12.91,12.91,0,0,0-2,2.38l-.24-.19a7.47,7.47,0,0,0-3.13-1.24,18.29,18.29,0,0,0,5.3-6.87c3.23-7.39,3.57-16-1.63-22.56a52.14,52.14,0,0,0-4.45-4.47,31.49,31.49,0,0,0-4.69-3.77,45.1,45.1,0,0,0-5.71-3.21c-1.92-.93-4.16-2.28-6.36-2.18-4.46.21-6.4,4.68-6.49,8.62,0,2,.93,4.06,1.68,5.89a22.1,22.1,0,0,0,2.71,5,12.67,12.67,0,0,0,8.09,5.19c1.73.27,3.8.53,4.1,2.69a2.93,2.93,0,0,1-2,3c-1.56.72-3.76,1.19-5.15-.06a4.17,4.17,0,0,1-1.14-2.46,18.71,18.71,0,0,0-.9-2.93,21.64,21.64,0,0,0-7.07-9.32c-3.17-2.41-7.08-3.33-10.32-5.63a23,23,0,0,1-6.93-8.43,36.06,36.06,0,0,1-2.08-5.27c-.57-1.84-3.47-1.06-2.89.79,2.2,7,6.23,13.49,12.89,17,1.66.88,3.46,1.44,5.11,2.33a18.9,18.9,0,0,1,4.54,3.41,18.36,18.36,0,0,1,3.27,4.59,33.83,33.83,0,0,1,1.76,5.35c1.3,4.09,5.52,4.93,9.19,3.68,3.17-1.08,5.57-4.07,4.39-7.54a6.17,6.17,0,0,0-3.58-3.68c-1.54-.61-3.25-.46-4.81-1.12-3-1.29-4.94-4.21-6.2-7.12a27.52,27.52,0,0,1-1-2.67,7.83,7.83,0,0,1-.71-2.93c.08-1.72.59-4.2,2.26-5.07,1.82-1,3.83.35,5.48,1.13a49.47,49.47,0,0,1,5.64,3.06,28.77,28.77,0,0,1,4.61,3.61,52.52,52.52,0,0,1,4.37,4.33,15.22,15.22,0,0,1,3.39,9.48c.11,7.74-3.8,16-11.6,18.4-6.24,1.9-14.44,1.32-19.08-3.7-2.45-2.63-3.52-6.2-5.49-9.17-2.57-3.86-6-6.64-9.41-9.69a79.56,79.56,0,0,1-9.58-9.76,14.24,14.24,0,0,1-2.57-5.77,1.33,1.33,0,0,0-.11-.5,38,38,0,0,1-.62-6.46,65.18,65.18,0,0,1,.29-7.13c.18-1.93-2.82-1.91-3,0a59.69,59.69,0,0,0-.23,8.35A18.44,18.44,0,0,1,701,515.2a17.09,17.09,0,0,1-.77-3.8,6.11,6.11,0,0,0-1.17-3.79,5,5,0,0,0-6.36-1.17c-2.63,1.53-2.63,4.45-2.44,7.15a37.1,37.1,0,0,0,1.84,9.33,12,12,0,0,0,2.18,3.47,19.4,19.4,0,0,1,2,3.41,28.46,28.46,0,0,1,2.11,8.21c.35,2.66,2.79,5,4.84,6.58a10.8,10.8,0,0,0,7.5,2.37,13.73,13.73,0,0,0,7.54-3.55c.85.76,1.7,1.52,2.52,2.3a25.48,25.48,0,0,1,3.78,4.59,15.75,15.75,0,0,0-9.34,3.38c-3.22,2.78-4,7-3.79,11a11,11,0,0,0,1.84,6.34,7.43,7.43,0,0,0,1.19,1.25c-.58,1.09-1.14,2.21-1.67,3.33s-1.15,2.52-1.73,3.78l-.08.16c-.07-.21-.12-.44-.18-.65-1.2-4.47-2.26-9.18-4.76-13.14a16.73,16.73,0,0,0-5.35-5.37c-1.64-1-3.15,1.57-1.51,2.59,4.17,2.6,6,7.19,7.36,11.71.36,1.24.7,2.49,1,3.73s.49,2.74,1.53,3.6a3,3,0,0,0,3.25.32c1.28-.69,1.66-2.28,2.22-3.51.79-1.71,1.62-3.41,2.5-5.08a9.3,9.3,0,0,0,1.47.37c1.41.23,2.85.26,4.26.53a29.45,29.45,0,0,1,4.33,1.17,23.67,23.67,0,0,1,3.59,1.63,11.59,11.59,0,0,0,4.11,1.75,20.4,20.4,0,0,0,5.06-.07c.72-.09,1.46-.31,2.18-.36s.35.13.06.76a9.93,9.93,0,0,0-1.09,3.66,18.79,18.79,0,0,0,.45,3.89c.29,1.91,3.18,1.1,2.89-.79a14.72,14.72,0,0,1-.34-3.1,9,9,0,0,1,1.08-3,3.11,3.11,0,0,0-2.75-4.55c-1.24,0-2.49.47-3.75.55-1.5.11-3.27.29-4.67-.38-1.06-.5-2-1.21-3.1-1.72a30,30,0,0,0-3.68-1.47,48.73,48.73,0,0,0-8-1.49,5.15,5.15,0,0,1-4.11-3,13.86,13.86,0,0,1-.6-6.27,9.41,9.41,0,0,1,1.64-4.75c2.3-3.16,6.55-3.89,10.25-3.94.56,1,1.11,2,1.66,3.1,3.31,6.31,9.59,9.36,16.55,9.46a28.72,28.72,0,0,0,6.91-.66,1.4,1.4,0,0,0,.89,0c2.35-.58,6.17-1.52,8.21.32,1.84,1.67.86,5.16.17,7.18-.6,1.78-1.45,3.41-1.89,5.25a25.43,25.43,0,0,0-.72,5.49,17.12,17.12,0,0,0,2.14,9.23,7.35,7.35,0,0,0,8.09,3.53c1.89-.4,1.09-3.29-.79-2.89-6.49,1.39-6.84-9-6.16-13,.71-4.15,4.53-10.35,2.8-14.77l0-.07a11.79,11.79,0,0,1,1.57-2.12,6.29,6.29,0,0,1,.74-.72l.09-.08.06,0h0a1.94,1.94,0,0,0,.34.36,15.05,15.05,0,0,1,.38,3.66c0,2.2.06,4.39.19,6.59q.3,5.19,1.05,10.34c.23,1.56.48,3.12.82,4.66.41,1.89,3.31,1.09,2.89-.79s-.79-4.06-1.06-6.12a1.51,1.51,0,0,0,.68-.42,155.27,155.27,0,0,0,14.33-17.64c2.71-4,5.29-8.36,6.59-13.06.85-3.05,1.09-6.4-.35-9.32a6.78,6.78,0,0,0-2.75-3.1,31,31,0,0,0,1.4-9.87,15.24,15.24,0,0,0-.35-2.69c-.09-.41-.42-.94.07-1.17.3-.14.92,0,1.24,0a14.09,14.09,0,0,0,1.59-.06,16.72,16.72,0,0,0,3.56-.75C799.19,522.56,798.41,519.66,796.57,520.26Zm-91.09,22.27c-1.74-1.18-3.9-3.19-4.17-5.35a30.92,30.92,0,0,0-1.62-7,22.33,22.33,0,0,0-3.25-5.92,8,8,0,0,1-1.65-2.86,42.75,42.75,0,0,1-1.07-4.33,33,33,0,0,1-.46-3.71c-.06-1-.32-2.56.18-3.52a2,2,0,0,1,3.73.48c.28,1.22.21,2.54.47,3.78a20.13,20.13,0,0,0,1.17,3.7,26.64,26.64,0,0,0,4.27,6.76,15.24,15.24,0,0,0,2.46,6.07,56.54,56.54,0,0,0,4.23,4.92c2,2.07,4.11,4,6.25,5.83C712.9,543.91,709.12,545,705.48,542.53Zm85.16,2.58a13.08,13.08,0,0,1-.58,4.16,41.55,41.55,0,0,1-5.74,11.52A137.59,137.59,0,0,1,771,577.49q-.29-3.22-.4-6.44c-.09-2.26,0-4.55-.19-6.81a10.44,10.44,0,0,0-.57-2.75c3.22-5.92,6.59-12.06,11.25-17a13.85,13.85,0,0,1,5.85-4.09,1.86,1.86,0,0,1,2.25.45,5.9,5.9,0,0,1,.81,1.24A7.41,7.41,0,0,1,790.64,545.11Z" transform="translate(-21 -22)"/>
    </g>
  </g>
  <g id="liver">
    <g id="liver-2" data-name="liver">
      <path class="cls-13" d="M657.46,446.21s-8-48,24-55c29.37-6.43,36,2.31,43.07,4.56a2.78,2.78,0,0,1,2,2.62c.07,11.54-.12,22.59-2,30.61a26.72,26.72,0,0,0,.5,13.08c2.63,9.47.38,17.09-11,21.28a10.72,10.72,0,0,1-4.77.53c-10.06-.94-18.3,4.79-25.8,13.32-12.69,9.65-22.23,9-25-14Z" transform="translate(-21 -22)"/>
      <path class="cls-13" d="M736.08,441c-2.45-5-3.57-13-4-22.37-.07-1.45-.14-2.91-.3-4.35-2-18.65,11-26,34.18-25.54,15.77-.51,28.63,1.6,38.89,6a.83.83,0,0,1-.1,1.56c-10.56,3.08-17.44,9.08-20.88,17.79a36.27,36.27,0,0,1-2.9,6,63.84,63.84,0,0,1-24,22.64,26.91,26.91,0,0,1-12.64,3.38A9.14,9.14,0,0,1,736.08,441Z" transform="translate(-21 -22)"/>
    </g>
  </g>
  <g id="gallbladder">
    <path id="gallbladder-2" data-name="gallbladder" class="cls-2" d="M722.84,459.6c-.83,5.62-2.07,9.24-3.71,10.95a2.75,2.75,0,0,1-4.3-.49c-2.05-3.35-2.5-7,1.44-11.6l0,0c2.45-3.52,5.25-4.63,8.46-2.94a.76.76,0,0,0,.16.06l5.33,1.35a.44.44,0,0,0,.16,0c4,.1,3.79,2.7,3.22,5.51a.49.49,0,0,0,0,.12l-.15,3.62a.78.78,0,0,1-.41.65h0a.78.78,0,0,1-1.14-.73l.22-3.87a.75.75,0,0,0-.34-.69,1.2,1.2,0,0,1-.47-.54,1.83,1.83,0,0,0-1.51-1.07,3.83,3.83,0,0,1-2.41-1.26.8.8,0,0,0-.42-.23,4.32,4.32,0,0,0-4,.76A.7.7,0,0,0,722.84,459.6Z" transform="translate(-21 -22)"/>
  </g>
  <g id="largeIntestine">
    <g>
      <path class="cls-2" d="M819.66,533.15a6,6,0,0,1-.33-2.87,16.67,16.67,0,0,0-.83-8,6.65,6.65,0,0,1-.28-3.47,11.44,11.44,0,0,0-1.65-8,6,6,0,0,1-.77-3.3,10.81,10.81,0,0,0-4.1-9.15,4.61,4.61,0,0,1-1.1-1.32,19.27,19.27,0,0,0-8-8.25A17.77,17.77,0,0,0,805,480l.08-.64c.75-3.78.38-8.18-.91-13.09a5.27,5.27,0,0,0-.44-1.14c-2.7-5.06-5.66-5-8.88.12a5.63,5.63,0,0,1-2.27,2,10.18,10.18,0,0,0-5,6.28,5.14,5.14,0,0,1-2.58,2.9,5.44,5.44,0,0,0-2.51,2.53,5.6,5.6,0,0,1-2.3,2.6,12.52,12.52,0,0,0-4.17,3.47,5.34,5.34,0,0,1-3,2,7.48,7.48,0,0,0-3.29,1.54,6,6,0,0,1-2.8,1.33,9.84,9.84,0,0,0-3.81,1.81,4.9,4.9,0,0,1-2.74.95,19.33,19.33,0,0,0-8.26,2.34,4.94,4.94,0,0,1-2.53.58c-5.25-.19-9.53.6-12.88,2.31a5.28,5.28,0,0,1-5.07-.09,17.75,17.75,0,0,0-7-2,5.33,5.33,0,0,1-3.85-2.34,11.1,11.1,0,0,0-6-4.39,5.2,5.2,0,0,1-2.73-2,17.73,17.73,0,0,0-7.27-5.73A5.4,5.4,0,0,1,702.2,479c-2.05-3.83-6-6.74-11.3-9-8.3-3.3-15.41-1.91-21.35,4.07a5,5,0,0,0-1,1.35,22.38,22.38,0,0,0-1.72,11,5.11,5.11,0,0,1-.39,2.22,10.71,10.71,0,0,0-.14,7.17,5.37,5.37,0,0,1,0,3.15,6.65,6.65,0,0,0,0,4.23,5.64,5.64,0,0,1,.17,2.88,9.31,9.31,0,0,0,.4,5.36,5.41,5.41,0,0,1-.12,3.86,6.51,6.51,0,0,0-.29,3.08,5.14,5.14,0,0,1-.94,3.6c-1.16,1.61-1.48,3.92-1.57,6.41a5.2,5.2,0,0,1-.52,2.16c-1.91,3.82-2.14,8.56-1.56,13.74a4.7,4.7,0,0,1,0,.75c-.19,4.46,1.7,9.38,5,14.63,11.71,17.07,22.09,22.6,30.32,9.16a5,5,0,0,1,1.85-1.75A12.77,12.77,0,0,0,706,556.71c1.28-6.47-3.71-13.88-10.7-21.6a5.08,5.08,0,0,1-1.33-3.22,26.29,26.29,0,0,0-4.27-14,5.31,5.31,0,0,1-.75-4.23c0-.06,0-.13.05-.19a5.35,5.35,0,0,1,7-4.05l.13.05a4.83,4.83,0,0,1,1.68,1A19.52,19.52,0,0,0,711,515.8a5,5,0,0,1,3.27,1.24c3.2,2.78,7.82,4.29,13.75,4.62a5.87,5.87,0,0,1,1.74.4,21.44,21.44,0,0,0,14.56.19,5.39,5.39,0,0,1,3.18.06c3.3,1,6.68.36,10.13-1.75a5.26,5.26,0,0,1,2.84-.75,14.11,14.11,0,0,0,7.9-2,5.68,5.68,0,0,1,3.43-.76,10.07,10.07,0,0,0,7.77-3,5.37,5.37,0,0,1,3.16-1.35c3.88-.27,6.72-2.45,8.74-6.13a5.63,5.63,0,0,1,1-1.31l2,2a5.9,5.9,0,0,1,.71.86c2.54,3.86,3.93,7.55,3.2,10.94a5.34,5.34,0,0,0,.52,3.48,28.68,28.68,0,0,1,3,13,5.85,5.85,0,0,0,.39,2.07c2.17,5.79,1.7,12.35-.22,19.34a5.85,5.85,0,0,1-.52,1.27c-4.93,8.79-10.38,16.87-17.75,22.29a21.75,21.75,0,0,0-1.14,2.08,5.1,5.1,0,0,1-2.22,2.32,12.44,12.44,0,0,0-2.36,1.65l-.53.48v0a2.72,2.72,0,0,0-.12,3.84c4.84,5,17,5.11,24.26,4.71a3.17,3.17,0,0,0,2.8-2.2h0a5.53,5.53,0,0,1,1-1.62,22.07,22.07,0,0,0,5.58-12.71,5.69,5.69,0,0,1,1.34-3.15c2.57-3,4.25-7.44,5.1-13.31a6.86,6.86,0,0,1,.49-1.69,26,26,0,0,0,1.61-14.48,6.56,6.56,0,0,1,.34-3.13A14.49,14.49,0,0,0,819.66,533.15Z" transform="translate(-21 -22)"/>
      <path class="cls-13" d="M695,560.65a95.6,95.6,0,0,1-8.45-11.86,37,37,0,0,1-2.79-5.82,29.1,29.1,0,0,1-.88-2.93,26.84,26.84,0,0,0-.68-3.08,21,21,0,0,1-1.58-6.39,23.94,23.94,0,0,1,.71-6.85,16.45,16.45,0,0,0,.74-3.29,7.68,7.68,0,0,0-.87-3.25,10.94,10.94,0,0,1-.27-6.31c.51-2.42,1.66-4.54.7-7a9.9,9.9,0,0,1-.25-7.77c.71-1.79-2.19-2.57-2.89-.79a11.91,11.91,0,0,0-.62,6.73c.24,1.18.87,2.22,1.12,3.37s-.38,2.4-.68,3.54a17,17,0,0,0-.56,6.83,13,13,0,0,0,1,3.13c.58,1.38.12,2.4-.22,3.78-1.1,4.47-1.35,9.3.26,13.68a18.76,18.76,0,0,1,.94,3.1,26,26,0,0,0,.78,3.13,37.65,37.65,0,0,0,2.74,6.36,92.21,92.21,0,0,0,9.66,13.81c1.21,1.5,3.32-.63,2.13-2.12Z" transform="translate(-21 -22)"/>
      <path class="cls-13" d="M687.57,486.15a24.72,24.72,0,0,1,9.85,6.53c1.33,1.49,2.28,3.23,4,4.38s3.49,1.3,5.35,1.81a18.52,18.52,0,0,1,5.64,2.68c1.7,1.17,3,2.85,4.94,3.71s4,.69,6.17,1a18,18,0,0,1,6.18,2.06,9.14,9.14,0,0,0,6,1.14,25.28,25.28,0,0,1,7.21-.41c2.33.29,4.38,1,6.7.16,2.17-.74,4.06-2,6.3-2.64s4.33-.32,6.41-.92,3.47-2.12,5.27-3.28a14,14,0,0,1,5.4-2c2.12-.35,4.09-.33,6-1.5s3.15-3.14,5-4.41,4-1.9,5.45-3.71,1.79-3.93,2.84-5.87a25.19,25.19,0,0,1,4.76-6.07c1.38-1.35-.74-3.47-2.13-2.12A26.92,26.92,0,0,0,788.13,487a6.61,6.61,0,0,1-3.77,3.69,17.53,17.53,0,0,0-4.93,3.7c-1.4,1.47-2.68,2.54-4.79,2.75a20.89,20.89,0,0,0-5.85,1.22,17.9,17.9,0,0,0-4.85,3,6.6,6.6,0,0,1-2.62,1.4,24.11,24.11,0,0,1-3.29.32,22.21,22.21,0,0,0-6.18,1.72c-2.14.93-3.82,2.14-6.26,1.64a24.35,24.35,0,0,0-7.12-.49c-2.14.2-4.26,1-6.36.2s-3.69-1.89-5.78-2.42a59.38,59.38,0,0,0-6.19-.75c-2.18-.31-3.49-1.95-5.14-3.23a22.09,22.09,0,0,0-5.08-3,21.48,21.48,0,0,0-3.15-1,12.62,12.62,0,0,1-3.09-.84c-1.9-1-2.87-3-4.26-4.52a27.92,27.92,0,0,0-11.06-7.16c-1.81-.68-2.59,2.22-.79,2.89Z" transform="translate(-21 -22)"/>
    </g>
  </g>
  <g id="pancreas">
    <path id="pancreas-2" data-name="pancreas" class="cls-13" d="M719.91,491.42a345.86,345.86,0,0,0,44.84-8.73c1.19-.32,1.88,1.56,1.07,2.93-2.49,4.16-6.53,7.67-11.5,10.78a14.46,14.46,0,0,1-5,2,76,76,0,0,0-18,5.66,8.14,8.14,0,0,0-3.78,4.42c-2.22,5.43-5,8-8.22,8.78-5.92,1.39-10.86-4.85-10.21-13.23C709.57,498.17,712.66,493.7,719.91,491.42Z" transform="translate(-21 -22)"/>
  </g>
  <g id="uraters">
    <g id="uraters-2" data-name="uraters">
      <path class="cls-13" d="M773,549.83a33.41,33.41,0,0,1-2.07-8.78c-1.08-10.58-2.19-30.27-1.49-33.64,3.94-18.68,3-23.44,3-23.44-.13-.69.05-2.76,0-3.53s.76-3.55,1-5.63a10.76,10.76,0,0,1,2.08-5.33c1.07-1.41,2.41-2.46,3.5-1l.6-8.15S772,463,771.83,471.3c-.11,4.63-.71,9.7-1,12.23a22.48,22.48,0,0,0-.21,2.71c0,2.61-.51,8.51-3.09,20.76-.84,4,.48,24.73,1.45,34.26a35.77,35.77,0,0,0,2.19,9.3c8.38,21.7,9.08,37.44,2.08,46.77-7.48,10-21.52,8.89-21.66,8.88l-.17,2c.11,0,.73.06,1.7.06,4.2,0,15.1-.9,21.72-9.72C782.25,588.62,781.65,572.24,773,549.83Z" transform="translate(-21 -22)"/>
      <path class="cls-13" d="M701.41,550.25a33.91,33.91,0,0,0,2.07-8.78c1.08-10.59,2.19-30.28,1.48-33.64-3.93-18.69-3-23.45-3-23.45.14-.69,0-2.76,0-3.53s-.75-3.55-1-5.62a10.88,10.88,0,0,0-2.07-5.34c-1.07-1.41-2.42-2.46-3.51-1l-.59-8.15s7.55,2.58,7.75,10.93a121.7,121.7,0,0,0,1,12.24,22.32,22.32,0,0,1,.21,2.71c0,2.6.51,8.5,3.09,20.75.84,4-.48,24.73-1.45,34.26a35.78,35.78,0,0,1-2.2,9.3c-8.38,21.7-9.08,37.44-2.08,46.77,7.48,10,21.53,8.89,21.67,8.88l.17,2c-.12,0-.73,0-1.7,0-4.2,0-15.1-.9-21.72-9.71C692.15,589,692.76,572.65,701.41,550.25Z" transform="translate(-21 -22)"/>
    </g>
  </g>
  <g id="kidneys">
    <g id="kidneys-2" data-name="kidneys">
      <path class="cls-13" d="M776.34,472.11c-2.36,4.8-1.57,8.32,1.54,10.88a11.53,11.53,0,0,0,4.88,2.31c4.82,1,8.64-.25,11.62-3.52a15.3,15.3,0,0,0,3.24-5.69,36.07,36.07,0,0,0,1.82-9.36,24.1,24.1,0,0,0-2-10.65c-3.13-7.32-7.51-10.46-12.38-11.92-4.87-1.86-7.83,0-10.44,2.06a7.26,7.26,0,0,0-2.79,5.62,5.4,5.4,0,0,0,3.11,5.06,6.91,6.91,0,0,1,3.66,6.22c0,.13,0,.25,0,.38A21,21,0,0,1,776.34,472.11Z" transform="translate(-21 -22)"/>
      <path class="cls-13" d="M697.79,471.61c2.36,4.8,1.56,8.31-1.55,10.88a11.41,11.41,0,0,1-4.88,2.3c-4.82,1-8.64-.25-11.61-3.51a15.42,15.42,0,0,1-3.25-5.7,36,36,0,0,1-1.81-9.35,24.11,24.11,0,0,1,2-10.66c3.14-7.31,7.51-10.46,12.39-11.91,4.87-1.86,7.82,0,10.43,2a7.32,7.32,0,0,1,2.8,5.63,5.38,5.38,0,0,1-3.11,5.05,7,7,0,0,0-3.67,6.23c0,.12,0,.25,0,.37A21.09,21.09,0,0,0,697.79,471.61Z" transform="translate(-21 -22)"/>
    </g>
  </g>
  <g id="adrenalGlands">
    <g id="adrenal_glands" data-name="adrenal glands">
      <path class="cls-2" d="M777.83,445.1l-.24.08c-.4.1-1.86.66-2.88,3.55-1.19,3.38-5.57,3-5,.6s2.12-3.11,2-4.17c-.35-2.84,5.92-9,10-6.93a2,2,0,0,0,1.27.2,3.86,3.86,0,0,1,4.52,1.88,1.34,1.34,0,0,0,.4.42,2.88,2.88,0,0,1,.87,1.75,1.78,1.78,0,0,0,.37.8l.06.08a1.91,1.91,0,0,1-2.09,2.92,14.82,14.82,0,0,1-3.23-1.21,2.3,2.3,0,0,0-.43-.18A8.56,8.56,0,0,0,777.83,445.1Z" transform="translate(-21 -22)"/>
      <path class="cls-2" d="M696.3,444.59a1.13,1.13,0,0,0,.24.08c.39.1,1.85.66,2.87,3.56,1.2,3.38,5.57,3,5,.59s-2.11-3.11-2-4.17c.34-2.84-5.93-9-10-6.92a1.94,1.94,0,0,1-1.27.19,3.86,3.86,0,0,0-4.52,1.89,1.77,1.77,0,0,1-.4.42,2.75,2.75,0,0,0-.87,1.75,1.91,1.91,0,0,1-.38.8l-.06.07a1.92,1.92,0,0,0,2.1,2.92,14.32,14.32,0,0,0,3.23-1.21,1.94,1.94,0,0,1,.42-.17A8.66,8.66,0,0,1,696.3,444.59Z" transform="translate(-21 -22)"/>
    </g>
  </g>
  <g id="bladder">
    <path id="bladder-2" data-name="bladder" class="cls-3" d="M721.19,599.14a26.84,26.84,0,0,1,30.93.41A9.92,9.92,0,0,1,755.89,611c-2.21,6.05-7.51,11.39-13.57,15.32a9.67,9.67,0,0,1-9.3.71,30.15,30.15,0,0,1-15.51-16.2A9.8,9.8,0,0,1,721.19,599.14Z" transform="translate(-21 -22)"/>
  </g>
  <g id="testis">
    <path id="testis-2" data-name="testis" class="cls-3" d="M754.17,652.58a19,19,0,0,0-1.71,12c1.46,4.09,3.61,6.43,7,7,5-.58,7.38-4.63,7.9-10.83a18.58,18.58,0,0,0-1.5-7.81A6.5,6.5,0,0,0,754.17,652.58Z" transform="translate(-21 -22)"/>
  </g>
  <g id="penis">
    <path id="penis-2" data-name="penis" class="cls-2" d="M744.86,632.07c-.13-2.43-1.58-3-4.1-2a7,7,0,0,1-4.7.35v.26a.69.69,0,0,0,.68.7h1.59a.59.59,0,0,1,0,1.17h-1.59a.69.69,0,0,0-.68.7v.16a2,2,0,0,0,.31,1c.67,1.1.67,2.59.14,4.4a11.56,11.56,0,0,0-.45,3.2v24.19a3.11,3.11,0,0,0,.44,1.66c1,1.63.46,4.39-.42,7.38,2.4-1.27,8.72-5.54,5.85-13.91,0,0-.29-19.89.88-22.23A15.55,15.55,0,0,1,744.86,632.07Z" transform="translate(-21 -22)"/>
  </g>
  <g id="prostate">
    <path id="prostate-2" data-name="prostate" class="cls-2" d="M743.69,623.59q-.41-5.65-7.63-3.75v10.37C740.06,629.88,742.88,628,743.69,623.59Z" transform="translate(-21 -22)"/>
  </g>
  <g id="vasdeference">
    <path id="vas_deferens" data-name="vas deferens" class="cls-2" d="M769.57,620.81c3.35-8.81,3.49-17.09-1.17-24.56-6.38-4.55-12.84-1.75-19.33,4.43-9.37-1.9-12.44,8.1-13.42,13.84a.87.87,0,0,1,.41.74V617a4.53,4.53,0,0,0,2-1.13,1.09,1.09,0,0,1,1.87.34v0a.68.68,0,0,1-.46.88,11.65,11.65,0,0,0-3.45,1.48v0a11.68,11.68,0,0,0,7.37-.36c.71-.24,1.43-.45,2.15-.66,4.23-1.27,14.83-11.93,6.49-16a13.92,13.92,0,0,1,6-4.89,8.25,8.25,0,0,1,10.25,3.57c1.55,2.82,1.88,6.59,1.33,11a33.54,33.54,0,0,1-3.05,10.15c-2.73,5.88-1,12.63-.29,19.18A60.87,60.87,0,0,1,768.8,653a.5.5,0,0,1-.95.23c-2.26-4.71-5.79-5.82-10-5a2.77,2.77,0,0,0-2.3,2.81c.06,1.08.76,1.73,2.09,1.93a3.7,3.7,0,0,0,1.77-.2c3.69-1.32,5.89.94,6.64,6.7a9.28,9.28,0,0,1-3.8,9.36C761,670.39,762,671,764,671.12c4.32-1.43,7-5.39,7-13.16-.22-5.15-.65-10.15-2.34-14.33C766.45,631.07,767.28,624.52,769.57,620.81Z" transform="translate(-21 -22)"/>
  </g>
  <g id="urethra">
    <path id="urethra-2" data-name="urethra" class="cls-13" d="M740,616.25v0a1.09,1.09,0,0,0-1.87-.34,4.53,4.53,0,0,1-2,1.13v-1.75a.87.87,0,0,0-.41-.74.82.82,0,0,0-.35-.13h-.09v61.27s.34-.14.87-.42c.88-3,1.44-5.75.42-7.38a3.11,3.11,0,0,1-.44-1.66V642a11.56,11.56,0,0,1,.45-3.2c.53-1.81.53-3.3-.14-4.4a2,2,0,0,1-.31-1v-.16a.69.69,0,0,1,.68-.7h1.59a.59.59,0,0,0,0-1.17h-1.59a.69.69,0,0,1-.68-.7v-12a11.65,11.65,0,0,1,3.45-1.48A.68.68,0,0,0,740,616.25Z" transform="translate(-21 -22)"/>
  </g>
  <g id="ovary">
    <path id="ovary-2" data-name="ovary" class="cls-3" d="M711.87,625.47c-1.61-4.87-4-8.88-11.26-7.65a2,2,0,0,0-.66.25l-.05,0a5,5,0,0,0-1.89,6.2c1.87,4.56,5.58,7,12,6.27a4.9,4.9,0,0,1,1.48,0c2.75.48,5.49-.28,8.1-6.58l-1.76-5.85c-.82,3.8-1.84,7.12-3.75,8.17A1.54,1.54,0,0,1,711.87,625.47Z" transform="translate(-21 -22)"/>
  </g>
  <g id="filopianTube">
    <path id="filopian_tube" data-name="filopian tube" class="cls-13" d="M709.91,606.48c-.55-4.66-3.89-6.61-8.88-7A6.12,6.12,0,0,1,697.4,598a8.58,8.58,0,0,0-3.9-2.05,8.38,8.38,0,0,0-10,7.81,17.31,17.31,0,0,0,2.18,8.9l4.53,9.82a.34.34,0,0,0,.64-.16l-.17-3.39a.17.17,0,0,1,.28-.14l1.85,1.71a.33.33,0,0,0,.51-.42l-.63-1.08a.17.17,0,0,1,.22-.23l2.46,1.22a.33.33,0,0,0,.43-.48l-1.38-2.08a.16.16,0,0,1,.18-.25l2.09.59a.34.34,0,0,0,.31-.58l-1.51-1.23a.17.17,0,0,1,.13-.3l2.56.32a.34.34,0,0,0,.22-.62l-2.06-1.27a.17.17,0,0,1,.07-.31l2.94-.31a.33.33,0,0,0,0-.66c-4.79-1.08-8.9-2.58-10.49-5.7-1.67-4.81-.78-7.16,2.36-7.36a5.74,5.74,0,0,1,4.35,1.68,4.41,4.41,0,0,0,4.21,1.37,6,6,0,0,1,3.09,0c3.36,1,5.13,3.62,5.58,7.48,1,4,4.18,6,8.81,6.6a11.51,11.51,0,0,1,.2-2.14C713,613.56,710.25,611,709.91,606.48Z" transform="translate(-21 -22)"/>
  </g>
  <g id="cervix">
    <path id="cervix-2" data-name="cervix" class="cls-3" d="M734.14,639.72a1.76,1.76,0,0,1-.18.5,7.69,7.69,0,0,0-1,4,1.72,1.72,0,0,0,.11.51c1,2.93,1.37,5,1,6a.89.89,0,0,1-.45.5,7.14,7.14,0,0,0,1.62.19v-.3l0-11.34A2,2,0,0,1,734.14,639.72Z" transform="translate(-21 -22)"/>
  </g>
  <g id="uterus">
    <path id="uterus-2" data-name="uterus" class="cls-13" d="M732.26,614.5a18.93,18.93,0,0,1-6,1.06,32.12,32.12,0,0,1-8.85-.82,11.51,11.51,0,0,0-.2,2.14c.36,0,.72.09,1.09.12a16.88,16.88,0,0,1,15.4,14.09,44.89,44.89,0,0,1,.46,8.11v.08a3.11,3.11,0,0,1-.06.44,2,2,0,0,0,1.14,0v-.46l.05-25A7.6,7.6,0,0,0,732.26,614.5Z" transform="translate(-21 -22)"/>
    <path class="cls-2" d="M726.3,615.56a18.88,18.88,0,0,0,6-1.06,7.6,7.6,0,0,1,3.07-.2l0-7.33a1.47,1.47,0,0,0-1.42-1.46,28.79,28.79,0,0,0-8.23,1c-5,1.78-7.56,4.62-8.25,8.26A32.15,32.15,0,0,0,726.3,615.56Z" transform="translate(-21 -22)"/>
    <path class="cls-2" d="M733.1,644.75a1.72,1.72,0,0,1-.11-.51,7.69,7.69,0,0,1,1-4,2.18,2.18,0,0,0,.24-.94,45,45,0,0,0-.46-8.19A16.88,16.88,0,0,0,718.34,617c-.37,0-.73-.07-1.09-.12,0,3.77,1.57,8.23,4.21,13.15,4.9,6.65,5.88,14.53,5.56,22.81-.93,6.57-.34,13.84,1,21.47,0,.18.07.37.11.55s0,.2.05.3a14.91,14.91,0,0,0,2.61.41c0-.15,0-.29-.05-.44l0-.32a9.49,9.49,0,0,0-.65-2.49A2,2,0,0,1,730,671c.58-2.4-.08-5.4-.2-7.62a2.8,2.8,0,0,1,0-.4,27.7,27.7,0,0,0-.25-7.73,1.81,1.81,0,0,0-.41-.9c-1-1.23-.66-3.08-.35-4.94a.26.26,0,0,1,.45-.11c1.42,1.71,2.86,2.37,4.33,1.89l0,0C734.64,650.78,734.32,648.43,733.1,644.75Z" transform="translate(-21 -22)"/>
  </g>
  <g id="vagina">
    <path id="vagina-2" data-name="vagina" class="cls-13" d="M733.64,651.21l0,0c-1.47.48-2.91-.18-4.33-1.89a.26.26,0,0,0-.45.11c-.31,1.86-.61,3.71.35,4.94a1.81,1.81,0,0,1,.41.9,27.7,27.7,0,0,1,.25,7.73,2.8,2.8,0,0,0,0,.4c.12,2.22.78,5.22.2,7.62a2,2,0,0,0,.09,1.28,9.49,9.49,0,0,1,.65,2.49l0,.32c0,.15,0,.29.05.44,1.7.14,3.5.12,4.39.1v-.08l0-24.19A7.14,7.14,0,0,1,733.64,651.21Z" transform="translate(-21 -22)"/>
  </g>
</svg>
