<svg xmlns="http://www.w3.org/2000/svg" viewBox="0 0 315.37 729.63">
<g id="leg"><path id="leg-2" data-name="leg" d="M287,770.36c-1-7-2.46-13.67-5.14-19.53a18.69,18.69,0,0,1-1.64-6.53A156.05,156.05,0,0,0,275,712.85a69.25,69.25,0,0,1-2.49-19.68c.46-26.24,3.69-48.93.77-68.71a48.27,48.27,0,0,1,.17-15.82c3.62-19.82,6.5-41.24,8.8-63.93,1.72-16.91,3.12-34.52,4.25-52.7a114.92,114.92,0,0,0-62.52-1c2.48,17.55,5.53,35.74,8.07,53.66C234,558.42,235.66,572,236.53,585c3.2,17.28-2.75,24.73-5.24,42.55,1.5,33.28,15.71,67.43,22.26,98.85a84.77,84.77,0,0,1-7.67,35.86,9.78,9.78,0,0,0,5.6,13.2l.1,0a9.36,9.36,0,0,0,7.5.65,5.63,5.63,0,0,1,3.35,0,8.24,8.24,0,0,0,5.23.11,5.24,5.24,0,0,1,3.32,0,5.89,5.89,0,0,0,3.56.14,5.32,5.32,0,0,1,3.77.44,6.07,6.07,0,0,0,8.65-6.49Z" transform="translate(-136 -47.84)" fill="#e1f2ee"/></g>
<g id="body"><path id="body-2" data-name="body" d="M449.7,424.54a26.55,26.55,0,0,1-5.52-3.44l-10-7c-8.22-3.94-16.3-7.95-18.73-14.83,0,0-.21-1.07-.24-1.61a409.09,409.09,0,0,0-7.23-56.22,27.37,27.37,0,0,0-3.7-9.43c-15.26-24-9.37-58.19-14.6-108.35-.27-2.59-.49-5.2-.51-7.8a31.49,31.49,0,0,0-8.55-21.56,36.06,36.06,0,0,0-23.3-11.5,112.2,112.2,0,0,1-20.41-4.19,19.88,19.88,0,0,1-11-8.06c-2.33-3.5-5-13.36-5-13.36q-.51-2.83-.84-5.77a1.64,1.64,0,0,1,0-.22c-.05-.4-.09-.79-.12-1.19,0-.15,0-.31-.05-.46l-.09-1.1c0-.19,0-.38,0-.58s-.05-.69-.07-1l0-.65c0-.34,0-.68-.05-1s0-.49,0-.74q0-.78,0-1.56c0-.34,0-.67,0-1s0-.52,0-.78,0-.66,0-1l0-.78c0-.34,0-.68,0-1s0-.51,0-.77,0-.72.07-1.08,0-.48.05-.72c0-.4.07-.81.11-1.21l.06-.62c.06-.61.13-1.22.21-1.84a53.46,53.46,0,0,1,5.1-16.88c5.52-11.25,9.6-20.54,6.92-36.58-2.52-17.64-14.69-28.49-39.4-30.51-26.88-1.78-42.26,7.68-48.31,31.14-.18,2.47-.23,6.31.78,7.94a6.53,6.53,0,0,1,.51,6,33.85,33.85,0,0,1-4.6,7.73c-.33.42-4.45,6.61-5.49,9.4a3,3,0,0,0,1.68,3.8,13.52,13.52,0,0,0,2.94.67,1.24,1.24,0,0,1,1.09,1.17,19.62,19.62,0,0,1-1.36,7.2c-.18.84.37,1.18,1.27,1.27-1,.27-1.41.69-1.27,1.27a7.94,7.94,0,0,0,1.69,3.74,9.54,9.54,0,0,1,2.21,5.44c.48,8.35,2.94,12.4,7.54,11.8,5.66-.69,11.05-1.16,15.1-.49a4.25,4.25,0,0,1,3.13,2.36c.15.31.29.62.41.91,0,.09.07.17.11.25.1.24.19.47.27.7l.06.17c.1.27.18.52.25.77l.06.24.12.53c0,.08,0,.16,0,.24a4.81,4.81,0,0,1,.08.65,1.69,1.69,0,0,1,0,.23c0,.14,0,.28,0,.42a2.44,2.44,0,0,1,0,.27c0,.15,0,.3-.05.45a2,2,0,0,1-.06.34c0,.12,0,.24-.08.36l-.09.28a2.83,2.83,0,0,1-.11.31c-.06.14-.12.29-.19.43-1.3,2.69-2.24,5.52-3.63,8.19a24.12,24.12,0,0,1-3.42,5.28,66.35,66.35,0,0,1-5.71,5.28,17.55,17.55,0,0,1-6.33,3.84A112.2,112.2,0,0,1,231,182.77a37.61,37.61,0,0,0-8.94,2l-.29.11-1,.37-.38.16-.94.4-.3.13c-.6.28-1.19.56-1.77.87l-.39.2-.73.41-.58.34c-.23.13-.45.27-.67.41s-.43.27-.64.41l-.6.39-.86.61-.49.37c-.34.25-.67.51-1,.78l-.41.35c-.26.21-.51.43-.76.65l-.42.38-.75.72-.35.34c-.36.37-.71.73-1.05,1.11a31.49,31.49,0,0,0-8.55,21.56c0,2.6-.24,5.21-.51,7.8C193.4,273.79,199.29,308,184,332a27.37,27.37,0,0,0-3.7,9.43,408.72,408.72,0,0,0-7,53.51l-1.23,3.38c-2.34,7-10.51,11.08-18.83,15.06l-10,7a27,27,0,0,1-5.52,3.44,2.76,2.76,0,0,0-.5,4.78c3.45,2.36,7.48.92,11.73-1.88,8-5.41,10.42-2.43,7.72,8.15l-8.49,22a20.28,20.28,0,0,0-1.31,5.79,2.78,2.78,0,0,0,4.5,2.4h0a5.19,5.19,0,0,0,1.52-2l2.53-5.72,6.39-11.73a.37.37,0,0,1,.68.28l-5.32,18.25c-.14.47-.3.92-.45,1.39a16.89,16.89,0,0,0-.77,5.64,2.7,2.7,0,0,0,5,1.39,10.8,10.8,0,0,0,1.34-3c.1-.4.21-.8.35-1.19l7.67-21.09a.21.21,0,0,1,.4.12l-3.58,15.07a25.12,25.12,0,0,1-1.19,3.81c-.32.79-.48,1.61-.73,2.4-1.56,4.94,4.24,6.55,5.77,2.15.61-1.75,4.84-18.22,6.5-23.7a.54.54,0,0,1,1.06.14,66.5,66.5,0,0,1-.22,8.75,16.75,16.75,0,0,1-1.06,4.06,6.48,6.48,0,0,0-.12,3.74,2.3,2.3,0,0,0,4.32.48,25.82,25.82,0,0,0,2.84-11.42s.56-8.88,1.42-11.24,4.59-22.9,4.16-24.65c-.19-.76,1.8-6.93,1.8-6.93a41.25,41.25,0,0,1,3.47-7.33,246,246,0,0,0,24.1-53.1,13.87,13.87,0,0,0,.49-2.12c3.61-24,4.91-49,11.83-55.1a.7.7,0,0,1,.16-.1.58.58,0,0,1,.17-.06.75.75,0,0,1,.91.65c2.7,24.56,2.45,50.08,1.44,75.86a38.82,38.82,0,0,1-2.64,12.54,186.44,186.44,0,0,0-12,48.46c-.82,18.22,1.39,39.23,4.5,61.23a114.92,114.92,0,0,1,62.52,1q.51-8.06,1-16.25a1.28,1.28,0,0,1,1.8-1.11,5.7,5.7,0,0,0,4.86.34,5.68,5.68,0,0,0,4.85-.34,1.28,1.28,0,0,1,1.8,1.11c2.61,48.78,6.89,93.91,14,132.88a48.27,48.27,0,0,1,.17,15.82c-2.92,19.78.31,42.47.77,68.71a69.25,69.25,0,0,1-2.49,19.68,156.05,156.05,0,0,0-5.15,31.45,18.69,18.69,0,0,1-1.64,6.53c-2.68,5.86-4.16,12.53-5.14,19.53a6.07,6.07,0,0,0,8.65,6.49,5.32,5.32,0,0,1,3.77-.44,5.88,5.88,0,0,0,3.56-.14,5.27,5.27,0,0,1,3.33,0,8.21,8.21,0,0,0,5.22-.11,5.63,5.63,0,0,1,3.35,0,9.36,9.36,0,0,0,7.5-.65l.1,0a9.78,9.78,0,0,0,5.6-13.2,84.77,84.77,0,0,1-7.67-35.86c6.55-31.42,20.76-65.57,22.26-98.85-2.49-17.82-8.44-25.27-5.24-42.55,3.41-51.32,19-111.29,17-155.16a186.44,186.44,0,0,0-12-48.46,38.82,38.82,0,0,1-2.64-12.54c-1-25.78-1.26-51.3,1.44-75.86a.75.75,0,0,1,1.24-.49c6.92,6.1,8.22,31.1,11.83,55.1a13.87,13.87,0,0,0,.49,2.12,245.63,245.63,0,0,0,24.09,53.08c1.13,3.18,4.75,13.5,4.38,15-.42,1.75,3.31,22.29,4.17,24.65s1.41,11.24,1.41,11.24A25.82,25.82,0,0,0,406,465.07a2.3,2.3,0,0,0,4.32-.48,6.48,6.48,0,0,0-.12-3.74,17.27,17.27,0,0,1-1.06-4.05,70.38,70.38,0,0,1-.22-8.76.55.55,0,0,1,1.07-.14c1.65,5.48,5.88,22,6.49,23.7,1.53,4.4,7.34,2.79,5.77-2.15-.25-.79-.4-1.61-.73-2.4a24,24,0,0,1-1.18-3.81l-3.58-15.07a.2.2,0,0,1,.39-.12l7.67,21.09c.14.39.25.79.36,1.19a10.8,10.8,0,0,0,1.34,3,2.7,2.7,0,0,0,5-1.39,16.92,16.92,0,0,0-.77-5.64c-.15-.46-.31-.92-.45-1.39l-5.32-18.25a.37.37,0,0,1,.68-.28L432,458.11l2.53,5.72a5.19,5.19,0,0,0,1.52,2,2.78,2.78,0,0,0,4.5-2.4,20.28,20.28,0,0,0-1.31-5.79l-8.48-22c-2.7-10.58-.31-13.56,7.72-8.14,4.24,2.79,8.28,4.23,11.73,1.88A2.76,2.76,0,0,0,449.7,424.54Z" transform="translate(-136 -47.84)" fill="#a9dbce"/></g>
</svg>