<?xml version="1.0" encoding="utf-8" standalone="no"?>
<!DOCTYPE svg PUBLIC "-//W3C//DTD SVG 1.1//EN"
  "http://www.w3.org/Graphics/SVG/1.1/DTD/svg11.dtd">
<svg xmlns:xlink="http://www.w3.org/1999/xlink" width="127.559055pt" height="283.464567pt" viewBox="0 0 127.559055 283.464567" xmlns="http://www.w3.org/2000/svg" version="1.1">
 <metadata>
  <rdf:RDF xmlns:dc="http://purl.org/dc/elements/1.1/" xmlns:cc="http://creativecommons.org/ns#" xmlns:rdf="http://www.w3.org/1999/02/22-rdf-syntax-ns#">
   <cc:Work>
    <dc:type rdf:resource="http://purl.org/dc/dcmitype/StillImage"/>
    <dc:date>2023-03-23T16:37:13.784179</dc:date>
    <dc:format>image/svg+xml</dc:format>
    <dc:creator>
     <cc:Agent>
      <dc:title>Matplotlib v3.5.2, https://matplotlib.org/</dc:title>
     </cc:Agent>
    </dc:creator>
   </cc:Work>
  </rdf:RDF>
 </metadata>
 <defs>
  <style type="text/css">*{stroke-linejoin: round; stroke-linecap: butt}</style>
 </defs>
 <g id="figure_1">
  <g id="patch_1">
   <path d="M 0 283.464567 
L 127.559055 283.464567 
L 127.559055 0 
L 0 0 
z
" style="fill: #ffffff"/>
  </g>
  <g id="axes_1">
   <g id="patch_2">
    <path d="M 15.944882 133.051181 
L 114.80315 133.051181 
L 114.80315 34.192913 
L 15.944882 34.192913 
z
" style="fill: #ffffff"/>
   </g>
   <g id="patch_3">
    <path d="M 20.43844 133.051181 
L 24.033286 133.051181 
L 24.033286 62.654821 
L 20.43844 62.654821 
z
" clip-path="url(#pd9c16666fe)" style="fill: #1f77b4"/>
   </g>
   <g id="patch_4">
    <path d="M 24.033286 133.051181 
L 27.628132 133.051181 
L 27.628132 133.008216 
L 24.033286 133.008216 
z
" clip-path="url(#pd9c16666fe)" style="fill: #1f77b4"/>
   </g>
   <g id="patch_5">
    <path d="M 27.628132 133.051181 
L 31.222978 133.051181 
L 31.222978 91.005536 
L 27.628132 91.005536 
z
" clip-path="url(#pd9c16666fe)" style="fill: #1f77b4"/>
   </g>
   <g id="patch_6">
    <path d="M 31.222978 133.051181 
L 34.817824 133.051181 
L 34.817824 130.033469 
L 31.222978 130.033469 
z
" clip-path="url(#pd9c16666fe)" style="fill: #1f77b4"/>
   </g>
   <g id="patch_7">
    <path d="M 34.817824 133.051181 
L 38.41267 133.051181 
L 38.41267 133.051181 
L 34.817824 133.051181 
z
" clip-path="url(#pd9c16666fe)" style="fill: #1f77b4"/>
   </g>
   <g id="patch_8">
    <path d="M 38.41267 133.051181 
L 42.007516 133.051181 
L 42.007516 133.051181 
L 38.41267 133.051181 
z
" clip-path="url(#pd9c16666fe)" style="fill: #1f77b4"/>
   </g>
   <g id="patch_9">
    <path d="M 42.007516 133.051181 
L 45.602362 133.051181 
L 45.602362 133.04415 
L 42.007516 133.04415 
z
" clip-path="url(#pd9c16666fe)" style="fill: #1f77b4"/>
   </g>
   <g id="patch_10">
    <path d="M 45.602362 133.051181 
L 49.197208 133.051181 
L 49.197208 132.666839 
L 45.602362 132.666839 
z
" clip-path="url(#pd9c16666fe)" style="fill: #1f77b4"/>
   </g>
   <g id="patch_11">
    <path d="M 49.197208 133.051181 
L 52.792054 133.051181 
L 52.792054 96.735518 
L 49.197208 96.735518 
z
" clip-path="url(#pd9c16666fe)" style="fill: #1f77b4"/>
   </g>
   <g id="patch_12">
    <path d="M 52.792054 133.051181 
L 56.386901 133.051181 
L 56.386901 132.873071 
L 52.792054 132.873071 
z
" clip-path="url(#pd9c16666fe)" style="fill: #1f77b4"/>
   </g>
   <g id="patch_13">
    <path d="M 56.386901 133.051181 
L 59.981747 133.051181 
L 59.981747 133.037901 
L 56.386901 133.037901 
z
" clip-path="url(#pd9c16666fe)" style="fill: #1f77b4"/>
   </g>
   <g id="patch_14">
    <path d="M 59.981747 133.051181 
L 63.576593 133.051181 
L 63.576593 133.0504 
L 59.981747 133.0504 
z
" clip-path="url(#pd9c16666fe)" style="fill: #1f77b4"/>
   </g>
   <g id="patch_15">
    <path d="M 63.576593 133.051181 
L 67.171439 133.051181 
L 67.171439 133.029308 
L 63.576593 133.029308 
z
" clip-path="url(#pd9c16666fe)" style="fill: #1f77b4"/>
   </g>
   <g id="patch_16">
    <path d="M 67.171439 133.051181 
L 70.766285 133.051181 
L 70.766285 119.992135 
L 67.171439 119.992135 
z
" clip-path="url(#pd9c16666fe)" style="fill: #1f77b4"/>
   </g>
   <g id="patch_17">
    <path d="M 70.766285 133.051181 
L 74.361131 133.051181 
L 74.361131 130.582641 
L 70.766285 130.582641 
z
" clip-path="url(#pd9c16666fe)" style="fill: #1f77b4"/>
   </g>
   <g id="patch_18">
    <path d="M 74.361131 133.051181 
L 77.955977 133.051181 
L 77.955977 133.008216 
L 74.361131 133.008216 
z
" clip-path="url(#pd9c16666fe)" style="fill: #1f77b4"/>
   </g>
   <g id="patch_19">
    <path d="M 77.955977 133.051181 
L 81.550823 133.051181 
L 81.550823 133.051181 
L 77.955977 133.051181 
z
" clip-path="url(#pd9c16666fe)" style="fill: #1f77b4"/>
   </g>
   <g id="patch_20">
    <path d="M 81.550823 133.051181 
L 85.145669 133.051181 
L 85.145669 133.051181 
L 81.550823 133.051181 
z
" clip-path="url(#pd9c16666fe)" style="fill: #1f77b4"/>
   </g>
   <g id="patch_21">
    <path d="M 85.145669 133.051181 
L 88.740515 133.051181 
L 88.740515 133.046494 
L 85.145669 133.046494 
z
" clip-path="url(#pd9c16666fe)" style="fill: #1f77b4"/>
   </g>
   <g id="patch_22">
    <path d="M 88.740515 133.051181 
L 92.335361 133.051181 
L 92.335361 131.185715 
L 88.740515 131.185715 
z
" clip-path="url(#pd9c16666fe)" style="fill: #1f77b4"/>
   </g>
   <g id="patch_23">
    <path d="M 92.335361 133.051181 
L 95.930208 133.051181 
L 95.930208 132.886351 
L 92.335361 132.886351 
z
" clip-path="url(#pd9c16666fe)" style="fill: #1f77b4"/>
   </g>
   <g id="patch_24">
    <path d="M 95.930208 133.051181 
L 99.525054 133.051181 
L 99.525054 133.048056 
L 95.930208 133.048056 
z
" clip-path="url(#pd9c16666fe)" style="fill: #1f77b4"/>
   </g>
   <g id="patch_25">
    <path d="M 99.525054 133.051181 
L 103.1199 133.051181 
L 103.1199 133.051181 
L 99.525054 133.051181 
z
" clip-path="url(#pd9c16666fe)" style="fill: #1f77b4"/>
   </g>
   <g id="patch_26">
    <path d="M 103.1199 133.051181 
L 106.714746 133.051181 
L 106.714746 133.051181 
L 103.1199 133.051181 
z
" clip-path="url(#pd9c16666fe)" style="fill: #1f77b4"/>
   </g>
   <g id="patch_27">
    <path d="M 106.714746 133.051181 
L 110.309592 133.051181 
L 110.309592 132.851198 
L 106.714746 132.851198 
z
" clip-path="url(#pd9c16666fe)" style="fill: #1f77b4"/>
   </g>
   <g id="matplotlib.axis_1">
    <g id="xtick_1">
     <g id="line2d_1">
      <defs>
       <path id="m5504cb750b" d="M 0 0 
L 0 3.5 
" style="stroke: #000000; stroke-width: 0.8"/>
      </defs>
      <g>
       <use xlink:href="#m5504cb750b" x="20.43844" y="133.051181" style="stroke: #000000; stroke-width: 0.8"/>
      </g>
     </g>
     <g id="text_1">
      <!-- 0.0 -->
      <g transform="translate(14.872346 142.870087)scale(0.07 -0.07)">
       <defs>
        <path id="DejaVuSans-30" d="M 2034 4250 
Q 1547 4250 1301 3770 
Q 1056 3291 1056 2328 
Q 1056 1369 1301 889 
Q 1547 409 2034 409 
Q 2525 409 2770 889 
Q 3016 1369 3016 2328 
Q 3016 3291 2770 3770 
Q 2525 4250 2034 4250 
z
M 2034 4750 
Q 2819 4750 3233 4129 
Q 3647 3509 3647 2328 
Q 3647 1150 3233 529 
Q 2819 -91 2034 -91 
Q 1250 -91 836 529 
Q 422 1150 422 2328 
Q 422 3509 836 4129 
Q 1250 4750 2034 4750 
z
" transform="scale(0.015625)"/>
        <path id="DejaVuSans-2e" d="M 684 794 
L 1344 794 
L 1344 0 
L 684 0 
L 684 794 
z
" transform="scale(0.015625)"/>
       </defs>
       <use xlink:href="#DejaVuSans-30"/>
       <use xlink:href="#DejaVuSans-2e" x="63.623047"/>
       <use xlink:href="#DejaVuSans-30" x="95.410156"/>
      </g>
     </g>
    </g>
    <g id="xtick_2">
     <g id="line2d_2">
      <g>
       <use xlink:href="#m5504cb750b" x="42.906228" y="133.051181" style="stroke: #000000; stroke-width: 0.8"/>
      </g>
     </g>
     <g id="text_2">
      <!-- 0.25 -->
      <g transform="translate(35.113259 142.870087)scale(0.07 -0.07)">
       <defs>
        <path id="DejaVuSans-32" d="M 1228 531 
L 3431 531 
L 3431 0 
L 469 0 
L 469 531 
Q 828 903 1448 1529 
Q 2069 2156 2228 2338 
Q 2531 2678 2651 2914 
Q 2772 3150 2772 3378 
Q 2772 3750 2511 3984 
Q 2250 4219 1831 4219 
Q 1534 4219 1204 4116 
Q 875 4013 500 3803 
L 500 4441 
Q 881 4594 1212 4672 
Q 1544 4750 1819 4750 
Q 2544 4750 2975 4387 
Q 3406 4025 3406 3419 
Q 3406 3131 3298 2873 
Q 3191 2616 2906 2266 
Q 2828 2175 2409 1742 
Q 1991 1309 1228 531 
z
" transform="scale(0.015625)"/>
        <path id="DejaVuSans-35" d="M 691 4666 
L 3169 4666 
L 3169 4134 
L 1269 4134 
L 1269 2991 
Q 1406 3038 1543 3061 
Q 1681 3084 1819 3084 
Q 2600 3084 3056 2656 
Q 3513 2228 3513 1497 
Q 3513 744 3044 326 
Q 2575 -91 1722 -91 
Q 1428 -91 1123 -41 
Q 819 9 494 109 
L 494 744 
Q 775 591 1075 516 
Q 1375 441 1709 441 
Q 2250 441 2565 725 
Q 2881 1009 2881 1497 
Q 2881 1984 2565 2268 
Q 2250 2553 1709 2553 
Q 1456 2553 1204 2497 
Q 953 2441 691 2322 
L 691 4666 
z
" transform="scale(0.015625)"/>
       </defs>
       <use xlink:href="#DejaVuSans-30"/>
       <use xlink:href="#DejaVuSans-2e" x="63.623047"/>
       <use xlink:href="#DejaVuSans-32" x="95.410156"/>
       <use xlink:href="#DejaVuSans-35" x="159.033203"/>
      </g>
     </g>
    </g>
    <g id="xtick_3">
     <g id="line2d_3">
      <g>
       <use xlink:href="#m5504cb750b" x="65.374016" y="133.051181" style="stroke: #000000; stroke-width: 0.8"/>
      </g>
     </g>
     <g id="text_3">
      <!-- 0.5 -->
      <g transform="translate(59.807922 142.870087)scale(0.07 -0.07)">
       <use xlink:href="#DejaVuSans-30"/>
       <use xlink:href="#DejaVuSans-2e" x="63.623047"/>
       <use xlink:href="#DejaVuSans-35" x="95.410156"/>
      </g>
     </g>
    </g>
    <g id="xtick_4">
     <g id="line2d_4">
      <g>
       <use xlink:href="#m5504cb750b" x="87.841804" y="133.051181" style="stroke: #000000; stroke-width: 0.8"/>
      </g>
     </g>
     <g id="text_4">
      <!-- 0.75 -->
      <g transform="translate(80.048835 142.870087)scale(0.07 -0.07)">
       <defs>
        <path id="DejaVuSans-37" d="M 525 4666 
L 3525 4666 
L 3525 4397 
L 1831 0 
L 1172 0 
L 2766 4134 
L 525 4134 
L 525 4666 
z
" transform="scale(0.015625)"/>
       </defs>
       <use xlink:href="#DejaVuSans-30"/>
       <use xlink:href="#DejaVuSans-2e" x="63.623047"/>
       <use xlink:href="#DejaVuSans-37" x="95.410156"/>
       <use xlink:href="#DejaVuSans-35" x="159.033203"/>
      </g>
     </g>
    </g>
    <g id="xtick_5">
     <g id="line2d_5">
      <g>
       <use xlink:href="#m5504cb750b" x="110.309592" y="133.051181" style="stroke: #000000; stroke-width: 0.8"/>
      </g>
     </g>
     <g id="text_5">
      <!-- 1.0 -->
      <g transform="translate(104.743498 142.870087)scale(0.07 -0.07)">
       <defs>
        <path id="DejaVuSans-31" d="M 794 531 
L 1825 531 
L 1825 4091 
L 703 3866 
L 703 4441 
L 1819 4666 
L 2450 4666 
L 2450 531 
L 3481 531 
L 3481 0 
L 794 0 
L 794 531 
z
" transform="scale(0.015625)"/>
       </defs>
       <use xlink:href="#DejaVuSans-31"/>
       <use xlink:href="#DejaVuSans-2e" x="63.623047"/>
       <use xlink:href="#DejaVuSans-30" x="95.410156"/>
      </g>
     </g>
    </g>
   </g>
   <g id="matplotlib.axis_2">
    <g id="ytick_1">
     <g id="line2d_6">
      <defs>
       <path id="mde1669a9d1" d="M 0 0 
L -3.5 0 
" style="stroke: #000000; stroke-width: 0.8"/>
      </defs>
      <g>
       <use xlink:href="#mde1669a9d1" x="15.944882" y="133.051181" style="stroke: #000000; stroke-width: 0.8"/>
      </g>
     </g>
     <g id="text_6">
      <!-- 0.0 -->
      <g transform="translate(0.312694 135.710634)scale(0.07 -0.07)">
       <use xlink:href="#DejaVuSans-30"/>
       <use xlink:href="#DejaVuSans-2e" x="63.623047"/>
       <use xlink:href="#DejaVuSans-30" x="95.410156"/>
      </g>
     </g>
    </g>
    <g id="ytick_2">
     <g id="line2d_7">
      <g>
       <use xlink:href="#mde1669a9d1" x="15.944882" y="116.027941" style="stroke: #000000; stroke-width: 0.8"/>
      </g>
     </g>
     <g id="text_7">
      <!-- 0.1 -->
      <g transform="translate(0.312694 118.687394)scale(0.07 -0.07)">
       <use xlink:href="#DejaVuSans-30"/>
       <use xlink:href="#DejaVuSans-2e" x="63.623047"/>
       <use xlink:href="#DejaVuSans-31" x="95.410156"/>
      </g>
     </g>
    </g>
    <g id="ytick_3">
     <g id="line2d_8">
      <g>
       <use xlink:href="#mde1669a9d1" x="15.944882" y="99.0047" style="stroke: #000000; stroke-width: 0.8"/>
      </g>
     </g>
     <g id="text_8">
      <!-- 0.2 -->
      <g transform="translate(0.312694 101.664153)scale(0.07 -0.07)">
       <use xlink:href="#DejaVuSans-30"/>
       <use xlink:href="#DejaVuSans-2e" x="63.623047"/>
       <use xlink:href="#DejaVuSans-32" x="95.410156"/>
      </g>
     </g>
    </g>
    <g id="ytick_4">
     <g id="line2d_9">
      <g>
       <use xlink:href="#mde1669a9d1" x="15.944882" y="81.98146" style="stroke: #000000; stroke-width: 0.8"/>
      </g>
     </g>
     <g id="text_9">
      <!-- 0.3 -->
      <g transform="translate(0.312694 84.640913)scale(0.07 -0.07)">
       <defs>
        <path id="DejaVuSans-33" d="M 2597 2516 
Q 3050 2419 3304 2112 
Q 3559 1806 3559 1356 
Q 3559 666 3084 287 
Q 2609 -91 1734 -91 
Q 1441 -91 1130 -33 
Q 819 25 488 141 
L 488 750 
Q 750 597 1062 519 
Q 1375 441 1716 441 
Q 2309 441 2620 675 
Q 2931 909 2931 1356 
Q 2931 1769 2642 2001 
Q 2353 2234 1838 2234 
L 1294 2234 
L 1294 2753 
L 1863 2753 
Q 2328 2753 2575 2939 
Q 2822 3125 2822 3475 
Q 2822 3834 2567 4026 
Q 2313 4219 1838 4219 
Q 1578 4219 1281 4162 
Q 984 4106 628 3988 
L 628 4550 
Q 988 4650 1302 4700 
Q 1616 4750 1894 4750 
Q 2613 4750 3031 4423 
Q 3450 4097 3450 3541 
Q 3450 3153 3228 2886 
Q 3006 2619 2597 2516 
z
" transform="scale(0.015625)"/>
       </defs>
       <use xlink:href="#DejaVuSans-30"/>
       <use xlink:href="#DejaVuSans-2e" x="63.623047"/>
       <use xlink:href="#DejaVuSans-33" x="95.410156"/>
      </g>
     </g>
    </g>
    <g id="ytick_5">
     <g id="line2d_10">
      <g>
       <use xlink:href="#mde1669a9d1" x="15.944882" y="64.958219" style="stroke: #000000; stroke-width: 0.8"/>
      </g>
     </g>
     <g id="text_10">
      <!-- 0.4 -->
      <g transform="translate(0.312694 67.617672)scale(0.07 -0.07)">
       <defs>
        <path id="DejaVuSans-34" d="M 2419 4116 
L 825 1625 
L 2419 1625 
L 2419 4116 
z
M 2253 4666 
L 3047 4666 
L 3047 1625 
L 3713 1625 
L 3713 1100 
L 3047 1100 
L 3047 0 
L 2419 0 
L 2419 1100 
L 313 1100 
L 313 1709 
L 2253 4666 
z
" transform="scale(0.015625)"/>
       </defs>
       <use xlink:href="#DejaVuSans-30"/>
       <use xlink:href="#DejaVuSans-2e" x="63.623047"/>
       <use xlink:href="#DejaVuSans-34" x="95.410156"/>
      </g>
     </g>
    </g>
    <g id="ytick_6">
     <g id="line2d_11">
      <g>
       <use xlink:href="#mde1669a9d1" x="15.944882" y="47.934979" style="stroke: #000000; stroke-width: 0.8"/>
      </g>
     </g>
     <g id="text_11">
      <!-- 0.5 -->
      <g transform="translate(0.312694 50.594432)scale(0.07 -0.07)">
       <use xlink:href="#DejaVuSans-30"/>
       <use xlink:href="#DejaVuSans-2e" x="63.623047"/>
       <use xlink:href="#DejaVuSans-35" x="95.410156"/>
      </g>
     </g>
    </g>
   </g>
   <g id="patch_28">
    <path d="M 15.944882 133.051181 
L 15.944882 34.192913 
" style="fill: none; stroke: #000000; stroke-width: 0.8; stroke-linejoin: miter; stroke-linecap: square"/>
   </g>
   <g id="patch_29">
    <path d="M 15.944882 133.051181 
L 114.80315 133.051181 
" style="fill: none; stroke: #000000; stroke-width: 0.8; stroke-linejoin: miter; stroke-linecap: square"/>
   </g>
   <g id="text_12">
    <!-- ADORA2A -->
    <g transform="translate(44.792047 39.192913)scale(0.084 -0.084)">
     <defs>
      <path id="DejaVuSans-41" d="M 2188 4044 
L 1331 1722 
L 3047 1722 
L 2188 4044 
z
M 1831 4666 
L 2547 4666 
L 4325 0 
L 3669 0 
L 3244 1197 
L 1141 1197 
L 716 0 
L 50 0 
L 1831 4666 
z
" transform="scale(0.015625)"/>
      <path id="DejaVuSans-44" d="M 1259 4147 
L 1259 519 
L 2022 519 
Q 2988 519 3436 956 
Q 3884 1394 3884 2338 
Q 3884 3275 3436 3711 
Q 2988 4147 2022 4147 
L 1259 4147 
z
M 628 4666 
L 1925 4666 
Q 3281 4666 3915 4102 
Q 4550 3538 4550 2338 
Q 4550 1131 3912 565 
Q 3275 0 1925 0 
L 628 0 
L 628 4666 
z
" transform="scale(0.015625)"/>
      <path id="DejaVuSans-4f" d="M 2522 4238 
Q 1834 4238 1429 3725 
Q 1025 3213 1025 2328 
Q 1025 1447 1429 934 
Q 1834 422 2522 422 
Q 3209 422 3611 934 
Q 4013 1447 4013 2328 
Q 4013 3213 3611 3725 
Q 3209 4238 2522 4238 
z
M 2522 4750 
Q 3503 4750 4090 4092 
Q 4678 3434 4678 2328 
Q 4678 1225 4090 567 
Q 3503 -91 2522 -91 
Q 1538 -91 948 565 
Q 359 1222 359 2328 
Q 359 3434 948 4092 
Q 1538 4750 2522 4750 
z
" transform="scale(0.015625)"/>
      <path id="DejaVuSans-52" d="M 2841 2188 
Q 3044 2119 3236 1894 
Q 3428 1669 3622 1275 
L 4263 0 
L 3584 0 
L 2988 1197 
Q 2756 1666 2539 1819 
Q 2322 1972 1947 1972 
L 1259 1972 
L 1259 0 
L 628 0 
L 628 4666 
L 2053 4666 
Q 2853 4666 3247 4331 
Q 3641 3997 3641 3322 
Q 3641 2881 3436 2590 
Q 3231 2300 2841 2188 
z
M 1259 4147 
L 1259 2491 
L 2053 2491 
Q 2509 2491 2742 2702 
Q 2975 2913 2975 3322 
Q 2975 3731 2742 3939 
Q 2509 4147 2053 4147 
L 1259 4147 
z
" transform="scale(0.015625)"/>
     </defs>
     <use xlink:href="#DejaVuSans-41"/>
     <use xlink:href="#DejaVuSans-44" x="68.408203"/>
     <use xlink:href="#DejaVuSans-4f" x="145.410156"/>
     <use xlink:href="#DejaVuSans-52" x="224.121094"/>
     <use xlink:href="#DejaVuSans-41" x="289.603516"/>
     <use xlink:href="#DejaVuSans-32" x="358.011719"/>
     <use xlink:href="#DejaVuSans-41" x="421.634766"/>
    </g>
   </g>
  </g>
  <g id="axes_2">
   <g id="patch_30">
    <path d="M 15.944882 252.106299 
L 114.80315 252.106299 
L 114.80315 153.248031 
L 15.944882 153.248031 
z
" style="fill: #ffffff"/>
   </g>
   <g id="patch_31">
    <path d="M 20.43844 252.106299 
L 24.033286 252.106299 
L 24.033286 157.955568 
L 20.43844 157.955568 
z
" clip-path="url(#p4c87f23603)" style="fill: #1f77b4"/>
   </g>
   <g id="patch_32">
    <path d="M 24.033286 252.106299 
L 27.628132 252.106299 
L 27.628132 251.368787 
L 24.033286 251.368787 
z
" clip-path="url(#p4c87f23603)" style="fill: #1f77b4"/>
   </g>
   <g id="patch_33">
    <path d="M 27.628132 252.106299 
L 31.222978 252.106299 
L 31.222978 201.43556 
L 27.628132 201.43556 
z
" clip-path="url(#p4c87f23603)" style="fill: #1f77b4"/>
   </g>
   <g id="patch_34">
    <path d="M 31.222978 252.106299 
L 34.817824 252.106299 
L 34.817824 252.106299 
L 31.222978 252.106299 
z
" clip-path="url(#p4c87f23603)" style="fill: #1f77b4"/>
   </g>
   <g id="patch_35">
    <path d="M 34.817824 252.106299 
L 38.41267 252.106299 
L 38.41267 252.103277 
L 34.817824 252.103277 
z
" clip-path="url(#p4c87f23603)" style="fill: #1f77b4"/>
   </g>
   <g id="patch_36">
    <path d="M 38.41267 252.106299 
L 42.007516 252.106299 
L 42.007516 252.003531 
L 38.41267 252.003531 
z
" clip-path="url(#p4c87f23603)" style="fill: #1f77b4"/>
   </g>
   <g id="patch_37">
    <path d="M 42.007516 252.106299 
L 45.602362 252.106299 
L 45.602362 239.19983 
L 42.007516 239.19983 
z
" clip-path="url(#p4c87f23603)" style="fill: #1f77b4"/>
   </g>
   <g id="patch_38">
    <path d="M 45.602362 252.106299 
L 49.197208 252.106299 
L 49.197208 249.126023 
L 45.602362 249.126023 
z
" clip-path="url(#p4c87f23603)" style="fill: #1f77b4"/>
   </g>
   <g id="patch_39">
    <path d="M 49.197208 252.106299 
L 52.792054 252.106299 
L 52.792054 252.106299 
L 49.197208 252.106299 
z
" clip-path="url(#p4c87f23603)" style="fill: #1f77b4"/>
   </g>
   <g id="patch_40">
    <path d="M 52.792054 252.106299 
L 56.386901 252.106299 
L 56.386901 252.100254 
L 52.792054 252.100254 
z
" clip-path="url(#p4c87f23603)" style="fill: #1f77b4"/>
   </g>
   <g id="patch_41">
    <path d="M 56.386901 252.106299 
L 59.981747 252.106299 
L 59.981747 250.333549 
L 56.386901 250.333549 
z
" clip-path="url(#p4c87f23603)" style="fill: #1f77b4"/>
   </g>
   <g id="patch_42">
    <path d="M 59.981747 252.106299 
L 63.576593 252.106299 
L 63.576593 250.019199 
L 59.981747 250.019199 
z
" clip-path="url(#p4c87f23603)" style="fill: #1f77b4"/>
   </g>
   <g id="patch_43">
    <path d="M 63.576593 252.106299 
L 67.171439 252.106299 
L 67.171439 252.104788 
L 63.576593 252.104788 
z
" clip-path="url(#p4c87f23603)" style="fill: #1f77b4"/>
   </g>
   <g id="patch_44">
    <path d="M 67.171439 252.106299 
L 70.766285 252.106299 
L 70.766285 251.941568 
L 67.171439 251.941568 
z
" clip-path="url(#p4c87f23603)" style="fill: #1f77b4"/>
   </g>
   <g id="patch_45">
    <path d="M 70.766285 252.106299 
L 74.361131 252.106299 
L 74.361131 251.658956 
L 70.766285 251.658956 
z
" clip-path="url(#p4c87f23603)" style="fill: #1f77b4"/>
   </g>
   <g id="patch_46">
    <path d="M 74.361131 252.106299 
L 77.955977 252.106299 
L 77.955977 250.997008 
L 74.361131 250.997008 
z
" clip-path="url(#p4c87f23603)" style="fill: #1f77b4"/>
   </g>
   <g id="patch_47">
    <path d="M 77.955977 252.106299 
L 81.550823 252.106299 
L 81.550823 252.053404 
L 77.955977 252.053404 
z
" clip-path="url(#p4c87f23603)" style="fill: #1f77b4"/>
   </g>
   <g id="patch_48">
    <path d="M 81.550823 252.106299 
L 85.145669 252.106299 
L 85.145669 252.098743 
L 81.550823 252.098743 
z
" clip-path="url(#p4c87f23603)" style="fill: #1f77b4"/>
   </g>
   <g id="patch_49">
    <path d="M 85.145669 252.106299 
L 88.740515 252.106299 
L 88.740515 251.938545 
L 85.145669 251.938545 
z
" clip-path="url(#p4c87f23603)" style="fill: #1f77b4"/>
   </g>
   <g id="patch_50">
    <path d="M 88.740515 252.106299 
L 92.335361 252.106299 
L 92.335361 249.450952 
L 88.740515 249.450952 
z
" clip-path="url(#p4c87f23603)" style="fill: #1f77b4"/>
   </g>
   <g id="patch_51">
    <path d="M 92.335361 252.106299 
L 95.930208 252.106299 
L 95.930208 252.09572 
L 92.335361 252.09572 
z
" clip-path="url(#p4c87f23603)" style="fill: #1f77b4"/>
   </g>
   <g id="patch_52">
    <path d="M 95.930208 252.106299 
L 99.525054 252.106299 
L 99.525054 252.106299 
L 95.930208 252.106299 
z
" clip-path="url(#p4c87f23603)" style="fill: #1f77b4"/>
   </g>
   <g id="patch_53">
    <path d="M 99.525054 252.106299 
L 103.1199 252.106299 
L 103.1199 252.106299 
L 99.525054 252.106299 
z
" clip-path="url(#p4c87f23603)" style="fill: #1f77b4"/>
   </g>
   <g id="patch_54">
    <path d="M 103.1199 252.106299 
L 106.714746 252.106299 
L 106.714746 251.915876 
L 103.1199 251.915876 
z
" clip-path="url(#p4c87f23603)" style="fill: #1f77b4"/>
   </g>
   <g id="patch_55">
    <path d="M 106.714746 252.106299 
L 110.309592 252.106299 
L 110.309592 252.098743 
L 106.714746 252.098743 
z
" clip-path="url(#p4c87f23603)" style="fill: #1f77b4"/>
   </g>
   <g id="matplotlib.axis_3">
    <g id="xtick_6">
     <g id="line2d_12">
      <g>
       <use xlink:href="#m5504cb750b" x="20.43844" y="252.106299" style="stroke: #000000; stroke-width: 0.8"/>
      </g>
     </g>
     <g id="text_13">
      <!-- 0.0 -->
      <g transform="translate(14.872346 261.925205)scale(0.07 -0.07)">
       <use xlink:href="#DejaVuSans-30"/>
       <use xlink:href="#DejaVuSans-2e" x="63.623047"/>
       <use xlink:href="#DejaVuSans-30" x="95.410156"/>
      </g>
     </g>
    </g>
    <g id="xtick_7">
     <g id="line2d_13">
      <g>
       <use xlink:href="#m5504cb750b" x="42.906228" y="252.106299" style="stroke: #000000; stroke-width: 0.8"/>
      </g>
     </g>
     <g id="text_14">
      <!-- 0.25 -->
      <g transform="translate(35.113259 261.925205)scale(0.07 -0.07)">
       <use xlink:href="#DejaVuSans-30"/>
       <use xlink:href="#DejaVuSans-2e" x="63.623047"/>
       <use xlink:href="#DejaVuSans-32" x="95.410156"/>
       <use xlink:href="#DejaVuSans-35" x="159.033203"/>
      </g>
     </g>
    </g>
    <g id="xtick_8">
     <g id="line2d_14">
      <g>
       <use xlink:href="#m5504cb750b" x="65.374016" y="252.106299" style="stroke: #000000; stroke-width: 0.8"/>
      </g>
     </g>
     <g id="text_15">
      <!-- 0.5 -->
      <g transform="translate(59.807922 261.925205)scale(0.07 -0.07)">
       <use xlink:href="#DejaVuSans-30"/>
       <use xlink:href="#DejaVuSans-2e" x="63.623047"/>
       <use xlink:href="#DejaVuSans-35" x="95.410156"/>
      </g>
     </g>
    </g>
    <g id="xtick_9">
     <g id="line2d_15">
      <g>
       <use xlink:href="#m5504cb750b" x="87.841804" y="252.106299" style="stroke: #000000; stroke-width: 0.8"/>
      </g>
     </g>
     <g id="text_16">
      <!-- 0.75 -->
      <g transform="translate(80.048835 261.925205)scale(0.07 -0.07)">
       <use xlink:href="#DejaVuSans-30"/>
       <use xlink:href="#DejaVuSans-2e" x="63.623047"/>
       <use xlink:href="#DejaVuSans-37" x="95.410156"/>
       <use xlink:href="#DejaVuSans-35" x="159.033203"/>
      </g>
     </g>
    </g>
    <g id="xtick_10">
     <g id="line2d_16">
      <g>
       <use xlink:href="#m5504cb750b" x="110.309592" y="252.106299" style="stroke: #000000; stroke-width: 0.8"/>
      </g>
     </g>
     <g id="text_17">
      <!-- 1.0 -->
      <g transform="translate(104.743498 261.925205)scale(0.07 -0.07)">
       <use xlink:href="#DejaVuSans-31"/>
       <use xlink:href="#DejaVuSans-2e" x="63.623047"/>
       <use xlink:href="#DejaVuSans-30" x="95.410156"/>
      </g>
     </g>
    </g>
    <g id="text_18">
     <!-- Normalized score -->
     <g transform="translate(35.009875 272.699893)scale(0.07 -0.07)">
      <defs>
       <path id="DejaVuSans-4e" d="M 628 4666 
L 1478 4666 
L 3547 763 
L 3547 4666 
L 4159 4666 
L 4159 0 
L 3309 0 
L 1241 3903 
L 1241 0 
L 628 0 
L 628 4666 
z
" transform="scale(0.015625)"/>
       <path id="DejaVuSans-6f" d="M 1959 3097 
Q 1497 3097 1228 2736 
Q 959 2375 959 1747 
Q 959 1119 1226 758 
Q 1494 397 1959 397 
Q 2419 397 2687 759 
Q 2956 1122 2956 1747 
Q 2956 2369 2687 2733 
Q 2419 3097 1959 3097 
z
M 1959 3584 
Q 2709 3584 3137 3096 
Q 3566 2609 3566 1747 
Q 3566 888 3137 398 
Q 2709 -91 1959 -91 
Q 1206 -91 779 398 
Q 353 888 353 1747 
Q 353 2609 779 3096 
Q 1206 3584 1959 3584 
z
" transform="scale(0.015625)"/>
       <path id="DejaVuSans-72" d="M 2631 2963 
Q 2534 3019 2420 3045 
Q 2306 3072 2169 3072 
Q 1681 3072 1420 2755 
Q 1159 2438 1159 1844 
L 1159 0 
L 581 0 
L 581 3500 
L 1159 3500 
L 1159 2956 
Q 1341 3275 1631 3429 
Q 1922 3584 2338 3584 
Q 2397 3584 2469 3576 
Q 2541 3569 2628 3553 
L 2631 2963 
z
" transform="scale(0.015625)"/>
       <path id="DejaVuSans-6d" d="M 3328 2828 
Q 3544 3216 3844 3400 
Q 4144 3584 4550 3584 
Q 5097 3584 5394 3201 
Q 5691 2819 5691 2113 
L 5691 0 
L 5113 0 
L 5113 2094 
Q 5113 2597 4934 2840 
Q 4756 3084 4391 3084 
Q 3944 3084 3684 2787 
Q 3425 2491 3425 1978 
L 3425 0 
L 2847 0 
L 2847 2094 
Q 2847 2600 2669 2842 
Q 2491 3084 2119 3084 
Q 1678 3084 1418 2786 
Q 1159 2488 1159 1978 
L 1159 0 
L 581 0 
L 581 3500 
L 1159 3500 
L 1159 2956 
Q 1356 3278 1631 3431 
Q 1906 3584 2284 3584 
Q 2666 3584 2933 3390 
Q 3200 3197 3328 2828 
z
" transform="scale(0.015625)"/>
       <path id="DejaVuSans-61" d="M 2194 1759 
Q 1497 1759 1228 1600 
Q 959 1441 959 1056 
Q 959 750 1161 570 
Q 1363 391 1709 391 
Q 2188 391 2477 730 
Q 2766 1069 2766 1631 
L 2766 1759 
L 2194 1759 
z
M 3341 1997 
L 3341 0 
L 2766 0 
L 2766 531 
Q 2569 213 2275 61 
Q 1981 -91 1556 -91 
Q 1019 -91 701 211 
Q 384 513 384 1019 
Q 384 1609 779 1909 
Q 1175 2209 1959 2209 
L 2766 2209 
L 2766 2266 
Q 2766 2663 2505 2880 
Q 2244 3097 1772 3097 
Q 1472 3097 1187 3025 
Q 903 2953 641 2809 
L 641 3341 
Q 956 3463 1253 3523 
Q 1550 3584 1831 3584 
Q 2591 3584 2966 3190 
Q 3341 2797 3341 1997 
z
" transform="scale(0.015625)"/>
       <path id="DejaVuSans-6c" d="M 603 4863 
L 1178 4863 
L 1178 0 
L 603 0 
L 603 4863 
z
" transform="scale(0.015625)"/>
       <path id="DejaVuSans-69" d="M 603 3500 
L 1178 3500 
L 1178 0 
L 603 0 
L 603 3500 
z
M 603 4863 
L 1178 4863 
L 1178 4134 
L 603 4134 
L 603 4863 
z
" transform="scale(0.015625)"/>
       <path id="DejaVuSans-7a" d="M 353 3500 
L 3084 3500 
L 3084 2975 
L 922 459 
L 3084 459 
L 3084 0 
L 275 0 
L 275 525 
L 2438 3041 
L 353 3041 
L 353 3500 
z
" transform="scale(0.015625)"/>
       <path id="DejaVuSans-65" d="M 3597 1894 
L 3597 1613 
L 953 1613 
Q 991 1019 1311 708 
Q 1631 397 2203 397 
Q 2534 397 2845 478 
Q 3156 559 3463 722 
L 3463 178 
Q 3153 47 2828 -22 
Q 2503 -91 2169 -91 
Q 1331 -91 842 396 
Q 353 884 353 1716 
Q 353 2575 817 3079 
Q 1281 3584 2069 3584 
Q 2775 3584 3186 3129 
Q 3597 2675 3597 1894 
z
M 3022 2063 
Q 3016 2534 2758 2815 
Q 2500 3097 2075 3097 
Q 1594 3097 1305 2825 
Q 1016 2553 972 2059 
L 3022 2063 
z
" transform="scale(0.015625)"/>
       <path id="DejaVuSans-64" d="M 2906 2969 
L 2906 4863 
L 3481 4863 
L 3481 0 
L 2906 0 
L 2906 525 
Q 2725 213 2448 61 
Q 2172 -91 1784 -91 
Q 1150 -91 751 415 
Q 353 922 353 1747 
Q 353 2572 751 3078 
Q 1150 3584 1784 3584 
Q 2172 3584 2448 3432 
Q 2725 3281 2906 2969 
z
M 947 1747 
Q 947 1113 1208 752 
Q 1469 391 1925 391 
Q 2381 391 2643 752 
Q 2906 1113 2906 1747 
Q 2906 2381 2643 2742 
Q 2381 3103 1925 3103 
Q 1469 3103 1208 2742 
Q 947 2381 947 1747 
z
" transform="scale(0.015625)"/>
       <path id="DejaVuSans-20" transform="scale(0.015625)"/>
       <path id="DejaVuSans-73" d="M 2834 3397 
L 2834 2853 
Q 2591 2978 2328 3040 
Q 2066 3103 1784 3103 
Q 1356 3103 1142 2972 
Q 928 2841 928 2578 
Q 928 2378 1081 2264 
Q 1234 2150 1697 2047 
L 1894 2003 
Q 2506 1872 2764 1633 
Q 3022 1394 3022 966 
Q 3022 478 2636 193 
Q 2250 -91 1575 -91 
Q 1294 -91 989 -36 
Q 684 19 347 128 
L 347 722 
Q 666 556 975 473 
Q 1284 391 1588 391 
Q 1994 391 2212 530 
Q 2431 669 2431 922 
Q 2431 1156 2273 1281 
Q 2116 1406 1581 1522 
L 1381 1569 
Q 847 1681 609 1914 
Q 372 2147 372 2553 
Q 372 3047 722 3315 
Q 1072 3584 1716 3584 
Q 2034 3584 2315 3537 
Q 2597 3491 2834 3397 
z
" transform="scale(0.015625)"/>
       <path id="DejaVuSans-63" d="M 3122 3366 
L 3122 2828 
Q 2878 2963 2633 3030 
Q 2388 3097 2138 3097 
Q 1578 3097 1268 2742 
Q 959 2388 959 1747 
Q 959 1106 1268 751 
Q 1578 397 2138 397 
Q 2388 397 2633 464 
Q 2878 531 3122 666 
L 3122 134 
Q 2881 22 2623 -34 
Q 2366 -91 2075 -91 
Q 1284 -91 818 406 
Q 353 903 353 1747 
Q 353 2603 823 3093 
Q 1294 3584 2113 3584 
Q 2378 3584 2631 3529 
Q 2884 3475 3122 3366 
z
" transform="scale(0.015625)"/>
      </defs>
      <use xlink:href="#DejaVuSans-4e"/>
      <use xlink:href="#DejaVuSans-6f" x="74.804688"/>
      <use xlink:href="#DejaVuSans-72" x="135.986328"/>
      <use xlink:href="#DejaVuSans-6d" x="175.349609"/>
      <use xlink:href="#DejaVuSans-61" x="272.761719"/>
      <use xlink:href="#DejaVuSans-6c" x="334.041016"/>
      <use xlink:href="#DejaVuSans-69" x="361.824219"/>
      <use xlink:href="#DejaVuSans-7a" x="389.607422"/>
      <use xlink:href="#DejaVuSans-65" x="442.097656"/>
      <use xlink:href="#DejaVuSans-64" x="503.621094"/>
      <use xlink:href="#DejaVuSans-20" x="567.097656"/>
      <use xlink:href="#DejaVuSans-73" x="598.884766"/>
      <use xlink:href="#DejaVuSans-63" x="650.984375"/>
      <use xlink:href="#DejaVuSans-6f" x="705.964844"/>
      <use xlink:href="#DejaVuSans-72" x="767.146484"/>
      <use xlink:href="#DejaVuSans-65" x="806.009766"/>
     </g>
    </g>
   </g>
   <g id="matplotlib.axis_4">
    <g id="ytick_7">
     <g id="line2d_17">
      <g>
       <use xlink:href="#mde1669a9d1" x="15.944882" y="252.106299" style="stroke: #000000; stroke-width: 0.8"/>
      </g>
     </g>
     <g id="text_19">
      <!-- 0.0 -->
      <g transform="translate(0.312694 254.765752)scale(0.07 -0.07)">
       <use xlink:href="#DejaVuSans-30"/>
       <use xlink:href="#DejaVuSans-2e" x="63.623047"/>
       <use xlink:href="#DejaVuSans-30" x="95.410156"/>
      </g>
     </g>
    </g>
    <g id="ytick_8">
     <g id="line2d_18">
      <g>
       <use xlink:href="#mde1669a9d1" x="15.944882" y="235.083059" style="stroke: #000000; stroke-width: 0.8"/>
      </g>
     </g>
     <g id="text_20">
      <!-- 0.1 -->
      <g transform="translate(0.312694 237.742512)scale(0.07 -0.07)">
       <use xlink:href="#DejaVuSans-30"/>
       <use xlink:href="#DejaVuSans-2e" x="63.623047"/>
       <use xlink:href="#DejaVuSans-31" x="95.410156"/>
      </g>
     </g>
    </g>
    <g id="ytick_9">
     <g id="line2d_19">
      <g>
       <use xlink:href="#mde1669a9d1" x="15.944882" y="218.059818" style="stroke: #000000; stroke-width: 0.8"/>
      </g>
     </g>
     <g id="text_21">
      <!-- 0.2 -->
      <g transform="translate(0.312694 220.719271)scale(0.07 -0.07)">
       <use xlink:href="#DejaVuSans-30"/>
       <use xlink:href="#DejaVuSans-2e" x="63.623047"/>
       <use xlink:href="#DejaVuSans-32" x="95.410156"/>
      </g>
     </g>
    </g>
    <g id="ytick_10">
     <g id="line2d_20">
      <g>
       <use xlink:href="#mde1669a9d1" x="15.944882" y="201.036578" style="stroke: #000000; stroke-width: 0.8"/>
      </g>
     </g>
     <g id="text_22">
      <!-- 0.3 -->
      <g transform="translate(0.312694 203.696031)scale(0.07 -0.07)">
       <use xlink:href="#DejaVuSans-30"/>
       <use xlink:href="#DejaVuSans-2e" x="63.623047"/>
       <use xlink:href="#DejaVuSans-33" x="95.410156"/>
      </g>
     </g>
    </g>
    <g id="ytick_11">
     <g id="line2d_21">
      <g>
       <use xlink:href="#mde1669a9d1" x="15.944882" y="184.013337" style="stroke: #000000; stroke-width: 0.8"/>
      </g>
     </g>
     <g id="text_23">
      <!-- 0.4 -->
      <g transform="translate(0.312694 186.67279)scale(0.07 -0.07)">
       <use xlink:href="#DejaVuSans-30"/>
       <use xlink:href="#DejaVuSans-2e" x="63.623047"/>
       <use xlink:href="#DejaVuSans-34" x="95.410156"/>
      </g>
     </g>
    </g>
    <g id="ytick_12">
     <g id="line2d_22">
      <g>
       <use xlink:href="#mde1669a9d1" x="15.944882" y="166.990097" style="stroke: #000000; stroke-width: 0.8"/>
      </g>
     </g>
     <g id="text_24">
      <!-- 0.5 -->
      <g transform="translate(0.312694 169.64955)scale(0.07 -0.07)">
       <use xlink:href="#DejaVuSans-30"/>
       <use xlink:href="#DejaVuSans-2e" x="63.623047"/>
       <use xlink:href="#DejaVuSans-35" x="95.410156"/>
      </g>
     </g>
    </g>
   </g>
   <g id="patch_56">
    <path d="M 15.944882 252.106299 
L 15.944882 153.248031 
" style="fill: none; stroke: #000000; stroke-width: 0.8; stroke-linejoin: miter; stroke-linecap: square"/>
   </g>
   <g id="patch_57">
    <path d="M 15.944882 252.106299 
L 114.80315 252.106299 
" style="fill: none; stroke: #000000; stroke-width: 0.8; stroke-linejoin: miter; stroke-linecap: square"/>
   </g>
   <g id="text_25">
    <!-- PITX3 -->
    <g transform="translate(53.488016 158.248031)scale(0.084 -0.084)">
     <defs>
      <path id="DejaVuSans-50" d="M 1259 4147 
L 1259 2394 
L 2053 2394 
Q 2494 2394 2734 2622 
Q 2975 2850 2975 3272 
Q 2975 3691 2734 3919 
Q 2494 4147 2053 4147 
L 1259 4147 
z
M 628 4666 
L 2053 4666 
Q 2838 4666 3239 4311 
Q 3641 3956 3641 3272 
Q 3641 2581 3239 2228 
Q 2838 1875 2053 1875 
L 1259 1875 
L 1259 0 
L 628 0 
L 628 4666 
z
" transform="scale(0.015625)"/>
      <path id="DejaVuSans-49" d="M 628 4666 
L 1259 4666 
L 1259 0 
L 628 0 
L 628 4666 
z
" transform="scale(0.015625)"/>
      <path id="DejaVuSans-54" d="M -19 4666 
L 3928 4666 
L 3928 4134 
L 2272 4134 
L 2272 0 
L 1638 0 
L 1638 4134 
L -19 4134 
L -19 4666 
z
" transform="scale(0.015625)"/>
      <path id="DejaVuSans-58" d="M 403 4666 
L 1081 4666 
L 2241 2931 
L 3406 4666 
L 4084 4666 
L 2584 2425 
L 4184 0 
L 3506 0 
L 2194 1984 
L 872 0 
L 191 0 
L 1856 2491 
L 403 4666 
z
" transform="scale(0.015625)"/>
     </defs>
     <use xlink:href="#DejaVuSans-50"/>
     <use xlink:href="#DejaVuSans-49" x="60.302734"/>
     <use xlink:href="#DejaVuSans-54" x="89.794922"/>
     <use xlink:href="#DejaVuSans-58" x="150.878906"/>
     <use xlink:href="#DejaVuSans-33" x="219.384766"/>
    </g>
   </g>
  </g>
 </g>
 <defs>
  <clipPath id="pd9c16666fe">
   <rect x="15.944882" y="34.192913" width="98.858268" height="98.858268"/>
  </clipPath>
  <clipPath id="p4c87f23603">
   <rect x="15.944882" y="153.248031" width="98.858268" height="98.858268"/>
  </clipPath>
 </defs>
</svg>
