<svg id="Layer_1" data-name="Layer 1" xmlns="http://www.w3.org/2000/svg" viewBox="0 0 342 133.36"><defs><style>.cls-1{fill:#fff;}.cls-2{fill:#defcf3;}.cls-3{fill:#6bcaaf;}</style></defs><rect class="cls-1" width="342" height="132"/><rect class="cls-2" y="83.5" width="342" height="5"/><rect class="cls-3" x="131.5" y="76.5" width="79" height="19" rx="3.67"/><rect class="cls-2" x="242" y="76.61" width="95" height="19" rx="3.67"/><rect class="cls-2" x="6.86" y="76.61" width="79.14" height="19" rx="3.67"/><path d="M647.58,404a1.88,1.88,0,0,0,2,1.8c.8,0,2-.24,2-1.3s-1.06-1.2-2.11-1.42-2.12-.49-2.12-1.75,1.18-1.58,2.23-1.58c1.3,0,2.28.56,2.28,2h-.46c0-1.11-.79-1.57-1.82-1.57-.84,0-1.78.31-1.78,1.19s1.06,1.14,2.05,1.35c1.23.23,2.19.52,2.19,1.82s-1.34,1.7-2.41,1.7a2.23,2.23,0,0,1-2.5-2.2Z" transform="translate(-511.65 -317.46)"/><path d="M653.31,403c0,1.45.75,2.77,2.27,2.77a2.13,2.13,0,0,0,2.21-1.83h.45a2.48,2.48,0,0,1-2.66,2.23c-1.8,0-2.75-1.42-2.72-3.12s.86-3.33,2.72-3.33,2.79,1.52,2.71,3.28Zm4.52-.39a2.34,2.34,0,0,0-2.25-2.5,2.48,2.48,0,0,0-2.27,2.5Z" transform="translate(-511.65 -317.46)"/><path d="M659.92,397.5v8.56h-.45V397.5Z" transform="translate(-511.65 -317.46)"/><path d="M661.56,403c0,1.45.74,2.77,2.26,2.77A2.13,2.13,0,0,0,666,404h.46a2.49,2.49,0,0,1-2.67,2.23c-1.8,0-2.74-1.42-2.72-3.12s.86-3.33,2.72-3.33,2.8,1.52,2.71,3.28Zm4.52-.39a2.35,2.35,0,0,0-2.26-2.5,2.47,2.47,0,0,0-2.26,2.5Z" transform="translate(-511.65 -317.46)"/><path d="M672.25,401.81a1.87,1.87,0,0,0-2.09-1.66,2.52,2.52,0,0,0-2.38,2.77c0,1.67.78,2.89,2.38,2.89a2.13,2.13,0,0,0,2.15-1.92h.45a2.53,2.53,0,0,1-2.6,2.32c-2,0-2.83-1.57-2.83-3.29a2.87,2.87,0,0,1,2.83-3.16,2.27,2.27,0,0,1,2.54,2.05Z" transform="translate(-511.65 -317.46)"/><path d="M676.1,400.3h-1.34v4.3c0,1,.46,1.09,1.33,1.07v.39c-.94.06-1.84-.07-1.79-1.46v-4.3h-1.14v-.4h1.14V398h.46v1.92h1.34Z" transform="translate(-511.65 -317.46)"/><path d="M677.12,403c0,1.45.74,2.77,2.27,2.77a2.12,2.12,0,0,0,2.2-1.83h.46a2.48,2.48,0,0,1-2.66,2.23c-1.8,0-2.75-1.42-2.73-3.12s.87-3.33,2.73-3.33,2.79,1.52,2.71,3.28Zm4.52-.39a2.34,2.34,0,0,0-2.25-2.5,2.48,2.48,0,0,0-2.27,2.5Z" transform="translate(-511.65 -317.46)"/><path d="M687.93,404.75h0a2.48,2.48,0,0,1-2.37,1.46c-1.86,0-2.66-1.51-2.66-3.22s.89-3.23,2.75-3.23a2.34,2.34,0,0,1,2.28,1.52h0V397.5h.46v8.56h-.46Zm0-1.76c0-1.43-.71-2.84-2.29-2.84s-2.29,1.36-2.29,2.84.72,2.82,2.3,2.82S687.92,404.41,687.92,403Z" transform="translate(-511.65 -317.46)"/><path d="M698.27,399.9v5.84a2.4,2.4,0,0,1-2.66,2.68c-1.32,0-2.34-.5-2.41-1.92h.46c.09,1.09,1,1.52,2,1.52a2,2,0,0,0,2.2-2.17v-1.42h0a2.31,2.31,0,0,1-2.23,1.41c-1.81,0-2.66-1.33-2.66-3s.92-3,2.66-3a2.3,2.3,0,0,1,2.23,1.42h0V399.9Zm-4.91,2.89c0,1.45.75,2.65,2.2,2.65s2.25-1.26,2.25-2.65-.74-2.64-2.25-2.64A2.36,2.36,0,0,0,693.36,402.79Z" transform="translate(-511.65 -317.46)"/><path d="M699.8,403c0,1.45.74,2.77,2.27,2.77a2.12,2.12,0,0,0,2.2-1.83h.46a2.48,2.48,0,0,1-2.66,2.23c-1.8,0-2.75-1.42-2.73-3.12s.87-3.33,2.73-3.33,2.79,1.52,2.71,3.28Zm4.52-.39a2.34,2.34,0,0,0-2.25-2.5,2.48,2.48,0,0,0-2.27,2.5Z" transform="translate(-511.65 -317.46)"/><path d="M705.85,399.9h.45v1.32h0a2.28,2.28,0,0,1,2.2-1.46c2.18,0,2.2,1.74,2.2,2.49v3.81h-.46v-3.89c0-.64-.07-2-1.75-2-1.38,0-2.22,1.07-2.22,2.58v3.33h-.45Z" transform="translate(-511.65 -317.46)"/><path d="M712.26,403c0,1.45.74,2.77,2.26,2.77a2.13,2.13,0,0,0,2.21-1.83h.46a2.49,2.49,0,0,1-2.67,2.23c-1.8,0-2.74-1.42-2.72-3.12s.86-3.33,2.72-3.33,2.8,1.52,2.71,3.28Zm4.52-.39a2.35,2.35,0,0,0-2.26-2.5,2.47,2.47,0,0,0-2.26,2.5Z" transform="translate(-511.65 -317.46)"/><path d="M525.71,406.47h-.45v-1.32h0a2.27,2.27,0,0,1-2.2,1.46c-2.17,0-2.2-1.74-2.2-2.5V400.3h.46v3.9c0,.63.07,2,1.75,2,1.38,0,2.22-1.06,2.22-2.58V400.3h.45Z" transform="translate(-511.65 -317.46)"/><path d="M527.62,401.72h0a2.29,2.29,0,0,1,2.24-1.56c1.9,0,2.77,1.5,2.77,3.24s-.89,3.21-2.77,3.21a2.19,2.19,0,0,1-2.24-1.43h0v3.49h-.45V400.3h.45Zm4.59,1.68c0-1.41-.66-2.85-2.32-2.85s-2.25,1.38-2.25,2.85.51,2.81,2.25,2.81S532.21,404.92,532.21,403.4Z" transform="translate(-511.65 -317.46)"/><path d="M534,404.41a1.88,1.88,0,0,0,2,1.8c.8,0,2-.24,2-1.3s-1.05-1.2-2.11-1.42-2.12-.49-2.12-1.75,1.19-1.58,2.23-1.58c1.31,0,2.28.56,2.28,2h-.46c0-1.11-.79-1.57-1.82-1.57-.84,0-1.78.31-1.78,1.19s1.06,1.14,2.06,1.36c1.22.22,2.18.51,2.18,1.81s-1.33,1.7-2.41,1.7a2.23,2.23,0,0,1-2.5-2.2Z" transform="translate(-511.65 -317.46)"/><path d="M541.77,400.7h-1.34V405c0,1,.47,1.09,1.33,1.07v.4c-.94.06-1.84-.08-1.79-1.47v-4.3h-1.14v-.4H540v-1.92h.46v1.92h1.34Z" transform="translate(-511.65 -317.46)"/><path d="M543.07,401.67h0a2.36,2.36,0,0,1,2.37-1.41v.46a2.11,2.11,0,0,0-1.71.6,2.33,2.33,0,0,0-.69,1.78v3.37h-.46V400.3h.46Z" transform="translate(-511.65 -317.46)"/><path d="M546.13,403.44c0,1.45.74,2.77,2.27,2.77a2.12,2.12,0,0,0,2.2-1.83h.46a2.48,2.48,0,0,1-2.66,2.23c-1.8,0-2.75-1.42-2.73-3.12s.87-3.33,2.73-3.33,2.79,1.52,2.71,3.28Zm4.52-.39a2.34,2.34,0,0,0-2.25-2.5,2.47,2.47,0,0,0-2.27,2.5Z" transform="translate(-511.65 -317.46)"/><path d="M556.72,405.33c0,.36,0,.74.41.74a1.77,1.77,0,0,0,.34,0v.39a2.84,2.84,0,0,1-.38.05c-.72,0-.82-.4-.82-.9v-.33h0a2.37,2.37,0,0,1-2.29,1.37c-1.16,0-2.06-.44-2.06-1.74s1.25-1.74,2.27-1.82c2-.15,2.12-.28,2.12-1.29,0-.27-.31-1.21-1.72-1.21a1.69,1.69,0,0,0-1.89,1.65h-.46c.06-1.36.9-2,2.35-2,1.08,0,2.16.33,2.16,1.6Zm-.45-2.37c-.36.41-1.35.36-2.23.48-1.08.12-1.7.51-1.7,1.43,0,.74.54,1.34,1.62,1.34a2.14,2.14,0,0,0,2.31-2.1Z" transform="translate(-511.65 -317.46)"/><path d="M558.19,400.3h.45v1.26h0a2,2,0,0,1,1.93-1.4,1.72,1.72,0,0,1,1.86,1.3h0a2,2,0,0,1,2-1.3,1.83,1.83,0,0,1,1.93,2.1v4.21h-.46v-4.23c0-1.57-1.11-1.69-1.47-1.69-1.12,0-1.93.79-1.93,2.27v3.65h-.46v-4.23c0-1.54-1-1.69-1.45-1.69a2.05,2.05,0,0,0-2,2.27v3.65h-.45Z" transform="translate(-511.65 -317.46)"/><path d="M576.16,400.3v5.84a2.4,2.4,0,0,1-2.66,2.68c-1.32,0-2.34-.5-2.41-1.92h.45c.1,1.09,1,1.52,2,1.52a2,2,0,0,0,2.2-2.17v-1.42h0a2.31,2.31,0,0,1-2.23,1.41c-1.81,0-2.66-1.33-2.66-3.05s.92-3,2.66-3a2.3,2.3,0,0,1,2.23,1.42h0V400.3Zm-4.92,2.89c0,1.45.76,2.65,2.21,2.65s2.24-1.26,2.24-2.65-.73-2.64-2.24-2.64A2.36,2.36,0,0,0,571.24,403.19Z" transform="translate(-511.65 -317.46)"/><path d="M577.69,403.44c0,1.45.74,2.77,2.26,2.77a2.12,2.12,0,0,0,2.21-1.83h.46a2.49,2.49,0,0,1-2.67,2.23c-1.79,0-2.74-1.42-2.72-3.12s.87-3.33,2.72-3.33,2.8,1.52,2.72,3.28Zm4.52-.39a2.34,2.34,0,0,0-2.26-2.5,2.47,2.47,0,0,0-2.26,2.5Z" transform="translate(-511.65 -317.46)"/><path d="M583.74,400.3h.45v1.32h0a2.27,2.27,0,0,1,2.2-1.46c2.17,0,2.2,1.74,2.2,2.49v3.82h-.46v-3.9c0-.64-.07-2-1.75-2-1.38,0-2.22,1.07-2.22,2.58v3.34h-.45Z" transform="translate(-511.65 -317.46)"/><path d="M590.14,403.44c0,1.45.75,2.77,2.27,2.77a2.13,2.13,0,0,0,2.21-1.83h.45a2.48,2.48,0,0,1-2.66,2.23c-1.8,0-2.75-1.42-2.72-3.12s.86-3.33,2.72-3.33,2.8,1.52,2.71,3.28Zm4.53-.39a2.35,2.35,0,0,0-2.26-2.5,2.48,2.48,0,0,0-2.27,2.5Z" transform="translate(-511.65 -317.46)"/><path d="M761.39,405.15h0a2.46,2.46,0,0,1-2.36,1.46c-1.86,0-2.66-1.51-2.66-3.21s.89-3.24,2.74-3.24a2.33,2.33,0,0,1,2.28,1.52h0V397.9h.45v8.57h-.45Zm0-1.75c0-1.44-.7-2.85-2.29-2.85s-2.29,1.36-2.29,2.85.72,2.81,2.31,2.81S761.37,404.81,761.37,403.4Z" transform="translate(-511.65 -317.46)"/><path d="M765.84,400.16c1.81,0,2.83,1.47,2.83,3.22s-1,3.23-2.83,3.23-2.83-1.48-2.83-3.23S764,400.16,765.84,400.16Zm0,6c1.55,0,2.37-1.35,2.37-2.83s-.82-2.83-2.37-2.83-2.37,1.36-2.37,2.83S764.29,406.21,765.84,406.21Z" transform="translate(-511.65 -317.46)"/><path d="M771.28,405.94h0L773,400.3h.61l1.69,5.64h0L777,400.3h.51l-2,6.17H775l-1.69-5.59h0l-1.7,5.59H771l-2-6.17h.49Z" transform="translate(-511.65 -317.46)"/><path d="M778.19,400.3h.45v1.32h0a2.29,2.29,0,0,1,2.21-1.46c2.17,0,2.19,1.74,2.19,2.49v3.82h-.46v-3.9c0-.64-.07-2-1.75-2-1.38,0-2.22,1.07-2.22,2.58v3.34h-.45Z" transform="translate(-511.65 -317.46)"/><path d="M784.63,404.42a1.89,1.89,0,0,0,2,1.79c.81,0,2-.24,2-1.3s-1.06-1.2-2.11-1.42-2.13-.49-2.13-1.75,1.19-1.58,2.23-1.58c1.31,0,2.28.56,2.28,2h-.45c0-1.11-.79-1.57-1.83-1.57-.84,0-1.77.31-1.77,1.19s1,1.14,2,1.36c1.22.22,2.18.51,2.18,1.81s-1.33,1.7-2.41,1.7a2.22,2.22,0,0,1-2.49-2.19Z" transform="translate(-511.65 -317.46)"/><path d="M792.46,400.7h-1.35V405c0,1,.47,1.09,1.33,1.07v.4c-.93.06-1.83-.08-1.78-1.47v-4.3h-1.14v-.4h1.14v-1.92h.45v1.92h1.35Z" transform="translate(-511.65 -317.46)"/><path d="M793.75,401.67h0a2.33,2.33,0,0,1,2.36-1.4v.45a2.08,2.08,0,0,0-1.7.6,2.3,2.3,0,0,0-.7,1.78v3.37h-.45V400.3h.45Z" transform="translate(-511.65 -317.46)"/><path d="M796.81,403.44c0,1.45.75,2.77,2.27,2.77a2.13,2.13,0,0,0,2.21-1.83h.45a2.48,2.48,0,0,1-2.66,2.23c-1.8,0-2.75-1.42-2.72-3.12s.86-3.33,2.72-3.33,2.79,1.52,2.71,3.28Zm4.52-.39a2.34,2.34,0,0,0-2.25-2.5,2.48,2.48,0,0,0-2.27,2.5Z" transform="translate(-511.65 -317.46)"/><path d="M807.41,405.33c0,.36,0,.74.4.74a1.61,1.61,0,0,0,.34,0v.39a2.52,2.52,0,0,1-.37.05c-.72,0-.83-.4-.83-.9v-.33h0a2.38,2.38,0,0,1-2.29,1.37c-1.17,0-2.07-.44-2.07-1.74s1.25-1.74,2.27-1.82c2-.15,2.12-.28,2.12-1.29,0-.27-.31-1.21-1.71-1.21a1.69,1.69,0,0,0-1.9,1.65h-.45c.06-1.36.9-2,2.35-2,1.08,0,2.16.33,2.16,1.6ZM807,403c-.36.41-1.34.36-2.23.48-1.08.12-1.69.51-1.69,1.43,0,.74.54,1.34,1.62,1.34a2.14,2.14,0,0,0,2.3-2.09Z" transform="translate(-511.65 -317.46)"/><path d="M808.87,400.3h.46v1.26h0a2,2,0,0,1,1.93-1.4,1.71,1.71,0,0,1,1.86,1.3h0a2,2,0,0,1,2-1.3,1.83,1.83,0,0,1,1.93,2.1v4.21h-.45v-4.23c0-1.57-1.12-1.69-1.48-1.69-1.11,0-1.93.79-1.93,2.27v3.65h-.46v-4.23c0-1.54-1.05-1.69-1.45-1.69a2.05,2.05,0,0,0-1.95,2.27v3.65h-.46Z" transform="translate(-511.65 -317.46)"/><path d="M826.85,400.3v5.84a2.4,2.4,0,0,1-2.67,2.68c-1.32,0-2.34-.5-2.41-1.92h.46c.09,1.09,1,1.52,2,1.52a2,2,0,0,0,2.19-2.17v-1.42h0a2.32,2.32,0,0,1-2.23,1.41c-1.82,0-2.67-1.33-2.67-3.05s.93-3,2.67-3a2.32,2.32,0,0,1,2.23,1.42h0V400.3Zm-4.92,2.89c0,1.45.75,2.65,2.21,2.65s2.24-1.26,2.24-2.65-.73-2.64-2.24-2.64A2.36,2.36,0,0,0,821.93,403.19Z" transform="translate(-511.65 -317.46)"/><path d="M828.37,403.44c0,1.45.75,2.77,2.27,2.77a2.13,2.13,0,0,0,2.21-1.83h.45a2.48,2.48,0,0,1-2.66,2.23c-1.8,0-2.75-1.42-2.72-3.12s.86-3.33,2.72-3.33,2.79,1.52,2.71,3.28Zm4.52-.39a2.34,2.34,0,0,0-2.25-2.5,2.48,2.48,0,0,0-2.27,2.5Z" transform="translate(-511.65 -317.46)"/><path d="M834.42,400.3h.46v1.32h0a2.29,2.29,0,0,1,2.21-1.46c2.17,0,2.19,1.74,2.19,2.49v3.82h-.45v-3.9c0-.64-.08-2-1.75-2-1.38,0-2.22,1.07-2.22,2.58v3.34h-.46Z" transform="translate(-511.65 -317.46)"/><path d="M840.83,403.44c0,1.45.74,2.77,2.27,2.77a2.12,2.12,0,0,0,2.2-1.83h.46a2.48,2.48,0,0,1-2.66,2.23c-1.8,0-2.75-1.42-2.73-3.12s.87-3.33,2.73-3.33,2.79,1.52,2.71,3.28Zm4.52-.39a2.34,2.34,0,0,0-2.25-2.5,2.47,2.47,0,0,0-2.27,2.5Z" transform="translate(-511.65 -317.46)"/><polygon class="cls-3" points="243.5 118 84.5 118 84.5 100 87.5 100 87.5 115.8 240.5 115.8 240.5 100 243.5 100 243.5 118"/><path d="M642.06,446.41a1.88,1.88,0,0,0,2,1.8c.81,0,2-.24,2-1.3s-1.06-1.2-2.11-1.42-2.12-.49-2.12-1.75,1.18-1.58,2.23-1.58c1.3,0,2.28.56,2.28,2h-.46c0-1.11-.79-1.57-1.82-1.57-.84,0-1.78.31-1.78,1.19s1.06,1.14,2.05,1.36c1.23.22,2.19.51,2.19,1.81s-1.34,1.7-2.42,1.7a2.23,2.23,0,0,1-2.49-2.2Z" transform="translate(-511.65 -317.46)"/><path d="M647.79,445.44c0,1.45.75,2.77,2.27,2.77a2.13,2.13,0,0,0,2.21-1.83h.45a2.48,2.48,0,0,1-2.66,2.23c-1.8,0-2.75-1.42-2.72-3.12s.86-3.33,2.72-3.33,2.79,1.52,2.71,3.28Zm4.52-.39a2.34,2.34,0,0,0-2.25-2.5,2.48,2.48,0,0,0-2.27,2.5Z" transform="translate(-511.65 -317.46)"/><path d="M658.39,447.33c0,.36,0,.74.4.74a1.61,1.61,0,0,0,.34,0v.39a2.52,2.52,0,0,1-.37.05c-.72,0-.83-.4-.83-.9v-.33h0a2.38,2.38,0,0,1-2.29,1.37c-1.17,0-2.07-.44-2.07-1.74s1.25-1.74,2.27-1.82c2-.15,2.12-.28,2.12-1.29,0-.27-.31-1.21-1.71-1.21a1.69,1.69,0,0,0-1.9,1.65h-.45c.06-1.36.9-2,2.35-2,1.08,0,2.16.33,2.16,1.6Zm-.46-2.37c-.36.41-1.34.36-2.23.48-1.08.12-1.69.51-1.69,1.43,0,.74.54,1.34,1.62,1.34a2.14,2.14,0,0,0,2.3-2.1Z" transform="translate(-511.65 -317.46)"/><path d="M660.3,443.67h0a2.35,2.35,0,0,1,2.36-1.41v.46a2.08,2.08,0,0,0-1.7.6,2.29,2.29,0,0,0-.69,1.78v3.37h-.46V442.3h.46Z" transform="translate(-511.65 -317.46)"/><path d="M667.82,444.21a1.87,1.87,0,0,0-2.09-1.66,2.51,2.51,0,0,0-2.37,2.77c0,1.67.78,2.89,2.37,2.89a2.13,2.13,0,0,0,2.15-1.92h.45a2.53,2.53,0,0,1-2.6,2.32c-2,0-2.83-1.57-2.83-3.29a2.87,2.87,0,0,1,2.83-3.16,2.27,2.27,0,0,1,2.54,2Z" transform="translate(-511.65 -317.46)"/><path d="M669.86,439.9v3.72h0a2.3,2.3,0,0,1,2.21-1.46c2.17,0,2.19,1.74,2.19,2.49v3.82h-.45v-3.9c0-.64-.07-2-1.75-2-1.38,0-2.22,1.07-2.22,2.58v3.34h-.46V439.9Z" transform="translate(-511.65 -317.46)"/><path d="M679.42,443.67h0a2.35,2.35,0,0,1,2.36-1.41v.46a2.08,2.08,0,0,0-1.7.6,2.3,2.3,0,0,0-.7,1.78v3.37H679V442.3h.45Z" transform="translate(-511.65 -317.46)"/><path d="M682.48,445.44c0,1.45.75,2.77,2.27,2.77a2.13,2.13,0,0,0,2.21-1.83h.45a2.48,2.48,0,0,1-2.66,2.23c-1.8,0-2.75-1.42-2.72-3.12s.86-3.33,2.72-3.33,2.79,1.52,2.71,3.28Zm4.53-.39a2.35,2.35,0,0,0-2.26-2.5,2.48,2.48,0,0,0-2.27,2.5Z" transform="translate(-511.65 -317.46)"/><path d="M693.63,442.3v5.84a2.4,2.4,0,0,1-2.66,2.68c-1.32,0-2.34-.5-2.41-1.92H689c.1,1.09,1,1.52,2,1.52a2,2,0,0,0,2.19-2.17v-1.42h0a2.31,2.31,0,0,1-2.23,1.41c-1.81,0-2.66-1.33-2.66-3.05s.92-3,2.66-3a2.31,2.31,0,0,1,2.23,1.42h0V442.3Zm-4.92,2.89c0,1.45.76,2.65,2.21,2.65s2.24-1.26,2.24-2.65-.73-2.64-2.24-2.64A2.36,2.36,0,0,0,688.71,445.19Z" transform="translate(-511.65 -317.46)"/><path d="M695.08,441.14V439.9h.46v1.24Zm0,7.33V442.3h.46v6.17Z" transform="translate(-511.65 -317.46)"/><path d="M699.53,442.16c1.82,0,2.84,1.47,2.84,3.22s-1,3.23-2.84,3.23-2.83-1.48-2.83-3.23S697.72,442.16,699.53,442.16Zm0,6c1.55,0,2.38-1.35,2.38-2.83s-.83-2.83-2.38-2.83-2.37,1.36-2.37,2.83S698,448.21,699.53,448.21Z" transform="translate(-511.65 -317.46)"/><path d="M703.44,442.3h.45v1.32h0a2.27,2.27,0,0,1,2.2-1.46c2.17,0,2.2,1.74,2.2,2.49v3.82h-.46v-3.9c0-.64-.07-2-1.75-2-1.38,0-2.22,1.07-2.22,2.58v3.34h-.45Z" transform="translate(-511.65 -317.46)"/></svg>