<svg id="Layer_1" data-name="Layer 1" xmlns="http://www.w3.org/2000/svg" viewBox="0 0 342 133.8"><defs><style>.cls-1{fill:#fff;}.cls-2{fill:#defcf3;}.cls-3{fill:#6bcaaf;}.cls-4{fill:none;stroke:#6bcaaf;stroke-miterlimit:10;stroke-width:3px;}.cls-5{fill:#7ed1b9;}</style></defs><rect class="cls-1" width="342" height="132.22"/><rect class="cls-2" y="82.99" width="342" height="4.39"/><rect class="cls-3" x="131.5" y="76.84" width="79" height="16.69" rx="3.67"/><path d="M647.58,402.92a1.81,1.81,0,0,0,2,1.58c.81,0,2-.22,2-1.15s-1.06-1.06-2.11-1.25-2.12-.43-2.12-1.53,1.18-1.39,2.23-1.39c1.3,0,2.28.49,2.28,1.72h-.46c0-1-.79-1.38-1.82-1.38-.84,0-1.78.28-1.78,1.05s1.06,1,2.05,1.19c1.23.2,2.19.45,2.19,1.59s-1.34,1.49-2.42,1.49c-1.4,0-2.45-.66-2.49-1.92Z" transform="translate(-511.65 -317.24)"/><path d="M653.31,402.06a2.23,2.23,0,0,0,2.27,2.44,2.09,2.09,0,0,0,2.21-1.62h.45a2.41,2.41,0,0,1-2.66,2,2.55,2.55,0,0,1-2.72-2.74,2.67,2.67,0,0,1,2.72-2.92,2.53,2.53,0,0,1,2.71,2.88Zm4.52-.35a2.18,2.18,0,0,0-2.25-2.19,2.31,2.31,0,0,0-2.27,2.19Z" transform="translate(-511.65 -317.24)"/><path d="M659.92,397.2v7.52h-.45V397.2Z" transform="translate(-511.65 -317.24)"/><path d="M661.56,402.06a2.21,2.21,0,0,0,2.26,2.44,2.08,2.08,0,0,0,2.21-1.62h.46a2.41,2.41,0,0,1-2.67,2,2.55,2.55,0,0,1-2.72-2.74,2.67,2.67,0,0,1,2.72-2.92,2.53,2.53,0,0,1,2.71,2.88Zm4.52-.35a2.19,2.19,0,0,0-2.26-2.19,2.31,2.31,0,0,0-2.26,2.19Z" transform="translate(-511.65 -317.24)"/><path d="M672.25,401c-.09-1-1-1.46-2.09-1.46a2.33,2.33,0,0,0-2.38,2.44,2.27,2.27,0,0,0,2.38,2.54,2.05,2.05,0,0,0,2.15-1.69h.45a2.43,2.43,0,0,1-2.6,2,2.83,2.83,0,1,1,0-5.66c1.33,0,2.41.57,2.54,1.8Z" transform="translate(-511.65 -317.24)"/><path d="M676.1,399.65h-1.34v3.78c0,.88.46,1,1.33.94v.35c-.94,0-1.84-.07-1.79-1.29v-3.78h-1.14v-.35h1.14v-1.68h.46v1.68h1.34Z" transform="translate(-511.65 -317.24)"/><path d="M677.12,402.06a2.22,2.22,0,0,0,2.27,2.44,2.07,2.07,0,0,0,2.2-1.62h.46a2.41,2.41,0,0,1-2.66,2,2.56,2.56,0,0,1-2.73-2.74,2.68,2.68,0,0,1,2.73-2.92,2.53,2.53,0,0,1,2.71,2.88Zm4.52-.35a2.18,2.18,0,0,0-2.25-2.19,2.31,2.31,0,0,0-2.27,2.19Z" transform="translate(-511.65 -317.24)"/><path d="M687.93,403.56h0a2.72,2.72,0,0,1-5-1.54,2.59,2.59,0,0,1,2.75-2.84,2.36,2.36,0,0,1,2.28,1.33h0V397.2h.46v7.52h-.46Zm0-1.54a2.28,2.28,0,0,0-2.29-2.5,2.23,2.23,0,0,0-2.29,2.5,2.3,2.3,0,1,0,4.58,0Z" transform="translate(-511.65 -317.24)"/><path d="M698.27,399.3v5.13c0,.42,0,2.42-2.66,2.35-1.32,0-2.34-.43-2.41-1.68h.46c.09.95,1,1.33,2,1.33,2.16,0,2.2-1.54,2.2-1.9v-1.25h0a2.35,2.35,0,0,1-2.23,1.24,2.46,2.46,0,0,1-2.66-2.68,2.52,2.52,0,0,1,2.66-2.66,2.33,2.33,0,0,1,2.23,1.25h0V399.3Zm-4.91,2.54a2.13,2.13,0,0,0,2.2,2.33,2.33,2.33,0,1,0-2.2-2.33Z" transform="translate(-511.65 -317.24)"/><path d="M699.8,402.06a2.22,2.22,0,0,0,2.27,2.44,2.07,2.07,0,0,0,2.2-1.62h.46a2.41,2.41,0,0,1-2.66,2,2.56,2.56,0,0,1-2.73-2.74,2.68,2.68,0,0,1,2.73-2.92,2.53,2.53,0,0,1,2.71,2.88Zm4.52-.35a2.18,2.18,0,0,0-2.25-2.19,2.31,2.31,0,0,0-2.27,2.19Z" transform="translate(-511.65 -317.24)"/><path d="M705.85,399.3h.45v1.16h0a2.3,2.3,0,0,1,2.2-1.28c2.18,0,2.2,1.52,2.2,2.19v3.35h-.46v-3.43a1.56,1.56,0,0,0-1.75-1.77,2.11,2.11,0,0,0-2.22,2.27v2.93h-.45Z" transform="translate(-511.65 -317.24)"/><path d="M712.26,402.06a2.21,2.21,0,0,0,2.26,2.44,2.08,2.08,0,0,0,2.21-1.62h.46a2.41,2.41,0,0,1-2.67,2,2.55,2.55,0,0,1-2.72-2.74,2.67,2.67,0,0,1,2.72-2.92,2.53,2.53,0,0,1,2.71,2.88Zm4.52-.35a2.19,2.19,0,0,0-2.26-2.19,2.31,2.31,0,0,0-2.26,2.19Z" transform="translate(-511.65 -317.24)"/><polyline class="cls-4" points="78.26 97.48 78.26 117.68 263.26 117.68 263.26 97.48"/><path d="M649.39,447.18a1.81,1.81,0,0,0,2,1.58c.81,0,2-.21,2-1.15s-1.06-1.05-2.11-1.24-2.12-.43-2.12-1.54,1.18-1.39,2.23-1.39c1.3,0,2.27.49,2.27,1.73h-.45c0-1-.79-1.38-1.82-1.38-.84,0-1.78.27-1.78,1s1.06,1,2,1.19c1.23.2,2.18.45,2.18,1.59s-1.33,1.5-2.41,1.5c-1.4,0-2.45-.67-2.49-1.93Z" transform="translate(-511.65 -317.24)"/><path d="M655.12,446.32a2.22,2.22,0,0,0,2.27,2.44,2.06,2.06,0,0,0,2.2-1.61h.46a2.42,2.42,0,0,1-2.66,2,2.55,2.55,0,0,1-2.72-2.74,2.67,2.67,0,0,1,2.72-2.93,2.54,2.54,0,0,1,2.71,2.88Zm4.52-.34a2.17,2.17,0,0,0-2.25-2.19,2.31,2.31,0,0,0-2.27,2.19Z" transform="translate(-511.65 -317.24)"/><path d="M665.71,448c0,.31,0,.65.41.65l.34,0v.34a2.46,2.46,0,0,1-.37,0c-.72,0-.83-.35-.83-.79v-.28h0a2.44,2.44,0,0,1-2.3,1.2c-1.16,0-2.06-.39-2.06-1.53s1.25-1.53,2.27-1.6c2-.13,2.12-.24,2.12-1.13,0-.24-.31-1.06-1.71-1.06-1.11,0-1.84.5-1.9,1.44h-.45c.06-1.19.89-1.79,2.35-1.79,1.08,0,2.15.29,2.15,1.41Zm-.45-2.08c-.36.36-1.34.32-2.23.42-1.08.11-1.69.45-1.69,1.26,0,.65.54,1.18,1.62,1.18a2,2,0,0,0,2.3-1.85Z" transform="translate(-511.65 -317.24)"/><path d="M667.63,444.77h0a2.39,2.39,0,0,1,2.36-1.24v.4a2.29,2.29,0,0,0-1.7.53,1.87,1.87,0,0,0-.69,1.56v3h-.46v-5.41h.46Z" transform="translate(-511.65 -317.24)"/><path d="M675.15,445.24c-.09-1-1-1.45-2.09-1.45a2.32,2.32,0,0,0-2.37,2.43,2.26,2.26,0,0,0,2.37,2.54,2.05,2.05,0,0,0,2.15-1.69h.45a2.44,2.44,0,0,1-2.6,2,2.84,2.84,0,0,1,0-5.67c1.33,0,2.41.57,2.54,1.8Z" transform="translate(-511.65 -317.24)"/><path d="M677.19,441.46v3.26h0a2.32,2.32,0,0,1,2.21-1.28c2.17,0,2.19,1.53,2.19,2.19V449h-.45v-3.42a1.55,1.55,0,0,0-1.75-1.77,2.1,2.1,0,0,0-2.22,2.26V449h-.46v-7.52Z" transform="translate(-511.65 -317.24)"/><path d="M686.75,444.77h0a2.39,2.39,0,0,1,2.36-1.24v.4a2.29,2.29,0,0,0-1.7.53,1.9,1.9,0,0,0-.7,1.56v3h-.45v-5.41h.45Z" transform="translate(-511.65 -317.24)"/><path d="M689.81,446.32a2.23,2.23,0,0,0,2.27,2.44,2.08,2.08,0,0,0,2.21-1.61h.45a2.42,2.42,0,0,1-2.66,2,2.55,2.55,0,0,1-2.72-2.74,2.67,2.67,0,0,1,2.72-2.93,2.54,2.54,0,0,1,2.71,2.88Zm4.52-.34a2.17,2.17,0,0,0-2.25-2.19,2.31,2.31,0,0,0-2.27,2.19Z" transform="translate(-511.65 -317.24)"/><path d="M701,443.57v5.12c0,.43,0,2.43-2.66,2.35-1.32,0-2.34-.43-2.41-1.68h.45c.1,1,1,1.34,2,1.34,2.16,0,2.19-1.55,2.19-1.91v-1.24h0a2.36,2.36,0,0,1-2.23,1.23,2.46,2.46,0,0,1-2.66-2.68,2.52,2.52,0,0,1,2.66-2.66,2.34,2.34,0,0,1,2.23,1.25h0v-1.12ZM696,446.1a2.23,2.23,0,1,0,2.21-2.31A2.17,2.17,0,0,0,696,446.1Z" transform="translate(-511.65 -317.24)"/><path d="M702.41,442.54v-1.08h.46v1.08Zm0,6.44v-5.41h.46V449Z" transform="translate(-511.65 -317.24)"/><path d="M706.86,443.44a2.84,2.84,0,1,1-2.83,2.83A2.7,2.7,0,0,1,706.86,443.44Zm0,5.32a2.49,2.49,0,1,0-2.37-2.49A2.34,2.34,0,0,0,706.86,448.76Z" transform="translate(-511.65 -317.24)"/><path d="M710.77,443.57h.45v1.15h0a2.32,2.32,0,0,1,2.21-1.28c2.17,0,2.2,1.53,2.2,2.19V449h-.46v-3.42a1.55,1.55,0,0,0-1.75-1.77,2.1,2.1,0,0,0-2.22,2.26V449h-.45Z" transform="translate(-511.65 -317.24)"/><polygon class="cls-5" points="210.26 83.22 247.99 83.22 245.89 78.88 263.26 85.32 245.89 91.75 247.99 87.41 210.26 87.41 210.26 83.22"/><polygon class="cls-5" points="131.26 86.97 93.52 86.97 95.62 91.31 78.26 84.88 95.62 78.44 93.52 82.79 131.26 82.79 131.26 86.97"/><path d="M764.51,384.82H765V386h0a2.32,2.32,0,0,1,2.21-1.28c2.17,0,2.19,1.52,2.19,2.19v3.35h-.45v-3.43a1.56,1.56,0,0,0-1.75-1.77,2.11,2.11,0,0,0-2.22,2.27v2.93h-.46Z" transform="translate(-511.65 -317.24)"/><path d="M774.1,382.72h.46v5l3.8-2.88H779l-2.7,2,2.89,3.39h-.62L776,387.15l-1.4,1v2.05h-.46Z" transform="translate(-511.65 -317.24)"/><path d="M779.74,382.72h.46V386h0a2.45,2.45,0,0,1,2.34-1.27,2.49,2.49,0,0,1,2.67,2.7c0,2.58-1.82,3-2.67,3a2.39,2.39,0,0,1-2.34-1.33h0v1.21h-.46Zm5,4.68a2.2,2.2,0,0,0-2.22-2.36,2.15,2.15,0,0,0-2.35,2.36,2.33,2.33,0,0,0,2.35,2.62C784.18,390,784.78,388.65,784.78,387.4Z" transform="translate(-511.65 -317.24)"/><path d="M588.22,384.82h.46V386h0a2.32,2.32,0,0,1,2.21-1.28c2.17,0,2.2,1.52,2.2,2.19v3.35h-.46v-3.43A1.56,1.56,0,0,0,590.9,385a2.11,2.11,0,0,0-2.22,2.27v2.93h-.46Z" transform="translate(-511.65 -317.24)"/><path d="M597.81,382.72h.46v5l3.8-2.88h.66l-2.7,2,2.89,3.39h-.62l-2.63-3.09-1.4,1v2.05h-.46Z" transform="translate(-511.65 -317.24)"/><path d="M603.45,382.72h.46V386h0a2.46,2.46,0,0,1,2.34-1.27,2.5,2.5,0,0,1,2.68,2.7c0,2.58-1.83,3-2.68,3a2.39,2.39,0,0,1-2.34-1.33h0v1.21h-.46Zm5,4.68a2.2,2.2,0,0,0-2.22-2.36,2.15,2.15,0,0,0-2.35,2.36,2.33,2.33,0,0,0,2.35,2.62C607.89,390,608.49,388.65,608.49,387.4Z" transform="translate(-511.65 -317.24)"/></svg>