<svg id="Layer_1" data-name="Layer 1" xmlns="http://www.w3.org/2000/svg" viewBox="0 0 835 575.69"><defs><style>.cls-1{fill:#c9ece2;}.cls-2{fill:#a9b7b3;}.cls-3{fill:#6bcaaf;}.cls-4{fill:#e1f4ef;}.cls-5{fill:#9adbc9;}.cls-6,.cls-8{fill:#367d69;}.cls-7{fill:#4b9c85;}.cls-8{font-size:55px;font-family:ArialMT, Arial;}</style></defs><rect class="cls-1" x="3.5" y="3.5" width="828" height="568.69" rx="12"/><polygon class="cls-2" points="570.94 158.91 649.85 295.59 492.03 295.59 570.94 158.91"/><polygon class="cls-3" points="570.94 432.26 492.03 295.59 649.85 295.59 570.94 432.26"/><polygon class="cls-1" points="492.03 295.59 413.12 158.91 570.94 158.91 492.03 295.59"/><polygon class="cls-4" points="570.94 158.91 413.12 158.91 570.94 68.64 570.94 158.91"/><polygon class="cls-1" points="570.94 158.91 728.76 158.91 570.94 68.64 570.94 158.91"/><polygon class="cls-5" points="492.03 295.59 570.94 432.26 413.12 340.98 492.03 295.59"/><polygon class="cls-4" points="492.03 295.59 413.12 340.98 413.12 158.91 492.03 295.59"/><polygon class="cls-6" points="649.85 295.59 570.94 432.26 728.76 340.98 649.85 295.59"/><polygon class="cls-7" points="649.85 295.59 728.76 340.98 728.76 158.91 649.85 295.59"/><path class="cls-4" d="M373.6,321.68l-1.67,1.84v-1.28h-5.45v7.27c-3.28,3.6-6.52,7.14-9.63,10.4V329.72h-5.46v15.74c-2.39,2.35-4.64,4.43-6.7,6.11V337.25h-5v17.81c-2,1.06-3.61,1.43-4.78.87a37.83,37.83,0,0,1-4.11-2.37v-9.47h-5v5.4a31.69,31.69,0,0,1-3.51-4.1v15.54c11.42,7.66,23,4.72,34.62-3.82,7.11-4.86,16.54-14.48,26.51-25.24Z" transform="translate(-318.77 -52.27)"/><path class="cls-5" d="M449.57,342.56s-2.32,1.95-4.86,4.11v-5.09h-5.45v9.77c-3.68,3.18-7.16,6.27-7.95,7.22-.38.45-1.24.31-2.58-.41h1.45V335.11h-5.46v20.32q-3.51-2.73-8.9-7.66V327.2h-5.45v15.48q-4.1-3.87-9-8.69v-9.33h-5.45v3.95l-4.23-4.21c-25.08-25.08-19.26-16-37.07-19.26S322.27,320,322.27,320v21.44c0-.83,1.34-2.66,3.51-5v7.64h5V331.38c2.68-2.56,5.76-5.34,8.89-8v13.89h5V319.19c2.38-1.92,4.66-3.68,6.7-5.15v15.68h5.46V310.55a7.72,7.72,0,0,1,1.77-.69c1.27-.23,4.14,1.77,7.86,5.06v7.42h5.45V320c13.58,13.3,32.12,34.9,32.12,34.9,17.08,9.45,14.18,7.64,28,8.86S458.29,352,458.29,352Z" transform="translate(-318.77 -52.27)"/><path class="cls-5" d="M885.1,344.39c-1.23,1.42-2.23,2.73-3.14,3.93v-6.39h-5.45V354a16.83,16.83,0,0,1-8,2.19,9.14,9.14,0,0,1-1.17,0V336.81h-5.45v17.28c-3-2.35-5.92-4.84-8.81-7.43V329.48h-5.45v12.13c-3-2.9-6-5.92-8.91-9v-11.8h-5.45v5.81l-.41-.45L826.4,337.4c27.44,28.23,37.39,26.24,50.79,24.94a23.94,23.94,0,0,0,16.72-9l.09-.11Z" transform="translate(-318.77 -52.27)"/><path class="cls-5" d="M917.27,311.23c-7.38,5.52-15,13.83-22.81,23.53l10.9,10.81,2.12-2.85h4.2v-5.44c2.7-3.4,5.47-6.66,8.36-9.68V335h5.45v-12.7a63.57,63.57,0,0,1,8.63-6.43v12h5.45V313l.4-.19a6.55,6.55,0,0,1,6.39.59c1.11.76,2.24,1.63,3.39,2.58v8.32h5.45v-3.36c1.28,1.25,2.57,2.55,3.86,3.92V308.59C944.1,302.51,929.93,301.8,917.27,311.23Z" transform="translate(-318.77 -52.27)"/><path class="cls-4" d="M409.63,305c1.07.08,2.15.13,3.22.13,14.73,0,25.31,7.5,34.64,17.83,3.39,3.75,6.79,7.42,10.4,10.88q4.71,4.51,9.65,9.2c.23.22.47.43.71.64v-2.09h5.45v6.71c3.09,2.52,6.23,4.93,9.45,7.23V346.4h5.45v12.86c2.86,1.87,5.76,3.66,8.73,5.35V352.18h5.45v15.4q4.8,2.51,9.81,4.67V359.08H518v15.39q4.37,1.68,8.86,3.09l.32.09v-12.8h5.45v14.36q4,1.17,7.86,2.45V369.21H546v14.3c3.43,1.2,6.8,2.47,10.14,3.8V375.48h5.45v14.06q4.32,1.83,8.54,3.8V382.91h5.45v13q5.4,2.69,10.63,5.59v-9h5.46v12.31a83.67,83.67,0,0,1,8.36,6.28V404.5h5.45v11.76c.9.93,1.78,1.88,2.64,2.87a59.77,59.77,0,0,0,6.64,6.6v-2.28h5.45v6.1a22,22,0,0,0,8.73,2.88V418.24h5.45v14.1l10.17-.57V413.82H650v17.64l7.45-.41V413.48h5.45v17.26l11.21-.62V412.41h5.45v17.4l13.33-.74V412.41h5.45v16.35l10.42-.58V412.41h5.45v15.47l12-.67v-15h5.46V426.9l13.05-.73c.91,0,1.81-.07,2.7-.16V411.18h5.45V425c7.49-2.11,14.11-7.09,19.79-15.24V394.19h5.45v6.18q1.78-3.67,3.41-7.91c.82-1.94,1.66-3.89,2.5-5.83V373h5.45v1.35q3.43-7.5,7.09-15V344.55H802v3.93c1.14-2.23,2.29-4.45,3.45-6.68V329.94h5.46v1.6l.31-.6c8.11-13,17.8-21.4,29.44-24.29A36.4,36.4,0,0,1,874.39,316l31,29.59c.29.39.58.76.87,1.13v-4h5.45V352.8c3,2.79,5.77,4.46,8.36,4.81V335h5.45V356.1a11.08,11.08,0,0,0,1.48-1.38,96,96,0,0,1,7.15-7V328h5.45V342.5c3.39-3.44,6.78-7.22,10.18-11.26V324.3h5.45v.28q1.93-2.41,3.86-4.9V342.3c-12.14,16.87-27,24.18-44.43,22.54-11.46-4.19-22-11.57-31.26-22.9L882,340.45v1.48h-5.45V334.7L867.33,325v11.79h-5.45V319.27l0,0-8.77-6.06v16.32h-5.45V311.25a6.87,6.87,0,0,0-4.71,2.31c-1.42,1.62-2.82,3.32-4.2,5.07v2.14h-1.63a181.19,181.19,0,0,0-17.5,29.17c-12.67,21.09-24.19,45.29-34.71,72.14-5.72,16.58-22.65,20.45-44.43,18.81l-78.33-1.09c-25-.08-52.63,1.42-59.52-9.9-13-13.91-27.07-25.3-43.16-31.53a545.41,545.41,0,0,0-54.52-20.81c-17.75-5.69-33.89-11.92-42.34-20.72-6-6.84-11.92-13.31-17.86-19.26v4h-5.45v-9.31q-4.54-4.32-9.08-8.15v11h-5.46v-15.4q-4.46-3.45-8.9-6.34V327.2h-5.45V311.15a5.19,5.19,0,0,0-2.57.94l-6.43,4.67v7.9h-5.45v-4L391.33,324l-10-9.64C387.57,306.77,397.34,304.13,409.63,305Z" transform="translate(-318.77 -52.27)"/><path class="cls-5" d="M823.67,315.68c-32.16-33.94-65.5-61.53-102.13-71.42-23.9-7.18-47.35-11.65-70-11.55-2.87,0-5.73,0-8.58-.17-15.72-.89-35.84,1.61-57.34,5.18-23.94,4.63-48,15.89-72.21,37.61-17.75,15.61-36.64,35.91-55.5,58.5l9.64,9.21,1.31-1.46h4.86V336.2q9.15-10.06,17.58-18.85v8.89h14.3V302.85q6.17-6.08,11.93-11.44v23.67h14.3V278.64q2.52-2.16,5-4.17v23.41h14.29v-34.5q6.67-4.83,12.72-8.55v30.93h14.3V247a98.7,98.7,0,0,1,14.24-5.49l.18,0v34.7H606.8V238.42c8.55-1.6,17.16-2.8,25.83-3.54v38.68h14.3v-39.4c.51,0,1,0,1.52.09a221.72,221.72,0,0,1,24.3,3.54v38.59h14.3v-35.2a228.57,228.57,0,0,1,28,9.62l.14.06v25.52h14.3V257.52a233.22,233.22,0,0,1,22.41,12.53v24.52h14.3V280.29a129.3,129.3,0,0,1,15.91,15l.19.18v18.7h14.29V309l6.19,5.84V323h5.45v-3l6.22,5.88Z" transform="translate(-318.77 -52.27)"/><polygon class="cls-5" points="649.85 295.59 570.94 158.91 728.76 158.91 649.85 295.59"/><path class="cls-6" d="M758.79,382.92a830.8,830.8,0,0,0-85-2.18c-20.78.17-41.29.05-52.34,12.36l-50.52,48.75c-72.69,47.57-151.56,86.91-248.61,102.09v11.63c25.14-3.86,51.12-10.12,77.66-18v21.72h5.45V536q5-1.51,10.06-3.11v21.31h5.45v-23q5.75-1.85,11.51-3.77v22.83h5.45V525.52q5.44-1.85,10.91-3.75v18.47h5.45V519.85l9.33-3.33v17.6H469V514.19q5.56-2.46,11-5v18.43h5.45v-21q5-2.37,9.93-4.79v19h5.45V499.14q6-3,11.76-6.11v15.23h5.45V490.08q5.27-2.88,10.42-5.85v17.48h5.45V481q5.77-3.44,11.39-7v15h5.45V470.58q5.16-3.34,10.18-6.8v15.64h5.45V460a368.4,368.4,0,0,0,48.34-40.76v4.25h5.45v-9.89c1.61-1.71,3.21-3.42,4.77-5.16,1.36-1.51,2.67-3.08,4-4.66v14.5h5.45V397a24.41,24.41,0,0,1,10.17-5.9v21.64H650v-23.1c2.31-.49,4.8-.89,7.45-1.21v23.75h5.45V388c3.52-.27,7.26-.42,11.21-.49v23.39h5.45V387.42c4.25,0,8.71.09,13.33.22v23.21h5.45v-23q5.1.18,10.42.41v22.62h5.45V388.46l12,.5v20.92h5.46v-20.7c5.17.19,10.43.36,15.75.48v19.73h5.45V389.76l5.93.07Z" transform="translate(-318.77 -52.27)"/><text class="cls-8" transform="translate(425.39 528.38)">Start Designing</text><path class="cls-6" d="M1138.27,628h-804a15.51,15.51,0,0,1-15.5-15.5V67.77a15.52,15.52,0,0,1,15.5-15.5h804a15.52,15.52,0,0,1,15.5,15.5V612.46A15.51,15.51,0,0,1,1138.27,628Zm-804-568.69a8.51,8.51,0,0,0-8.5,8.5V612.46a8.51,8.51,0,0,0,8.5,8.5h804a8.51,8.51,0,0,0,8.5-8.5V67.77a8.51,8.51,0,0,0-8.5-8.5Z" transform="translate(-318.77 -52.27)"/></svg>