<svg id="Layer_1" data-name="Layer 1" xmlns="http://www.w3.org/2000/svg" viewBox="0 0 1181.49 403.72"><defs><style>.cls-1{stroke:#000;stroke-miterlimit:10;stroke-width:3px;}.cls-2{fill:#6bcaaf;}</style></defs><path class="cls-1" d="M419.74,250h10v29h.53c6.86-20.33,27.45-32.21,48.57-32.21,47.79,0,48.32,38.28,48.32,54.91v84h-10v-85.8c0-14-1.59-44.36-38.55-44.36-30.36,0-48.84,23.5-48.84,56.76v73.4h-10Z" transform="translate(-23.56 -35.29)"/><path class="cls-1" d="M538.27,207.25v-10H682.68v10H616.15V385.72H604.54V207.25Z" transform="translate(-23.56 -35.29)"/><path class="cls-1" d="M769.54,360.64c0,7.92,0,16.37,9,16.37a47.13,47.13,0,0,0,7.39-.8v8.45a46.35,46.35,0,0,1-8.19,1.06c-15.84,0-18.21-8.71-18.21-19.8v-7.13H759c-6.34,16.1-24.55,30.1-50.43,30.1-25.61,0-45.41-9.77-45.41-38.28,0-31.69,27.46-38.29,49.9-40.13,44.88-3.17,46.73-6.08,46.73-28.25,0-6.07-6.86-26.67-37.75-26.67-24.29,0-40.4,12.68-41.72,36.17h-10c1.32-29.83,19.8-44.88,51.75-44.88,23.76,0,47.52,7.39,47.52,35.38Zm-10-52c-7.92,9-29.57,7.92-49.11,10.56-23.76,2.64-37.22,11.09-37.22,31.42,0,16.36,11.88,29.56,35.64,29.56,45.67,0,50.69-39.07,50.69-46.2Z" transform="translate(-23.56 -35.29)"/><path class="cls-1" d="M811.51,280.12h.79c5.28-17.69,27.46-32,52-30.89v10a45.91,45.91,0,0,0-37.49,13.2c-10,10.3-14.25,18.74-15.31,39.07v74.19h-10V250h10Z" transform="translate(-23.56 -35.29)"/><path class="cls-1" d="M987.07,250V378.59c0,10.56,0,60.72-58.61,58.87-29,0-51.48-10.82-53.06-42.24h10c2.11,24,21.12,33.53,43.3,33.53,47.52,0,48.31-38.81,48.31-47.78V349.81h-.53c-9.5,20.07-26.13,30.89-49.1,30.89-39.87,0-58.61-29.3-58.61-67.06,0-35.9,20.33-66.79,58.61-66.79,21.12,0,41.71,11.09,49.1,31.42H977V250ZM878.83,313.64c0,31.95,16.63,58.35,48.58,58.35,33,0,49.37-27.72,49.37-58.35,0-30.36-16.11-58.08-49.37-58.08C894.67,255.56,878.83,284.87,878.83,313.64Z" transform="translate(-23.56 -35.29)"/><path class="cls-1" d="M1020.6,319.19c-.53,31.94,16.36,61,49.89,61,25.61,0,43.83-15.31,48.58-40.39h10c-5.28,31.68-26.4,49.11-58.61,49.11-39.6,0-60.45-31.16-59.93-68.64-.52-37.23,19-73.4,59.93-73.4,42.51,0,61.52,33.53,59.67,72.34Zm99.53-8.71c-.53-28.52-18.48-54.92-49.64-54.92-30.09,0-47.78,28-49.89,54.92Z" transform="translate(-23.56 -35.29)"/><path class="cls-1" d="M1203.55,258.73H1174v94.78c0,21.91,10.3,24,29.31,23.5v8.71c-20.6,1.32-40.4-1.59-39.34-32.21V258.73h-25.08V250H1164V207.78h10V250h29.57Z" transform="translate(-23.56 -35.29)"/><path d="M298.63,398.89c-1.26,0-2.52,0-3.78-.1a92.37,92.37,0,0,1-53.65-20.05c-25.72-20.4-34.55-56.1-21.49-86.83a194.41,194.41,0,0,1,56.42-74.74c26.85-22,65.72-22.49,92.43-1.13h0q1.2,1,2.37,2a73.65,73.65,0,0,1,24.59,67c-5.44,35.25-20,65.7-43.28,90.5A73.52,73.52,0,0,1,298.63,398.89Zm24.68-184.58A60.4,60.4,0,0,0,285,228a180.44,180.44,0,0,0-52.41,69.38c-10.61,24.95-3.5,53.9,17.3,70.39,13.31,10.56,28.26,16.13,45.68,17A59.48,59.48,0,0,0,342,365.9c21.3-22.7,34.64-50.65,39.65-83.06a59.56,59.56,0,0,0-19.84-54.19c-.67-.57-1.35-1.13-2-1.68h0A58.33,58.33,0,0,0,323.31,214.31Z" transform="translate(-23.56 -35.29)"/><circle cx="297.18" cy="232.35" r="31.47"/><path class="cls-2" d="M225,202.07c-14.35,0-25.73-4.45-32.87-13.23-10.3-12.65-15.75-39.13,16.84-93.44q1.4-2.33,2.8-4.73c8.85-15,18.87-31.93,37.29-43.15C270,34.77,297.91,32,334.34,39.13q1.32.25,2.61.54c40.37,9,56.83,43.13,55.24,73-1.62,30.17-21.82,62.69-63.32,67.34l-7.79.87C301,183.13,280.59,188,258.7,195.6,246.34,199.93,235,202.07,225,202.07ZM297.94,49.23c-45.4,0-59.94,24.62-74.08,48.57q-1.44,2.43-2.86,4.8C199.16,139,192.6,167.22,203,180c8,9.87,27.12,10.76,51.06,2.39,22.89-8,44.3-13,65.44-15.42l7.79-.88c33.36-3.73,49.6-29.9,50.9-54.17,1.28-24-11.92-51.39-44.3-58.58-.74-.17-1.49-.32-2.25-.47A177,177,0,0,0,297.94,49.23Z" transform="translate(-23.56 -35.29)"/><path class="cls-2" d="M122.6,430.09a76.08,76.08,0,0,1-75.16-65.61c-3-21.65-9.2-44.43-18.82-69.64a74.92,74.92,0,0,1,4-62.8,126.87,126.87,0,0,1,38.18-42.5A75.63,75.63,0,0,1,181.13,215a163.33,163.33,0,0,0,9.29,15.18c11.48,16.57,15.83,37.85,11.92,58.4-3.23,17-4.5,37.8-3.9,63.64a75,75,0,0,1-32.51,64.15l-1.38.93A75.36,75.36,0,0,1,122.6,430.09Zm-7.88-240.6a61.71,61.71,0,0,0-35.81,11.45,113.2,113.2,0,0,0-34,37.82,61,61,0,0,0-3.17,51.09c10,26.2,16.41,50,19.6,72.68a61.86,61.86,0,0,0,36.13,48.14,61.17,61.17,0,0,0,59.34-5l1.28-.86a61.12,61.12,0,0,0,26.4-52.26c-.63-26.83.72-48.61,4.14-66.58,3.21-16.88-.32-34.3-9.68-47.81a177.41,177.41,0,0,1-10.08-16.48,61.6,61.6,0,0,0-54.11-32.15Z" transform="translate(-23.56 -35.29)"/><circle class="cls-2" cx="95.91" cy="316.48" r="31.47"/><circle class="cls-2" cx="238.93" cy="93.18" r="31.47"/></svg>