<?xml version="1.0" encoding="utf-8"?>
<!-- Generator: Adobe Illustrator 27.3.0, SVG Export Plug-In . SVG Version: 6.00 Build 0)  -->
<svg version="1.1" id="Layer_1" xmlns="http://www.w3.org/2000/svg" xmlns:xlink="http://www.w3.org/1999/xlink" x="0px" y="0px"
	 viewBox="0 0 1366 1934" style="enable-background:new 0 0 1366 1934;" xml:space="preserve">
<style type="text/css">
	.st0{fill:#DEFCF3;}
	.st1{fill:#2D7863;}
	.st2{fill:#6BCAAF;}
	.st3{fill:#9BF6DC;}
	.st4{stroke:#000000;stroke-width:3;stroke-miterlimit:10;}
	.st5{font-family:'ArialMT';}
	.st6{font-size:28px;}
	.st7{font-family:'Arial-ItalicMT';}
	.st8{font-family:'Arial-BoldMT';}
</style>
<path class="st0" d="M1355,819.1l-15.8-41c-5-19.7-0.6-25.2,14.4-15.2c4.1,2.7,8.1,4.7,11.9,5.4v-16.2c-0.4-0.3-0.9-0.7-1.3-1
	l-18.7-13.1c-15.3-7.3-30.3-14.8-34.8-27.6c0,0-0.4-2-0.4-3c-2-35.2-6.6-70.1-13.4-104.6c-1.2-6.2-3.5-12.2-6.9-17.5
	c-28.4-44.5-17.4-108.2-27.2-201.5c-0.5-4.8-0.9-9.7-0.9-14.5c-0.1-15.5-5.7-28.8-15.9-40.1c-11.2-12.3-26.8-19.8-43.3-21.4
	c-11.5-1.1-24.3-3.8-37.9-7.8c-8.4-2.4-15.7-7.7-20.5-15c-4.3-6.5-9.2-24.8-9.2-24.8c-0.6-3.5-1.2-7.1-1.6-10.7c0-0.1,0-0.3-0.1-0.4
	c-0.1-0.7-0.2-1.5-0.2-2.2c0-0.3-0.1-0.6-0.1-0.9c-0.1-0.7-0.1-1.4-0.2-2c0-0.4-0.1-0.7-0.1-1.1c-0.1-0.6-0.1-1.3-0.1-1.9
	c0-0.4,0-0.8-0.1-1.2c0-0.6-0.1-1.2-0.1-1.9c0-0.4,0-0.9,0-1.4c0-1-0.1-1.9-0.1-2.9c0-0.6,0-1.3,0-1.9c0-0.5,0-1,0-1.4
	c0-0.6,0-1.2,0-1.8c0-0.5,0-1,0.1-1.4c0-0.6,0.1-1.3,0.1-1.9c0-0.5,0.1-0.9,0.1-1.4c0-0.7,0.1-1.3,0.1-2c0-0.4,0.1-0.9,0.1-1.4
	c0.1-0.8,0.1-1.5,0.2-2.2c0-0.4,0.1-0.8,0.1-1.1c0.1-1.1,0.2-2.3,0.4-3.4c1.4-10.9,4.6-21.5,9.5-31.4c10.3-20.9,17.8-38.2,12.9-68.1
	c-4.7-32.8-27.3-53-73.3-56.7c-50-3.3-78.6,14.3-89.8,57.9c-0.3,4.6-0.4,11.7,1.5,14.8c2.1,3.3,2.4,7.4,0.9,11.1
	c-2.1,5-5,9.8-8.5,14.4c-0.6,0.8-8.3,12.3-10.2,17.5c-1,2.8,0.3,6,3.1,7.1c1.6,0.6,3.5,1,5.5,1.2c1.1,0.1,2,1.1,2,2.2
	c0.1,4.1-0.8,8.6-2.5,13.4c-0.3,1.6,0.7,2.2,2.4,2.4c-1.8,0.5-2.6,1.3-2.4,2.4c0.5,2.8,1.6,5,3.1,7c2.3,2.9,3.9,6.4,4.1,10.1
	c0.9,15.5,5.5,23.1,14,21.9c10.5-1.3,20.6-2.1,28.1-0.9c2.6,0.4,4.7,2.1,5.8,4.4c0.3,0.6,0.5,1.1,0.8,1.7c0.1,0.2,0.1,0.3,0.2,0.5
	c0.2,0.4,0.3,0.9,0.5,1.3c0,0.1,0.1,0.2,0.1,0.3c0.2,0.5,0.3,1,0.4,1.4c0,0.1,0.1,0.3,0.1,0.4c0.1,0.3,0.2,0.7,0.2,1
	c0,0.1,0.1,0.3,0.1,0.4c0.1,0.4,0.1,0.8,0.2,1.2c0,0.1,0,0.3,0,0.4c0,0.3,0,0.5,0,0.8c0,0.2,0,0.3,0,0.5c0,0.3-0.1,0.6-0.1,0.8
	c0,0.2-0.1,0.4-0.1,0.6c-0.1,0.2-0.1,0.4-0.2,0.7c-0.1,0.2-0.1,0.4-0.2,0.5c-0.1,0.2-0.1,0.4-0.2,0.6c-0.1,0.3-0.2,0.5-0.3,0.8
	c-2.4,5-4.2,10.3-6.8,15.2c-1.8,3.6-3.6,6.8-6.4,9.8c-3.2,3.5-7,6.7-10.6,9.8c-3.5,3-7.3,5.8-11.8,7.1c-13.7,4-26.4,6.7-38,7.8
	c-5.7,0.5-11.3,1.8-16.6,3.7c-0.2,0.1-0.4,0.1-0.5,0.2c-0.6,0.2-1.2,0.5-1.8,0.7c-0.2,0.1-0.5,0.2-0.7,0.3c-0.6,0.2-1.2,0.5-1.8,0.8
	c-0.2,0.1-0.4,0.2-0.5,0.2c-1.1,0.5-2.2,1-3.3,1.6c-0.2,0.1-0.5,0.2-0.7,0.4c-0.5,0.2-0.9,0.5-1.4,0.8c-0.4,0.2-0.7,0.4-1.1,0.6
	c-0.4,0.2-0.8,0.5-1.2,0.8c-0.4,0.2-0.8,0.5-1.2,0.8c-0.4,0.2-0.7,0.5-1.1,0.7c-0.5,0.4-1.1,0.8-1.6,1.1c-0.3,0.2-0.6,0.5-0.9,0.7
	c-0.6,0.5-1.2,1-1.8,1.5c-0.3,0.2-0.5,0.4-0.8,0.6c-0.5,0.4-0.9,0.8-1.4,1.2c-0.3,0.2-0.5,0.5-0.8,0.7c-0.5,0.4-0.9,0.9-1.4,1.3
	c-0.2,0.2-0.4,0.4-0.7,0.6c-0.7,0.7-1.3,1.4-2,2.1c-10.2,11.3-15.8,24.5-15.9,40.1c0,4.9-0.5,9.7-1,14.5
	c-9.7,93.3,1.2,157-27.2,201.5c-3.4,5.3-5.7,11.3-6.9,17.5c-6.5,32.8-10.9,66-13.1,99.5l-2.3,6.3c-4.3,13.1-19.5,20.6-35,28
	l-18.7,13.1c-3.2,2.5-6.5,4.7-10.3,6.4c-3.7,1.6-4.2,6.6-1,8.9c6.4,4.4,13.9,1.7,21.8-3.5c14.9-10.1,19.4-4.5,14.4,15.2l-15.8,41
	c-1.3,3.5-2.2,7.1-2.4,10.8c-0.3,4.5,4.8,7.3,8.4,4.5l0,0c1.2-1,2.2-2.2,2.8-3.7l4.7-10.7l11.9-21.8c0.4-0.7,1.5-0.3,1.3,0.5
	l-9.9,33.9c-0.2,0.9-0.5,1.7-0.8,2.6c-1.1,3.3-1.5,6.8-1.4,10.5c0.1,5,6.6,6.8,9.2,2.6c1.1-1.7,2-3.6,2.5-5.6
	c0.2-0.7,0.4-1.5,0.7-2.2l14.3-39.2c0.2-0.5,0.8-0.2,0.7,0.2l-6.7,28c-0.6,2.4-1.2,4.8-2.2,7.1c-0.6,1.5-0.9,3-1.4,4.5
	c-2.9,9.2,7.9,12.2,10.7,4c1.1-3.2,9-33.9,12.1-44.1c0.3-1.1,1.9-0.9,2,0.3c0.2,5.7,0,12.2-0.4,16.3c-0.3,2.6-1.1,5.1-2,7.5
	c-0.8,2.1-0.8,4.5-0.2,7c0.9,3.9,6.3,4.5,8,0.9c3.2-6.8,5.3-13.8,5.3-21.2c0,0,1-16.5,2.6-20.9c1.6-4.4,8.5-42.6,7.7-45.9
	c-0.3-1.4,3.4-12.9,3.4-12.9c1.7-4.7,3.8-9.3,6.5-13.6c19-31.5,34-64.3,44.8-98.8c0.4-1.3,0.7-2.6,0.9-4c6.7-44.6,9.1-91.1,22-102.5
	c0.1-0.1,0.2-0.1,0.3-0.2c0.1,0,0.2-0.1,0.3-0.1c0.8-0.2,1.6,0.3,1.7,1.2c5,45.7,4.6,93.1,2.7,141.1c-0.3,8-2,15.9-4.9,23.3
	c-11.3,29.2-19.2,59.2-22.4,90.1c-1.5,33.9,2.6,73,8.4,113.9c4.6,32.6,10.3,66.5,15,99.8c3.6,25.5,6.7,50.7,8.3,74.9
	c6,32.2-5.1,46-9.7,79.1c2.8,61.9,29.2,125.4,41.4,183.8c-0.2,28.9-6.4,48.9-14.3,66.7c-4.3,9.7,0.4,21.1,10.4,24.6
	c0.1,0,0.1,0,0.2,0.1c4.4,2.3,9,2.8,14,1.2c2-0.6,4.2-0.6,6.2,0c3.5,1.1,6.8,1.2,9.7,0.2c2-0.7,4.2-0.6,6.2,0
	c2.3,0.8,4.5,0.9,6.6,0.3c2.3-0.7,4.8-0.3,7,0.8c0.9,0.5,1.9,0.8,2.9,1c7.6,1.4,14.2-5.4,13.2-13c-1.8-13-4.6-25.4-9.6-36.3
	c-1.8-3.8-2.8-7.9-3.1-12.2c-1.3-19.8-4.3-39.3-9.6-58.5c-3.3-11.9-4.9-24.2-4.6-36.6c0.9-48.8,6.9-91,1.4-127.8
	c-1.4-9.8-1.5-19.7,0.3-29.4c6.7-36.9,12.1-76.7,16.4-118.9c3.2-31.5,5.8-64.2,7.9-98c0.6-10,1.2-20.1,1.8-30.2
	c0.1-1.7,1.8-2.8,3.3-2.1c3,1.4,6,1.9,9,0.6c3,1.3,6,0.8,9-0.6c1.5-0.7,3.3,0.4,3.3,2.1c4.8,90.7,12.8,174.7,26,247.1
	c1.8,9.7,1.8,19.6,0.3,29.4c-5.4,36.8,0.6,79,1.4,127.8c0.2,12.3-1.3,24.7-4.6,36.6c-5.3,19.2-8.3,38.7-9.6,58.5
	c-0.3,4.2-1.3,8.3-3.1,12.2c-5,10.9-7.7,23.3-9.6,36.3c-1.1,7.6,5.6,14.4,13.2,13c1-0.2,2-0.5,2.9-1c2.2-1.1,4.7-1.5,7-0.8
	c2.1,0.6,4.3,0.5,6.6-0.3c2-0.7,4.2-0.7,6.2,0c2.9,1,6.2,0.9,9.7-0.2c2-0.6,4.2-0.7,6.2,0c4.9,1.5,9.6,1.1,13.9-1.2
	c0.1,0,0.1,0,0.2-0.1c10-3.5,14.7-14.9,10.4-24.6c-7.8-17.8-14.1-37.8-14.3-66.7c12.2-58.4,38.6-121.9,41.4-183.8
	c-4.6-33.2-15.7-47-9.7-79.1c6.3-95.4,35.3-207,31.7-288.6c-3.2-31-11.1-60.9-22.4-90.1c-2.9-7.5-4.6-15.3-4.9-23.3
	c-1.9-47.9-2.3-95.4,2.7-141.1c0.1-1.1,1.5-1.6,2.3-0.9c12.9,11.3,15.3,57.9,22,102.5c0.2,1.3,0.5,2.7,0.9,4
	c10.8,34.4,25.9,67.3,44.8,98.7c2.1,5.9,8.8,25.1,8.2,27.9c-0.8,3.3,6.1,41.5,7.7,45.9s2.6,20.9,2.6,20.9c-0.1,7.5,2,14.5,5.3,21.2
	c1.8,3.7,7.2,3,8-0.9c0.6-2.5,0.6-4.8-0.2-7c-0.9-2.5-1.7-5-2-7.5c-0.4-4.1-0.6-10.6-0.4-16.3c0-1.1,1.7-1.3,2-0.3
	c3.1,10.2,10.9,40.8,12.1,44.1c2.8,8.2,13.6,5.2,10.7-4c-0.5-1.5-0.8-3-1.4-4.5c-0.9-2.3-1.6-4.7-2.2-7.1l-6.7-28
	c-0.1-0.5,0.6-0.7,0.7-0.2l14.3,39.2c0.3,0.7,0.5,1.5,0.7,2.2c0.5,2,1.4,3.8,2.5,5.6c2.7,4.2,9.1,2.4,9.2-2.6
	c0.1-3.7-0.3-7.2-1.4-10.5c-0.3-0.9-0.6-1.7-0.8-2.6l-9.9-33.9c-0.2-0.8,0.9-1.2,1.3-0.5l11.9,21.8l4.7,10.7
	c0.6,1.4,1.6,2.7,2.8,3.7c3.5,2.8,8.7,0,8.4-4.5C1357.1,826.2,1356.3,822.6,1355,819.1z"/>
<g>
	<g>
		<path class="st0" d="M104.2,697.6c2.4-6.1,4.5-12.3,6.6-18.6c7.4-22.8,32-74.3,96.4-43.4c81.3,39,54.6,98,54.6,98
			s-41.2,88-116.9,56.8C85.2,765.9,96.6,717.3,104.2,697.6z"/>
		<path class="st1" d="M233.1,686.3l-2.6-5c-11.4-22.2-39.8-32.4-66.1-23.6c-25.2,8.4-41.7,31.9-39,55.8l0.7,6
			c0.6,5,3.4,9.5,7.7,12.3c3.1,2,6.6,3,10.3,3c2.2,0,4.4-0.4,6.6-1.1c8.9-3,14.4-11.3,13.2-19.9l-0.4-3.1c-1.1-7.9,4.8-16,13.6-19
			c8.7-2.9,18-0.2,22,6.6l2.8,4.6c4,6.7,12.6,9.6,20.6,6.9c5.1-1.7,9.2-5.4,11.1-10.2C235.3,695,235.1,690.3,233.1,686.3z"/>
		<circle class="st2" cx="180.4" cy="734.7" r="7.8"/>
		<circle class="st2" cx="209.4" cy="726.9" r="7.8"/>
		<circle class="st2" cx="161.5" cy="767" r="7.8"/>
		<circle class="st2" cx="201.6" cy="759.2" r="7.8"/>
		<circle class="st2" cx="242.8" cy="726.9" r="7.8"/>
		<ellipse class="st2" cx="158.2" cy="746.7" rx="6.6" ry="6.9"/>
		<ellipse class="st2" cx="117" cy="731.8" rx="5.5" ry="5.8"/>
		<ellipse class="st2" cx="177.2" cy="712.9" rx="5.5" ry="5.8"/>
		<ellipse class="st2" cx="195" cy="739.6" rx="5.5" ry="5.8"/>
		<ellipse class="st2" cx="226.1" cy="726.2" rx="6.6" ry="7"/>
		<ellipse class="st2" cx="139.3" cy="762.9" rx="6.6" ry="7"/>
		<circle class="st2" cx="123.6" cy="754.8" r="6.7"/>
		<circle class="st2" cx="178.2" cy="754.8" r="7.8"/>
		<circle class="st2" cx="224.9" cy="745.9" r="7.8"/>
		<circle class="st2" cx="169.3" cy="645.7" r="7.8"/>
		<circle class="st2" cx="186" cy="774.8" r="7.8"/>
		<ellipse class="st2" cx="139.8" cy="658.5" rx="5" ry="4.9"/>
		<ellipse class="st2" cx="195" cy="711.8" rx="5" ry="4.9"/>
		<ellipse class="st2" cx="117" cy="706.2" rx="5" ry="4.9"/>
		<ellipse class="st2" cx="242.8" cy="685" rx="5" ry="4.9"/>
		<ellipse class="st2" cx="242.8" cy="706.2" rx="5" ry="4.9"/>
		<ellipse class="st2" cx="195" cy="648.3" rx="5" ry="4.9"/>
		<ellipse class="st2" cx="130" cy="738.6" rx="5" ry="4.9"/>
		<ellipse class="st2" cx="214.6" cy="767.6" rx="5" ry="4.9"/>
		<ellipse class="st2" cx="205.7" cy="654" rx="5" ry="4.9"/>
		<ellipse class="st2" cx="232.4" cy="670.7" rx="5" ry="4.9"/>
		<ellipse class="st2" cx="153.4" cy="648.4" rx="5" ry="4.9"/>
		<ellipse class="st2" cx="122.2" cy="681.8" rx="5" ry="4.9"/>
		<ellipse class="st2" cx="182.3" cy="700.8" rx="5" ry="4.9"/>
		<ellipse class="st2" cx="145.6" cy="743.1" rx="5" ry="4.9"/>
	</g>
	<g>
		<path class="st1" d="M310.9,817.1c-2.3,0-4.2,1.2-4.2,2.6v40c0,1.6-1.5,2.7-3,2.2c0,0,0,0,0,0c-1-0.3-1.7-1.2-1.7-2.2v-31.5
			c0-1.4-1.9-2.6-4.2-2.6s-4.2,1.2-4.2,2.6v30.2c0,1.3-1,2.3-2.4,2.3h0c-1.3,0-2.4-1-2.4-2.3V824c0-1.4-1.9-2.6-4.2-2.6
			s-4.2,1.2-4.2,2.6v34.5c0,1.3-1,2.3-2.4,2.3h0c-1.3,0-2.4-1-2.4-2.3v-20c0-1.4-1.9-2.6-4.2-2.6l0,0c-2.3,0-4.2,1.2-4.2,2.6v20
			c0,1.3-1,2.3-2.4,2.3h0c-1.3,0-2.4-1-2.4-2.3v-30.2c0-1.4-1.9-2.6-4.2-2.6s-4.2,1.2-4.2,2.6v30.2c0,1.3-1.1,2.3-2.4,2.3h-0.1
			c-1.3,0-2.4-1-2.4-2.3v-21.7c0-1.4-1.9-2.6-4.2-2.6l0,0c-2.3,0-4.2,1.2-4.2,2.6v21.7c0,1.3-1.1,2.3-2.4,2.3H239
			c-1.3,0-2.4-1-2.4-2.3v-20c0-1.4-1.9-2.6-4.2-2.6c-2.3,0-4.2,1.2-4.2,2.6v20c0,1.3-1.1,2.3-2.4,2.3h-0.1c-1.3,0-2.4-1-2.4-2.3
			v-30.2c0-1.4-1.9-2.6-4.2-2.6c-2.3,0-4.2,1.2-4.2,2.6v31.5c0,1-0.7,2-1.7,2.2c0,0,0,0-0.1,0c-1.5,0.4-3-0.7-3-2.2V824
			c0-1.4-1.9-2.6-4.2-2.6c-2.3,0-4.2,1.2-4.2,2.6v49v16.6v56.9c0,6.7,8.8,12.2,19.6,12.2h73.6c10.8,0,19.6-5.5,19.6-12.2v-42.4V873
			v-53.3C315,818.3,313.2,817.1,310.9,817.1z"/>
		<ellipse class="st3" cx="258.4" cy="920.3" rx="31.6" ry="24.7"/>
	</g>
	<g>
		<path class="st0" d="M416.6,722.3c-0.1-18.8,20.7-26.1,51.4-28c-58.7,4.3-82.1-21-74.3-72.4c0.2-1.2-1.5-1.7-2-0.6
			c-16.6,39.7-37,35.3-64.8,5.7c-0.9-0.9-2.3,0.2-1.7,1.2c23.3,40.6,16.5,57.9-19.7,64.3c-1.2,0.2-1.1,2,0.1,2.1
			c50.4,3.5,67.7,26,63.3,71.9c-0.1,1.3,1.7,1.6,2,0.4c10.2-34.6,22.3-48.5,43.8-29.3c20.6,30,60.2,101.7,20,165.6
			c-4.2,5.7-10.5,9.6-17.5,10.9l-18.6,3.5c-0.6,0.1-0.6,1,0.1,1.1l24.3,0.6c0.5,0,0.7,0.6,0.3,1l-24.1,19.1c-0.5,0.4,0,1.2,0.6,0.9
			l28.2-17.6c0.4-0.2,0.9,0.1,0.8,0.6l-3.6,15.8c-0.1,0.6,0.8,0.9,1,0.3l5.8-10.7c0.3-0.6,1.2-0.5,1.4,0.1l10.2,27
			c0.3,0.6,1.1,0.3,1-0.3l-4.7-22.9c-1.8-8.9-1-18.1,2.2-26.5C479.8,825.5,431,743.7,416.6,722.3z"/>
		<path class="st0" d="M426.5,770.7l-8.6-18.9c-1.9-4.1-0.1-9.1,4.1-11l3.8-1.8c4.1-1.9,9.1-0.1,11,4.1l8.6,18.9
			c1.9,4.1,0.1,9.1-4.1,11l-3.8,1.8C433.3,776.7,428.4,774.9,426.5,770.7z"/>
		<path class="st0" d="M440.6,811.8l-3.5-20.5c-0.8-4.5,2.3-8.8,6.8-9.6l4.1-0.7c4.5-0.8,8.8,2.3,9.6,6.8l3.5,20.5
			c0.8,4.5-2.3,8.8-6.8,9.6l-4.1,0.7C445.7,819.3,441.4,816.3,440.6,811.8z"/>
		<path class="st0" d="M432.3,892.2l7.1-19.5c1.6-4.3,6.3-6.5,10.6-4.9l3.9,1.4c4.3,1.6,6.5,6.3,4.9,10.6l-7.1,19.5
			c-1.6,4.3-6.3,6.5-10.6,4.9l-3.9-1.4C432.9,901.3,430.7,896.5,432.3,892.2z"/>
		<path class="st0" d="M442.4,854.7l1.3-20.8c0.3-4.5,4.2-8,8.8-7.8l4.2,0.3c4.5,0.3,8,4.2,7.8,8.8l-1.3,20.8
			c-0.3,4.5-4.2,8-8.8,7.8l-4.2-0.3C445.6,863.2,442.2,859.2,442.4,854.7z"/>
		<ellipse transform="matrix(0.5 -0.866 0.866 0.5 -413.5436 672.4669)" class="st1" cx="375.6" cy="694.4" rx="16.8" ry="17"/>
	</g>
</g>
<g>
	<path class="st1" d="M1277.8,569c-4.1-2.4-9-2.2-12.9,0c-1.6,0.9-3.5,0.8-5.1-0.1l0,0c-2.5-1.5-3.4-4.7-1.9-7.2l11.9-20.6
		c3.2-5.6,3.2-12.5,0-18.1l-13.8-23.8c-1.5-2.5-0.6-5.8,1.9-7.2l0,0c1.6-0.9,3.6-1,5.2-0.1c3.9,2.2,8.8,2.4,12.9,0
		c5.9-3.4,8.1-11,5-17.1c-3.4-6.6-11.6-8.9-17.9-5.3c-4.1,2.4-6.4,6.7-6.5,11.1c0,1.8-1.1,3.5-2.6,4.4l0,0c-2.5,1.5-5.8,0.6-7.2-1.9
		l-11.7-20.2c-3.2-5.6-9.2-9-15.6-9h-27.7c-2.9,0-5.3-2.4-5.3-5.3l0,0c0-1.8,0.9-3.6,2.5-4.5c3.8-2.2,6.4-6.4,6.4-11.2
		c0-6.8-5.5-12.5-12.3-12.9c-7.4-0.3-13.5,5.6-13.5,12.9c0,4.7,2.5,8.8,6.3,11.1c1.6,1,2.6,2.7,2.6,4.6l0,0c0,2.9-2.4,5.3-5.3,5.3
		h-23c-6.4,0-12.4,3.4-15.6,9l-13.9,24c-1.5,2.5-4.7,3.4-7.2,1.9l0,0c-1.6-0.9-2.6-2.6-2.6-4.4c0-4.5-2.3-8.8-6.5-11.1
		c-5.9-3.4-13.6-1.5-17.3,4.2c-4,6.2-1.9,14.5,4.4,18.2c4.1,2.4,9,2.2,12.9,0c1.6-0.9,3.5-0.8,5.1,0.1l0,0c2.5,1.5,3.4,4.7,1.9,7.2
		l-11.6,20c-3.2,5.6-3.2,12.5,0,18.1l13.7,23.6c1.4,2.5,0.6,5.7-1.9,7.2l0,0c-1.6,0.9-3.5,1-5.1,0.1c-3.9-2.2-8.8-2.4-12.9,0
		c-5.9,3.4-8.1,11-5,17.1c3.4,6.6,11.6,8.9,17.9,5.3c4.1-2.4,6.4-6.7,6.5-11.2c0-1.8,1.1-3.5,2.6-4.3l0,0c2.5-1.5,5.7-0.6,7.2,1.9
		l11.8,20.5c3.2,5.6,9.2,9,15.6,9h27.1c2.9,0,5.2,2.3,5.2,5.2l0,0c0,1.8-0.9,3.5-2.5,4.4c-3.9,2.2-6.5,6.4-6.4,11.2
		c0,6.8,5.5,12.5,12.3,12.9c7.4,0.3,13.5-5.6,13.5-12.9c0-4.7-2.6-8.9-6.3-11.1c-1.6-0.9-2.6-2.6-2.6-4.5l0,0c0-2.9,2.3-5.2,5.2-5.2
		h23.9c6.4,0,12.4-3.4,15.6-9l13.5-23.5c1.4-2.5,4.7-3.4,7.2-1.9l0,0c1.6,0.9,2.6,2.5,2.6,4.4c0,4.5,2.3,8.8,6.5,11.2
		c6.4,3.7,14.5,1.3,17.9-5.3C1285.9,580.1,1283.7,572.5,1277.8,569z"/>
	<path class="st0" d="M1174.4,586.5c0.2-0.5,0.4-1,0.6-1.5c0.3-0.8,0.6-1.7,0.8-2.5c0.1-0.3,0.1-0.5,0.2-0.8
		c0.1-0.6,0.2-1.3,0.3-1.9c0.1-0.9,0.2-1.9,0.3-2.8c0-1,0-2,0-3c0-0.9-0.1-1.9-0.2-2.8c0-0.1,0-0.2,0-0.3c-0.1-1.1-0.3-2.2-0.6-3.3
		c-0.1-0.3-0.1-0.5-0.2-0.8c-0.7-3.4-1.8-6.3-2.5-8.2c2.1-0.3,5.1-0.8,8.3-1.7c0.7-0.2,1.3-0.4,2-0.6c1.1-0.4,2.1-0.7,3.1-1.2
		c0.1,0,0.2-0.1,0.3-0.1c0.9-0.4,1.7-0.8,2.5-1.2c0.9-0.5,1.7-1,2.6-1.5c0.8-0.5,1.6-1.1,2.3-1.6c0.5-0.4,1-0.8,1.4-1.2
		c0.2-0.2,0.4-0.4,0.6-0.5c0.6-0.6,1.2-1.3,1.8-1.9c0.3-0.4,0.7-0.8,0.9-1.2c0.2-0.3,0.4-0.6,0.6-0.8c0.2-0.2,0.3-0.5,0.5-0.8
		c0.3-0.5,0.6-1,0.8-1.5c0.1-0.2,0.2-0.5,0.3-0.7c0.2-0.5,0.5-1.1,0.7-1.7c0.3-0.8,0.6-1.7,0.8-2.5c0-0.2,0.1-0.3,0.1-0.5
		c0.2-0.7,0.3-1.4,0.4-2.2c0.1-0.8,0.2-1.7,0.2-2.5c0-0.1,0-0.2,0-0.3c0.1-1,0.1-2,0-3c0-0.8-0.1-1.7-0.2-2.5c0-0.2-0.1-0.4-0.1-0.6
		c-0.1-1.1-0.3-2.2-0.5-3.3c-0.1-0.3-0.1-0.7-0.2-1c-0.7-3.3-1.7-6.2-2.5-8.2c2.1-0.3,5.1-0.8,8.4-1.7c0.3-0.1,0.6-0.2,0.8-0.2
		c1.1-0.3,2.2-0.7,3.2-1.1c1-0.4,2-0.8,2.9-1.3c0.8-0.4,1.6-0.8,2.4-1.3c0.1,0,0.2-0.1,0.2-0.1c0.8-0.5,1.6-1,2.4-1.6
		c0.4-0.3,0.9-0.7,1.3-1c0.3-0.2,0.6-0.5,0.8-0.7c0.7-0.6,1.3-1.2,1.9-1.9c0.3-0.3,0.6-0.7,0.8-1s0.5-0.7,0.8-1c0.3-0.5,0.7-1,1-1.5
		c0-0.1,0.1-0.1,0.1-0.2l-4-2.4c0,0.1-0.1,0.1-0.1,0.2c-0.3,0.5-0.7,1-1,1.5c-0.3,0.4-0.5,0.7-0.8,1l-26.2-15.6
		c0.2-0.4,0.3-0.8,0.5-1.2c0.2-0.5,0.5-1.1,0.8-1.6c0-0.1,0.1-0.1,0.1-0.2l-4-2.4c0,0.1-0.1,0.1-0.1,0.2c-0.3,0.5-0.6,1-0.9,1.6
		c-0.2,0.4-0.4,0.8-0.5,1.2s-0.3,0.8-0.5,1.2c-0.3,0.8-0.6,1.7-0.8,2.5c-0.1,0.4-0.2,0.7-0.2,1.1c-0.1,0.5-0.2,1.1-0.3,1.6
		c-0.1,0.9-0.2,1.9-0.3,2.9c0,0.1,0,0.2,0,0.3c0,0.9,0,1.8,0,2.7c0.1,1,0.1,2.1,0.3,3.2c0.1,1.1,0.3,2.2,0.6,3.3
		c0.1,0.3,0.1,0.5,0.2,0.8c0.7,3.3,1.7,6.2,2.5,8.2c-2.1,0.3-5.1,0.8-8.4,1.7c-0.3,0.1-0.7,0.2-1,0.3c-1.1,0.3-2.2,0.7-3.2,1.1
		c-0.2,0.1-0.4,0.2-0.6,0.2c-0.8,0.3-1.6,0.7-2.3,1c-0.9,0.5-1.8,0.9-2.6,1.4c-0.1,0-0.2,0.1-0.2,0.2c-0.7,0.5-1.4,0.9-2.1,1.4
		c-0.6,0.4-1.2,0.9-1.7,1.4c-0.1,0.1-0.3,0.2-0.4,0.4c-0.7,0.6-1.3,1.2-1.9,1.9c-0.4,0.5-0.8,0.9-1.2,1.4c-0.2,0.2-0.3,0.4-0.5,0.6
		c-0.3,0.5-0.6,0.9-0.9,1.4c-0.2,0.2-0.3,0.5-0.4,0.8c-0.2,0.3-0.3,0.6-0.5,0.9c-0.2,0.5-0.4,0.9-0.6,1.4c-0.3,0.8-0.6,1.6-0.9,2.5
		c-0.1,0.3-0.1,0.5-0.2,0.8c-0.2,0.6-0.3,1.2-0.4,1.9c-0.2,0.9-0.3,1.8-0.3,2.8c-0.1,1-0.1,1.9-0.1,3c0,0.9,0.1,1.8,0.2,2.8
		c0,0.1,0,0.2,0,0.3c0.1,1.1,0.2,2.2,0.4,3.3c0.1,0.7,0.2,1.3,0.4,2c0.7,3.4,1.8,6.3,2.5,8.2c-2.1,0.3-5.1,0.8-8.3,1.7
		c-0.3,0.1-0.5,0.2-0.8,0.2c-1.1,0.3-2.2,0.7-3.2,1.1c-0.1,0-0.2,0.1-0.3,0.1c-0.9,0.4-1.8,0.7-2.6,1.1c-0.9,0.5-1.8,0.9-2.7,1.4
		s-1.6,1-2.4,1.6c-0.5,0.4-1,0.8-1.5,1.2c-0.2,0.2-0.4,0.3-0.6,0.5c-0.7,0.6-1.3,1.2-1.9,1.9c-0.3,0.4-0.7,0.8-1,1.2
		c-0.2,0.3-0.4,0.5-0.6,0.8c-0.3,0.5-0.7,1-1,1.5l4,2.4c0.3-0.5,0.7-1,1-1.5c0.2-0.3,0.4-0.5,0.7-0.8l26.3,15.7
		c-0.1,0.3-0.2,0.7-0.4,1c-0.2,0.5-0.5,1.1-0.8,1.6l4,2.4c0.3-0.5,0.6-1,0.9-1.6C1174.1,587.2,1174.3,586.9,1174.4,586.5z
		 M1193.7,493.2c-0.1-1-0.1-2-0.1-3.1c0-0.6,0.1-1.2,0.1-1.7l23.4,14c-0.5,0.3-1,0.6-1.5,0.9c-0.9,0.5-1.8,1-2.7,1.4
		c-0.1,0-0.2,0.1-0.3,0.1l-18.9-11.2C1193.7,493.5,1193.7,493.4,1193.7,493.2z M1194.8,499.9l11.6,6.9c-1.3,0.3-2.6,0.6-3.7,0.8
		c-3,0.5-5,0.6-5,0.6s-0.9-1.8-1.8-4.7C1195.5,502.5,1195.1,501.2,1194.8,499.9z M1185.4,515.3c1.3-0.3,2.6-0.6,3.7-0.8
		c3.1-0.5,5.2-0.6,5.2-0.6s0.9,1.9,1.9,4.9c0.4,1.1,0.7,2.3,1.1,3.6c0.1,0.2,0.1,0.5,0.2,0.7l-12.7-7.6
		C1184.9,515.5,1185.2,515.4,1185.4,515.3z M1176.3,518.9c0.8-0.5,1.6-0.9,2.4-1.2l19.6,11.7c0.1,0.9,0.1,1.8,0.1,2.7
		c0,0.8-0.1,1.5-0.2,2.3l-23.9-14.2C1175,519.7,1175.6,519.3,1176.3,518.9z M1168.7,526.4c0.1-0.3,0.3-0.5,0.4-0.8
		c0.3-0.5,0.6-1,0.9-1.4c0.2-0.2,0.3-0.4,0.5-0.6l26.4,15.8c-0.1,0.2-0.2,0.5-0.3,0.7c-0.2,0.5-0.5,1-0.8,1.5
		c-0.2,0.3-0.3,0.5-0.5,0.8c-0.2,0.3-0.4,0.6-0.6,0.8l-26.6-15.8C1168.4,527,1168.5,526.7,1168.7,526.4z M1166.7,534.2
		c0-0.7,0.1-1.3,0.2-2l24.3,14.5c-0.5,0.4-1.1,0.8-1.6,1.1c-0.8,0.5-1.7,1-2.6,1.4l-20.3-12.1
		C1166.6,536.2,1166.6,535.2,1166.7,534.2z M1168.5,547.3c-0.3-1.1-0.7-2.3-0.9-3.6c0-0.1-0.1-0.2-0.1-0.3l13.6,8.1
		c-0.1,0-0.2,0.1-0.3,0.1c-1.3,0.4-2.5,0.6-3.6,0.9c-3.7,0.8-6.4,0.9-6.4,0.9S1169.6,550.9,1168.5,547.3z M1158.8,560.4
		c1.3-0.3,2.6-0.6,3.7-0.8c2.9-0.5,5-0.6,5-0.6s0.9,1.8,1.8,4.7c0.4,1.1,0.7,2.3,1.1,3.6c0,0.1,0.1,0.2,0.1,0.3l-12-7.2
		C1158.5,560.5,1158.7,560.4,1158.8,560.4z M1147.9,565c0.6-0.4,1.1-0.7,1.7-1.1c0.9-0.5,1.8-1,2.7-1.4l19.2,11.4
		c0.1,1,0.1,2,0.1,3.1c0,0.7-0.1,1.3-0.1,2L1147.9,565z"/>
</g>
<g>
	<path class="st2" d="M1092.1,676.6c-1.9-1.1-4.1-1-5.9,0c-0.7,0.4-1.6,0.4-2.3,0l0,0c-1.2-0.7-1.5-2.1-0.9-3.3l5.4-9.4
		c1.5-2.5,1.5-5.7,0-8.2l-6.3-10.9c-0.7-1.2-0.3-2.6,0.9-3.3l0,0c0.7-0.4,1.6-0.5,2.3,0c1.8,1,4,1.1,5.9,0c2.7-1.6,3.7-5,2.3-7.8
		c-1.6-3-5.3-4.1-8.2-2.4c-1.9,1.1-2.9,3.1-2.9,5.1c0,0.8-0.5,1.6-1.2,2l0,0c-1.2,0.7-2.6,0.3-3.3-0.9l-5.3-9.2
		c-1.5-2.5-4.2-4.1-7.1-4.1h-12.6c-1.3,0-2.4-1.1-2.4-2.4l0,0c0-0.8,0.4-1.6,1.2-2.1c1.8-1,2.9-2.9,2.9-5.1c0-3.1-2.5-5.7-5.6-5.9
		c-3.4-0.2-6.2,2.5-6.2,5.9c0,2.2,1.2,4,2.9,5.1c0.7,0.4,1.2,1.2,1.2,2.1l0,0c0,1.3-1.1,2.4-2.4,2.4h-10.5c-2.9,0-5.7,1.6-7.1,4.1
		l-6.3,10.9c-0.7,1.2-2.1,1.5-3.3,0.9l0,0c-0.7-0.4-1.2-1.2-1.2-2c0-2-1.1-4-3-5.1c-2.7-1.5-6.2-0.7-7.9,1.9c-1.8,2.8-0.9,6.6,2,8.3
		c1.9,1.1,4.1,1,5.9,0c0.7-0.4,1.6-0.4,2.3,0l0,0c1.2,0.7,1.5,2.1,0.9,3.3l-5.3,9.1c-1.5,2.5-1.5,5.7,0,8.2l6.2,10.8
		c0.7,1.1,0.3,2.6-0.9,3.3l0,0c-0.7,0.4-1.6,0.5-2.3,0c-1.8-1-4-1.1-5.9,0c-2.7,1.6-3.7,5-2.3,7.8c1.5,3,5.3,4.1,8.2,2.4
		c1.9-1.1,2.9-3.1,2.9-5.1c0-0.8,0.5-1.6,1.2-2l0,0c1.1-0.7,2.6-0.3,3.3,0.9l5.4,9.3c1.5,2.5,4.2,4.1,7.1,4.1h12.3
		c1.3,0,2.4,1.1,2.4,2.4l0,0c0,0.8-0.4,1.6-1.1,2c-1.8,1-2.9,2.9-2.9,5.1c0,3.1,2.5,5.7,5.6,5.9c3.4,0.2,6.2-2.5,6.2-5.9
		c0-2.2-1.2-4-2.9-5.1c-0.7-0.4-1.2-1.2-1.2-2l0,0c0-1.3,1.1-2.4,2.4-2.4h10.9c2.9,0,5.7-1.6,7.1-4.1l6.2-10.7
		c0.7-1.2,2.1-1.5,3.3-0.9l0,0c0.7,0.4,1.2,1.2,1.2,2c0,2,1.1,4,2.9,5.1c2.9,1.7,6.6,0.6,8.2-2.4
		C1095.8,681.7,1094.8,678.2,1092.1,676.6z"/>
	<path class="st0" d="M1045,684.6c0.1-0.2,0.2-0.4,0.3-0.7c0.1-0.4,0.2-0.8,0.3-1.2c0-0.1,0.1-0.2,0.1-0.4c0.1-0.3,0.1-0.6,0.2-0.9
		c0.1-0.4,0.1-0.9,0.1-1.3c0-0.5,0-0.9,0-1.4c0-0.4-0.1-0.9-0.1-1.3c0,0,0-0.1,0-0.2c-0.1-0.5-0.2-1-0.2-1.5c0-0.1-0.1-0.2-0.1-0.4
		c-0.3-1.5-0.8-2.9-1.2-3.8c0.9-0.1,2.3-0.3,3.8-0.8c0.3-0.1,0.6-0.2,0.9-0.3c0.5-0.2,1-0.3,1.4-0.5c0,0,0.1,0,0.1-0.1
		c0.4-0.2,0.8-0.3,1.2-0.5c0.4-0.2,0.8-0.4,1.2-0.7s0.7-0.5,1-0.8c0.2-0.2,0.4-0.4,0.7-0.6c0.1-0.1,0.2-0.2,0.3-0.2
		c0.3-0.3,0.6-0.6,0.8-0.9c0.2-0.2,0.3-0.4,0.4-0.6c0.1-0.1,0.2-0.3,0.3-0.4c0.1-0.1,0.2-0.2,0.2-0.3c0.1-0.2,0.2-0.5,0.4-0.7
		c0.1-0.1,0.1-0.2,0.2-0.3c0.1-0.2,0.2-0.5,0.3-0.8c0.1-0.4,0.3-0.8,0.4-1.2c0-0.1,0-0.2,0.1-0.2c0.1-0.3,0.1-0.7,0.2-1
		c0.1-0.4,0.1-0.8,0.1-1.2c0,0,0-0.1,0-0.1c0-0.5,0-0.9,0-1.4c0-0.4,0-0.8-0.1-1.2c0-0.1,0-0.2,0-0.3c-0.1-0.5-0.1-1-0.2-1.5
		c0-0.2-0.1-0.3-0.1-0.5c-0.3-1.5-0.8-2.8-1.1-3.7c0.9-0.1,2.3-0.3,3.8-0.8c0.1,0,0.2-0.1,0.4-0.1c0.5-0.2,1-0.3,1.4-0.5
		s0.9-0.4,1.3-0.6c0.4-0.2,0.7-0.4,1.1-0.6c0,0,0.1,0,0.1-0.1c0.4-0.2,0.7-0.5,1.1-0.7c0.2-0.2,0.4-0.3,0.6-0.5
		c0.1-0.1,0.2-0.2,0.4-0.3c0.3-0.3,0.6-0.6,0.8-0.9c0.1-0.2,0.3-0.3,0.4-0.5c0.1-0.2,0.2-0.3,0.3-0.5c0.2-0.2,0.3-0.5,0.4-0.7
		c0,0,0-0.1,0.1-0.1l-1.8-1.1c0,0,0,0.1-0.1,0.1c-0.1,0.2-0.3,0.5-0.5,0.7c-0.1,0.2-0.2,0.3-0.4,0.5l-12-7.1
		c0.1-0.2,0.1-0.4,0.2-0.5c0.1-0.2,0.2-0.5,0.4-0.7c0,0,0-0.1,0.1-0.1l-1.8-1.1c0,0,0,0.1-0.1,0.1c-0.1,0.2-0.3,0.5-0.4,0.7
		c-0.1,0.2-0.2,0.4-0.2,0.5s-0.2,0.4-0.2,0.5c-0.1,0.4-0.2,0.8-0.3,1.2c0,0.2-0.1,0.3-0.1,0.5c-0.1,0.2-0.1,0.5-0.1,0.7
		c-0.1,0.4-0.1,0.9-0.1,1.3c0,0,0,0.1,0,0.1c0,0.4,0,0.8,0,1.2c0,0.5,0.1,1,0.1,1.4c0.1,0.5,0.2,1,0.2,1.5c0,0.1,0.1,0.2,0.1,0.4
		c0.3,1.5,0.8,2.8,1.1,3.7c-0.9,0.1-2.3,0.3-3.8,0.8c-0.2,0-0.3,0.1-0.4,0.1c-0.5,0.2-1,0.3-1.4,0.5c-0.1,0-0.2,0.1-0.3,0.1
		c-0.4,0.2-0.7,0.3-1.1,0.5c-0.4,0.2-0.8,0.4-1.2,0.7c0,0-0.1,0-0.1,0.1c-0.3,0.2-0.7,0.4-1,0.7c-0.3,0.2-0.5,0.4-0.8,0.6
		c-0.1,0-0.1,0.1-0.2,0.2c-0.3,0.3-0.6,0.6-0.8,0.9c-0.2,0.2-0.4,0.4-0.5,0.7c-0.1,0.1-0.1,0.2-0.2,0.3c-0.2,0.2-0.3,0.4-0.4,0.7
		c-0.1,0.1-0.1,0.2-0.2,0.3c-0.1,0.1-0.2,0.3-0.2,0.4c-0.1,0.2-0.2,0.4-0.3,0.7c-0.2,0.4-0.3,0.8-0.4,1.1c0,0.1-0.1,0.2-0.1,0.3
		c-0.1,0.3-0.1,0.6-0.2,0.8c-0.1,0.4-0.1,0.8-0.2,1.3c0,0.4-0.1,0.9,0,1.3c0,0.4,0,0.8,0.1,1.3c0,0,0,0.1,0,0.1
		c0.1,0.5,0.1,1,0.2,1.5c0.1,0.3,0.1,0.6,0.2,0.9c0.3,1.5,0.8,2.9,1.2,3.8c-0.9,0.1-2.3,0.3-3.8,0.8c-0.1,0-0.2,0.1-0.4,0.1
		c-0.5,0.2-1,0.3-1.5,0.5c-0.1,0-0.1,0-0.1,0c-0.4,0.2-0.8,0.3-1.2,0.5c-0.4,0.2-0.8,0.4-1.2,0.7c-0.4,0.2-0.7,0.5-1.1,0.7
		c-0.2,0.2-0.5,0.4-0.7,0.5c-0.1,0.1-0.2,0.2-0.3,0.2c-0.3,0.3-0.6,0.6-0.8,0.9c-0.2,0.2-0.3,0.4-0.5,0.5c-0.1,0.1-0.2,0.2-0.3,0.4
		c-0.2,0.2-0.3,0.5-0.4,0.7l1.8,1.1c0.1-0.2,0.3-0.5,0.5-0.7c0.1-0.1,0.2-0.2,0.3-0.4l12,7.2c-0.1,0.2-0.1,0.3-0.2,0.4
		c-0.1,0.2-0.2,0.5-0.4,0.7l1.8,1.1c0.1-0.2,0.3-0.5,0.4-0.7C1044.8,684.9,1044.9,684.8,1045,684.6z M1053.7,642.1
		c0-0.5-0.1-0.9,0-1.4c0-0.3,0-0.5,0.1-0.8l10.7,6.4c-0.2,0.2-0.4,0.3-0.7,0.4c-0.4,0.2-0.8,0.4-1.2,0.6c0,0-0.1,0-0.1,0.1l-8.6-5.1
		C1053.7,642.2,1053.7,642.1,1053.7,642.1z M1054.2,645.1l5.3,3.2c-0.6,0.2-1.2,0.3-1.7,0.4c-1.3,0.2-2.3,0.3-2.3,0.3
		s-0.4-0.8-0.8-2.1C1054.6,646.3,1054.4,645.7,1054.2,645.1z M1050,652.1c0.6-0.2,1.2-0.3,1.7-0.4c1.4-0.2,2.4-0.3,2.4-0.3
		s0.4,0.9,0.9,2.2c0.2,0.5,0.3,1,0.5,1.7c0,0.1,0.1,0.2,0.1,0.3l-5.8-3.5C1049.8,652.2,1049.8,652.2,1050,652.1z M1045.8,653.8
		c0.4-0.2,0.7-0.4,1.1-0.6l8.9,5.3c0,0.4,0,0.8,0,1.2c0,0.3,0,0.7-0.1,1l-10.9-6.5C1045.2,654.1,1045.5,653.9,1045.8,653.8z
		 M1042.3,657.2c0.1-0.1,0.1-0.2,0.2-0.3c0.1-0.2,0.3-0.4,0.4-0.6c0.1-0.1,0.2-0.2,0.2-0.3l12.1,7.2c0,0.1-0.1,0.2-0.1,0.3
		c-0.1,0.2-0.2,0.5-0.4,0.7c-0.1,0.1-0.1,0.2-0.2,0.3c-0.1,0.1-0.2,0.3-0.3,0.4l-12.1-7.2C1042.2,657.5,1042.3,657.3,1042.3,657.2z
		 M1041.4,660.7c0-0.3,0.1-0.6,0.1-0.9l11.1,6.6c-0.2,0.2-0.5,0.3-0.8,0.5c-0.4,0.2-0.8,0.5-1.2,0.7l-9.2-5.5
		C1041.4,661.6,1041.4,661.2,1041.4,660.7z M1042.3,666.7c-0.2-0.5-0.3-1-0.4-1.6c0,0,0-0.1,0-0.2l6.2,3.7c-0.1,0-0.1,0-0.2,0
		c-0.6,0.2-1.1,0.3-1.6,0.4c-1.7,0.3-2.9,0.4-2.9,0.4S1042.8,668.3,1042.3,666.7z M1037.8,672.7c0.6-0.2,1.2-0.3,1.7-0.4
		c1.3-0.2,2.3-0.3,2.3-0.3s0.4,0.8,0.8,2.1c0.2,0.5,0.3,1,0.5,1.7c0,0,0,0.1,0,0.2l-5.5-3.3C1037.7,672.7,1037.8,672.7,1037.8,672.7
		z M1032.9,674.8c0.3-0.2,0.5-0.3,0.8-0.5c0.4-0.2,0.8-0.4,1.2-0.6l8.7,5.2c0,0.5,0.1,0.9,0,1.4c0,0.3,0,0.6-0.1,0.9L1032.9,674.8z"
		/>
</g>
<g>
	<path class="st1" d="M1173.4,732.7c-1.3-0.8-2.8-0.7-4,0c-0.5,0.3-1.1,0.3-1.6,0l0,0c-0.8-0.5-1.1-1.5-0.6-2.2l3.7-6.4
		c1-1.7,1-3.9,0-5.6l-4.3-7.4c-0.4-0.8-0.2-1.8,0.6-2.2l0,0c0.5-0.3,1.1-0.3,1.6,0c1.2,0.7,2.7,0.7,4,0c1.8-1.1,2.5-3.4,1.6-5.3
		c-1.1-2-3.6-2.8-5.6-1.6c-1.3,0.7-2,2.1-2,3.5c0,0.6-0.3,1.1-0.8,1.4l0,0c-0.8,0.5-1.8,0.2-2.2-0.6l-3.6-6.3
		c-1-1.7-2.9-2.8-4.9-2.8h-8.6c-0.9,0-1.7-0.7-1.7-1.7l0,0c0-0.6,0.3-1.1,0.8-1.4c1.2-0.7,2-2,2-3.5c0-2.1-1.7-3.9-3.8-4
		c-2.3-0.1-4.2,1.7-4.2,4c0,1.5,0.8,2.8,2,3.5c0.5,0.3,0.8,0.8,0.8,1.4l0,0c0,0.9-0.7,1.7-1.7,1.7h-7.2c-2,0-3.9,1.1-4.9,2.8
		l-4.3,7.5c-0.4,0.8-1.5,1-2.2,0.6l0,0c-0.5-0.3-0.8-0.8-0.8-1.4c0-1.4-0.7-2.7-2-3.5c-1.8-1-4.2-0.5-5.4,1.3
		c-1.2,1.9-0.6,4.5,1.4,5.7c1.3,0.7,2.8,0.7,4,0c0.5-0.3,1.1-0.2,1.6,0l0,0c0.8,0.5,1.1,1.5,0.6,2.2l-3.6,6.2c-1,1.7-1,3.9,0,5.6
		l4.2,7.3c0.4,0.8,0.2,1.8-0.6,2.2l0,0c-0.5,0.3-1.1,0.3-1.6,0c-1.2-0.7-2.7-0.7-4,0c-1.8,1.1-2.5,3.4-1.6,5.3
		c1.1,2,3.6,2.8,5.6,1.6c1.3-0.7,2-2.1,2-3.5c0-0.6,0.3-1.1,0.8-1.3l0,0c0.8-0.5,1.8-0.2,2.2,0.6l3.7,6.4c1,1.7,2.9,2.8,4.9,2.8h8.4
		c0.9,0,1.6,0.7,1.6,1.6l0,0c0,0.6-0.3,1.1-0.8,1.4c-1.2,0.7-2,2-2,3.5c0,2.1,1.7,3.9,3.8,4c2.3,0.1,4.2-1.7,4.2-4
		c0-1.5-0.8-2.8-2-3.5c-0.5-0.3-0.8-0.8-0.8-1.4l0,0c0-0.9,0.7-1.6,1.6-1.6h7.4c2,0,3.9-1.1,4.9-2.8l4.2-7.3c0.4-0.8,1.4-1,2.2-0.6
		l0,0c0.5,0.3,0.8,0.8,0.8,1.4c0,1.4,0.7,2.7,2,3.5c2,1.1,4.5,0.4,5.6-1.6C1176,736.1,1175.3,733.8,1173.4,732.7z"/>
	<path class="st0" d="M1141.3,738.1c0.1-0.2,0.1-0.3,0.2-0.5c0.1-0.3,0.2-0.5,0.2-0.8c0-0.1,0-0.2,0.1-0.2c0-0.2,0.1-0.4,0.1-0.6
		c0-0.3,0.1-0.6,0.1-0.9c0-0.3,0-0.6,0-0.9c0-0.3,0-0.6-0.1-0.9c0,0,0-0.1,0-0.1c0-0.3-0.1-0.7-0.2-1c0-0.1,0-0.2-0.1-0.2
		c-0.2-1-0.5-2-0.8-2.6c0.7-0.1,1.6-0.2,2.6-0.5c0.2-0.1,0.4-0.1,0.6-0.2c0.3-0.1,0.7-0.2,1-0.4c0,0,0.1,0,0.1,0
		c0.3-0.1,0.5-0.2,0.8-0.4c0.3-0.1,0.5-0.3,0.8-0.5c0.2-0.2,0.5-0.3,0.7-0.5c0.2-0.1,0.3-0.2,0.4-0.4c0.1-0.1,0.1-0.1,0.2-0.2
		c0.2-0.2,0.4-0.4,0.6-0.6c0.1-0.1,0.2-0.2,0.3-0.4c0.1-0.1,0.1-0.2,0.2-0.3c0.1-0.1,0.1-0.2,0.2-0.2c0.1-0.2,0.2-0.3,0.2-0.5
		c0-0.1,0.1-0.1,0.1-0.2c0.1-0.2,0.2-0.3,0.2-0.5c0.1-0.3,0.2-0.5,0.2-0.8c0,0,0-0.1,0-0.2c0.1-0.2,0.1-0.4,0.1-0.7
		c0-0.3,0.1-0.5,0.1-0.8c0,0,0-0.1,0-0.1c0-0.3,0-0.6,0-0.9c0-0.3,0-0.5-0.1-0.8c0-0.1,0-0.1,0-0.2c0-0.3-0.1-0.7-0.2-1
		c0-0.1,0-0.2-0.1-0.3c-0.2-1-0.5-1.9-0.8-2.5c0.7-0.1,1.6-0.2,2.6-0.5c0.1,0,0.2,0,0.2-0.1c0.3-0.1,0.7-0.2,1-0.3
		c0.3-0.1,0.6-0.2,0.9-0.4c0.3-0.1,0.5-0.3,0.7-0.4c0,0,0.1,0,0.1,0c0.3-0.2,0.5-0.3,0.7-0.5c0.1-0.1,0.3-0.2,0.4-0.3
		c0.1-0.1,0.2-0.2,0.3-0.2c0.2-0.2,0.4-0.4,0.6-0.6c0.1-0.1,0.2-0.2,0.3-0.3c0.1-0.1,0.2-0.2,0.2-0.3c0.1-0.2,0.2-0.3,0.3-0.5
		c0,0,0,0,0-0.1l-1.3-0.8c0,0,0,0,0,0.1c-0.1,0.2-0.2,0.3-0.3,0.5c-0.1,0.1-0.2,0.2-0.3,0.3l-8.2-4.9c0.1-0.1,0.1-0.2,0.2-0.4
		c0.1-0.2,0.2-0.3,0.3-0.5c0,0,0,0,0-0.1l-1.3-0.8c0,0,0,0,0,0.1c-0.1,0.2-0.2,0.3-0.3,0.5c-0.1,0.1-0.1,0.2-0.2,0.4
		c-0.1,0.1-0.1,0.2-0.2,0.4c-0.1,0.3-0.2,0.5-0.2,0.8c0,0.1-0.1,0.2-0.1,0.3c0,0.2-0.1,0.3-0.1,0.5c0,0.3-0.1,0.6-0.1,0.9
		c0,0,0,0.1,0,0.1c0,0.3,0,0.6,0,0.8c0,0.3,0,0.7,0.1,1c0,0.3,0.1,0.7,0.2,1c0,0.1,0,0.2,0.1,0.3c0.2,1,0.5,1.9,0.8,2.5
		c-0.7,0.1-1.6,0.2-2.6,0.5c-0.1,0-0.2,0.1-0.3,0.1c-0.3,0.1-0.7,0.2-1,0.3c-0.1,0-0.1,0-0.2,0.1c-0.2,0.1-0.5,0.2-0.7,0.3
		c-0.3,0.1-0.6,0.3-0.8,0.5c0,0-0.1,0-0.1,0c-0.2,0.1-0.4,0.3-0.7,0.5c-0.2,0.1-0.4,0.3-0.5,0.4c0,0-0.1,0.1-0.1,0.1
		c-0.2,0.2-0.4,0.4-0.6,0.6c-0.1,0.1-0.2,0.3-0.4,0.4c-0.1,0.1-0.1,0.1-0.1,0.2c-0.1,0.1-0.2,0.3-0.3,0.4c-0.1,0.1-0.1,0.2-0.1,0.2
		c-0.1,0.1-0.1,0.2-0.2,0.3c-0.1,0.1-0.1,0.3-0.2,0.4c-0.1,0.2-0.2,0.5-0.3,0.8c0,0.1,0,0.2-0.1,0.2c-0.1,0.2-0.1,0.4-0.1,0.6
		c-0.1,0.3-0.1,0.6-0.1,0.9s0,0.6,0,0.9c0,0.3,0,0.6,0.1,0.9c0,0,0,0.1,0,0.1c0,0.3,0.1,0.7,0.1,1c0,0.2,0.1,0.4,0.1,0.6
		c0.2,1,0.5,2,0.8,2.6c-0.7,0.1-1.6,0.2-2.6,0.5c-0.1,0-0.2,0-0.2,0.1c-0.3,0.1-0.7,0.2-1,0.3c0,0-0.1,0-0.1,0
		c-0.3,0.1-0.6,0.2-0.8,0.4c-0.3,0.1-0.6,0.3-0.8,0.4c-0.3,0.2-0.5,0.3-0.7,0.5c-0.2,0.1-0.3,0.2-0.5,0.4c-0.1,0-0.1,0.1-0.2,0.2
		c-0.2,0.2-0.4,0.4-0.6,0.6c-0.1,0.1-0.2,0.2-0.3,0.4c-0.1,0.1-0.1,0.2-0.2,0.3c-0.1,0.2-0.2,0.3-0.3,0.5l1.2,0.8
		c0.1-0.2,0.2-0.3,0.3-0.5c0.1-0.1,0.1-0.2,0.2-0.2l8.2,4.9c0,0.1-0.1,0.2-0.1,0.3c-0.1,0.2-0.2,0.3-0.3,0.5l1.3,0.8
		c0.1-0.2,0.2-0.3,0.3-0.5C1141.2,738.3,1141.3,738.2,1141.3,738.1z M1147.3,709.1c0-0.3,0-0.6,0-1c0-0.2,0-0.4,0-0.5l7.3,4.3
		c-0.2,0.1-0.3,0.2-0.5,0.3c-0.3,0.2-0.6,0.3-0.8,0.4c0,0-0.1,0-0.1,0l-5.9-3.5C1147.3,709.2,1147.3,709.1,1147.3,709.1z
		 M1147.6,711.2l3.6,2.2c-0.4,0.1-0.8,0.2-1.2,0.2c-0.9,0.2-1.6,0.2-1.6,0.2s-0.3-0.6-0.6-1.5C1147.9,712,1147.7,711.6,1147.6,711.2
		z M1144.7,716c0.4-0.1,0.8-0.2,1.2-0.2c0.9-0.2,1.6-0.2,1.6-0.2s0.3,0.6,0.6,1.5c0.1,0.3,0.2,0.7,0.3,1.1c0,0.1,0,0.1,0.1,0.2
		l-3.9-2.3C1144.6,716,1144.6,716,1144.7,716z M1141.9,717.1c0.2-0.1,0.5-0.3,0.8-0.4l6.1,3.6c0,0.3,0,0.6,0,0.8
		c0,0.2,0,0.5-0.1,0.7l-7.4-4.4C1141.5,717.3,1141.7,717.2,1141.9,717.1z M1139.5,719.4c0-0.1,0.1-0.2,0.1-0.2
		c0.1-0.2,0.2-0.3,0.3-0.4c0.1-0.1,0.1-0.1,0.2-0.2l8.2,4.9c0,0.1-0.1,0.2-0.1,0.2c-0.1,0.2-0.2,0.3-0.2,0.5
		c-0.1,0.1-0.1,0.2-0.2,0.2c-0.1,0.1-0.1,0.2-0.2,0.3l-8.3-4.9C1139.4,719.6,1139.5,719.5,1139.5,719.4z M1138.9,721.8
		c0-0.2,0-0.4,0.1-0.6l7.6,4.5c-0.2,0.1-0.3,0.2-0.5,0.3c-0.3,0.2-0.5,0.3-0.8,0.5l-6.3-3.8C1138.9,722.5,1138.9,722.2,1138.9,721.8
		z M1139.5,725.9c-0.1-0.3-0.2-0.7-0.3-1.1c0,0,0-0.1,0-0.1l4.2,2.5c0,0-0.1,0-0.1,0c-0.4,0.1-0.8,0.2-1.1,0.3c-1.2,0.2-2,0.3-2,0.3
		S1139.8,727,1139.5,725.9z M1136.4,730c0.4-0.1,0.8-0.2,1.2-0.2c0.9-0.2,1.6-0.2,1.6-0.2s0.3,0.6,0.6,1.5c0.1,0.3,0.2,0.7,0.3,1.1
		c0,0,0,0.1,0,0.1l-3.7-2.2C1136.4,730,1136.4,730,1136.4,730z M1133.1,731.4c0.2-0.1,0.3-0.2,0.5-0.3c0.3-0.2,0.6-0.3,0.8-0.4
		l6,3.5c0,0.3,0,0.6,0,1c0,0.2,0,0.4,0,0.6L1133.1,731.4z"/>
</g>
<g>
	<path class="st0" d="M333.1,1442.8c5.1,1.1,10.4,1.7,15.9,1.7c4.6,0,9.3-0.4,14.2-1.1c5.4-0.8,11-2.1,16.6-3.9
		c0.4-0.1,0.9-0.3,1.3-0.4c5.2-1.7,10.5-3.7,15.9-6.2c6.5-2.9,13.2-6.4,20-10.4c3.6-2.1,7.2-4.3,10.8-6.8c2.3-1.5,4.6-3.1,6.8-4.6
		c17.9-12.5,31.9-25.2,38.5-31.5c2.2,5,5.5,11.9,10,19.8c2.5,4.5,5.4,9.3,8.7,14.3c0.1,0.1,0.1,0.2,0.2,0.3
		c3.6,5.4,7.4,10.6,11.4,15.4c3.3,4,6.6,7.8,10,11.4c2.3,2.4,4.7,4.7,7.1,6.9c1.8,1.7,3.7,3.2,5.5,4.8c3.6,3,7.3,5.7,11.1,8.2
		c4.5,3,9.1,5.7,13.8,8c4,1.9,8,3.7,12.1,5.1c0.7,0.2,1.3,0.5,2,0.7c4.3,1.4,8.6,2.6,13.1,3.5c4.3,0.9,8.7,1.5,13.2,1.9
		c2.2,0.2,4.5,0.3,6.8,0.4l2.3-6.8c-2.3,0-4.6,0-6.9-0.2c-4.4-0.2-8.9-0.7-13.3-1.5c-4.4-0.8-8.8-1.9-13.1-3.3
		c-0.7-0.2-1.3-0.5-2-0.7c-4.2-1.5-8.2-3.3-12.1-5.3c-4.8-2.5-9.3-5.4-13.7-8.5c-3.8-2.8-7.4-5.8-10.9-8.9c-4.4-4-8.5-8.3-12.3-12.7
		c-3.5-4-6.8-8.2-9.7-12.3c-4.1-5.7-7.8-11.4-10.9-16.7c-3.4-5.8-6.3-11.2-8.5-15.8c-4.1-8.4-6.3-14.3-6.7-15.2c0-0.1,0-0.1,0-0.1
		s0.1,0,0.2-0.1c1-0.7,6.3-4,14.4-8.1c4.6-2.3,10.1-5,16.4-7.6c5.7-2.4,12-4.7,18.8-6.8c4.8-1.5,9.9-2.8,15.2-4
		c5.7-1.2,11.5-2.2,17.4-2.8c4.6-0.4,9.3-0.7,14-0.6c5.3,0.1,10.7,0.5,16,1.4c4.3,0.7,8.6,1.7,12.8,3c0.7,0.2,1.4,0.4,2,0.6
		c4.3,1.4,8.5,3.2,12.5,5.2c4,2,7.9,4.3,11.6,6.8c1.9,1.3,3.8,2.6,5.6,4l2.3-6.8c-1.9-1.3-3.8-2.5-5.7-3.7
		c-3.8-2.4-7.7-4.5-11.7-6.4c-4.1-1.9-8.3-3.6-12.6-5.1c-0.7-0.2-1.3-0.4-2-0.6c-4.2-1.3-8.4-2.4-12.8-3.2c-5.2-1-10.5-1.6-15.8-1.9
		c-4.5-0.3-9.1-0.3-13.8-0.1c-2.4,0.1-4.8,0.3-7.3,0.5c-3.2,0.3-6.5,0.7-9.8,1.3c-4.9,0.8-9.8,1.8-14.8,3.1
		c-6,1.5-12.2,3.4-18.3,5.6c-0.1,0.1-0.3,0.1-0.4,0.1c-5.6,2-10.8,4.1-15.6,6.2c-8.3,3.7-15,7.2-19.8,9.8c-1.5-8.9-5.1-27.6-12-48.4
		c-0.8-2.6-1.7-5.1-2.7-7.8c-1.5-4.1-3-8.1-4.6-11.9c-3-7.3-6.3-14.1-9.7-20.3c-2.9-5.2-5.9-10-9-14.4c-0.3-0.4-0.5-0.7-0.8-1.1
		c-3.5-4.8-7.2-9.2-11-13.1c-3.4-3.5-7-6.7-10.7-9.4c-4.4-3.3-9-6-13.8-8.2c-2.3-1-4.6-1.9-6.9-2.7c-1.8-0.6-3.6-1.1-5.5-1.6
		c-5.1-1.2-10.3-1.9-15.8-2.1c-4.6-0.1-9.3,0.2-14.1,0.8c-5.8,0.8-11.7,2.1-17.8,4c-0.2,0.1-0.5,0.2-0.8,0.2
		c-4.9,1.5-9.9,3.4-15,5.6c-6.5,2.8-13.1,6.2-19.8,10c-4.3,2.5-8.7,5.2-13.1,8.1c-1.5,1-3,2-4.4,2.9c-19.1,13.1-34.1,26.7-40.9,33.2
		c-2.2-5-5.5-11.9-9.9-19.8c-2.5-4.5-5.4-9.3-8.7-14.2c-0.1-0.1-0.2-0.3-0.3-0.4c-3.6-5.4-7.4-10.6-11.4-15.4
		c-3.3-4-6.6-7.8-10.1-11.3c-2.3-2.4-4.7-4.7-7.1-6.9c-1.8-1.7-3.7-3.3-5.6-4.8c-3.6-3-7.3-5.7-11.1-8.2c-4.5-3-9.1-5.7-13.8-8
		c-4-1.9-8-3.7-12.1-5.1c-0.6-0.2-1.3-0.5-2-0.7c-4.3-1.4-8.7-2.6-13.1-3.5c-4.3-0.9-8.7-1.5-13.2-1.9c-2.2-0.2-4.5-0.3-6.8-0.4
		l-2.3,6.8c2.3,0,4.6,0,6.9,0.2c4.4,0.2,8.9,0.7,13.3,1.5c4.4,0.8,8.8,1.9,13.2,3.3c0.7,0.2,1.3,0.4,2,0.7c4.2,1.5,8.2,3.3,12.1,5.3
		c4.8,2.5,9.4,5.4,13.7,8.5c3.8,2.8,7.4,5.8,10.9,8.9c4.4,4,8.5,8.3,12.3,12.6c3.5,4,6.8,8.2,9.7,12.3c4.1,5.7,7.8,11.3,10.9,16.7
		c3.4,5.8,6.3,11.2,8.6,15.8c4,8.2,6.2,13.9,6.7,15.2c0.1,0.2,0.1,0.3,0.1,0.3s-0.1,0-0.2,0.1c-1,0.6-6.2,3.9-14.5,8.2
		c-4.6,2.3-10.1,5-16.4,7.6c-5.7,2.4-12,4.7-18.8,6.8c-4.9,1.5-9.9,2.8-15.2,4c-5.6,1.2-11.5,2.2-17.4,2.8c-4.6,0.4-9.3,0.7-14,0.6
		c-5.3-0.1-10.7-0.5-16-1.4c-4.3-0.7-8.6-1.7-12.8-3c-0.7-0.2-1.3-0.4-2-0.6c-4.4-1.4-8.5-3.2-12.6-5.2c-4-2-7.9-4.3-11.6-6.8
		c-1.9-1.3-3.8-2.6-5.6-4l-2.3,6.8c1.9,1.3,3.8,2.5,5.7,3.7c3.8,2.4,7.7,4.5,11.7,6.4c4.1,2,8.3,3.7,12.6,5.1c0.7,0.2,1.3,0.4,2,0.6
		c4.2,1.3,8.4,2.4,12.8,3.2c5.2,1,10.4,1.6,15.9,1.9c4.5,0.3,9.1,0.3,13.8,0.1c2.4-0.1,4.9-0.3,7.3-0.5c3.2-0.3,6.5-0.7,9.8-1.3
		c4.9-0.8,9.8-1.8,14.9-3.1c6-1.5,12.2-3.4,18.3-5.6c0.1-0.1,0.3-0.1,0.4-0.2c5.6-2,10.8-4.1,15.5-6.2c8.3-3.7,15.1-7.2,19.9-9.9
		c1.6,9.4,5.4,29.2,12.8,51c0.6,1.7,1.1,3.3,1.8,5c1.8,5,3.7,9.8,5.6,14.3c3.1,7.2,6.4,13.8,9.9,19.9c2.8,4.8,5.6,9.4,8.6,13.5
		c0.2,0.2,0.3,0.4,0.5,0.6c3.8,5.2,7.7,9.8,11.9,13.8c3.5,3.4,7.1,6.4,10.8,9.1c4.5,3.2,9.1,5.8,13.9,7.8c1.8,0.8,3.5,1.4,5.3,2
		C328.2,1441.6,330.6,1442.2,333.1,1442.8z M323.8,1429c-4.9-2.2-9.4-5-13.7-8.4c-3.7-3-7.2-6.3-10.5-10c-4.1-4.7-8-9.8-11.4-15.2
		c-3.1-5-6-10.2-8.7-15.5c-3.5-7.2-6.6-14.5-9.2-21.8c-2.7-7.2-4.9-14.4-6.8-21.1c-5.9-20.8-8.3-37.3-8.6-39.6c0-0.2,0-0.3,0-0.3
		s0,0,0.1-0.1c1.2-1.3,13.2-13.2,30.7-26.6c5.5-4.2,11.6-8.6,18.1-12.8c6.5-4.2,13.4-8.3,20.5-11.9c5.3-2.7,10.8-5.2,16.2-7.2
		c6-2.3,12.2-4.1,18.3-5.4c4.8-1,9.6-1.6,14.4-1.7c5.4-0.2,10.8,0.3,16,1.5c1.9,0.4,3.7,0.9,5.5,1.5c2.4,0.8,4.7,1.7,6.9,2.8
		c4.8,2.3,9.3,5.3,13.5,8.8c3.7,3.1,7.1,6.6,10.4,10.3c4.1,4.8,7.9,10.1,11.3,15.7c3.1,5.1,6,10.4,8.5,15.9
		c3.5,7.3,6.5,14.8,9.1,22.2c2.6,7.4,4.9,14.7,6.7,21.4c5.4,20,7.6,35.3,7.8,36.7c0,0.1,0,0.1,0,0.1s-0.1,0.1-0.2,0.2
		c-1.4,1.4-12.2,12.2-28.2,24.6c-5.5,4.3-11.6,8.8-18.2,13.2c-6.5,4.3-13.4,8.5-20.6,12.3c-5.3,2.8-10.8,5.4-16.4,7.6
		c-6.1,2.4-12.2,4.4-18.4,5.8c-4.9,1.1-9.7,1.8-14.5,2c-5.5,0.3-10.9,0-16.1-1.1c-2.4-0.5-4.8-1.1-7.2-1.9
		C327.3,1430.5,325.5,1429.8,323.8,1429z"/>
	<path class="st1" d="M312.8,1369.6c4,1.7,8.1,3.3,12.3,4.7l6.9-20.8c-7.1,1.7-12.9,3.9-15.5,5.1L312.8,1369.6z"/>
	<path class="st2" d="M348.7,1351.4l-5.6,16.8c4,1.7,8,3.3,12.2,4.8l6.6-19.8C357.9,1352,353.5,1351.4,348.7,1351.4z"/>
	<path class="st2" d="M376.4,1362.1l-5.1,15.5c4,1.8,8,3.4,12.2,4.8l1.9-5.8c-1.1-2.2-2.2-4.4-3.4-6.5
		C380.4,1367,378.5,1364.4,376.4,1362.1z"/>
	<path class="st1" d="M407.2,1456.6c4,1.7,8.1,3.3,12.3,4.7l1.4-4.3c-2.7-5.8-5.4-11.7-7.9-17.7L407.2,1456.6z"/>
	<path class="st2" d="M432.6,1479.6l-5.9,17.7c3.9,2,7.9,3.8,12.1,5.2l2.9-8.7C438.5,1489.4,435.5,1484.6,432.6,1479.6z"/>
	<path class="st1" d="M449.4,1519.3c3.9,1.9,7.9,3.7,12.1,5.2l3.1-9.3c-4-2.9-7.6-5.7-11-8.6L449.4,1519.3z"/>
	<path class="st1" d="M473.6,1540.5c3.9,1.9,7.9,3.7,12.1,5.2l4.7-14.1c-3.9-2.2-7.8-4.5-11.5-6.9L473.6,1540.5z"/>
	<path class="st2" d="M499.5,1554.3c3.9,1.9,7.9,3.7,12.1,5.2l4.7-14.1c-3.9-1.9-7.8-4-11.8-6.1L499.5,1554.3z"/>
	<path class="st2" d="M530.4,1552.2l-5.4,16.2c3.9,1.9,7.9,3.7,12.1,5.2l5.3-15.8C538.7,1556.1,534.6,1554.2,530.4,1552.2z"/>
	<path class="st2" d="M294,1286.9l9.7-29.2c-6.5,4.2-12.6,8.6-18.1,12.8l-9.9,29.7C277.4,1298.7,284.1,1293.2,294,1286.9z"/>
	<path class="st1" d="M273.8,1305.9l-10.4,31.1c1.9,6.7,4.1,13.8,6.8,21.1l10.2-30.6C276.4,1316.5,274.3,1308.1,273.8,1305.9z"/>
	<path class="st2" d="M340.4,1238.5c-5.5,2.1-10.9,4.5-16.2,7.2l-9.8,29.5c5.5-2.7,10.8-4.9,16.1-6.8L340.4,1238.5z"/>
	<path class="st1" d="M289.8,1349l-10.3,30.9c2.6,5.3,5.5,10.6,8.7,15.5l10.4-31.3C295.5,1359.4,292.6,1354.4,289.8,1349z"/>
	<path class="st2" d="M310.2,1378.7l-10.6,31.9c3.3,3.7,6.8,7,10.5,10l10.8-32.3C317.2,1385.6,313.6,1382.3,310.2,1378.7z"/>
	<path class="st1" d="M362.8,1262.4l10.3-30.9c-4.8,0.1-9.6,0.7-14.4,1.7l-10.2,30.6C353.4,1262.9,358.2,1262.4,362.8,1262.4z"/>
	<path class="st1" d="M340.5,1398.8c-2-0.7-4-1.4-5.9-2.3l-10.8,32.5c1.7,0.8,3.5,1.5,5.3,2.1c2.4,0.8,4.8,1.4,7.2,1.9l10.8-32.3
		C344.9,1400.2,342.7,1399.6,340.5,1398.8z"/>
	<path class="st2" d="M384.9,1265.8c2.1,0.7,4.2,1.5,6.3,2.5l10.3-31c-2.2-1.1-4.5-2-6.9-2.8c-1.8-0.6-3.6-1.1-5.5-1.5l-10.4,31.1
		C380.8,1264.6,382.9,1265.1,384.9,1265.8z"/>
	<path class="st1" d="M363,1402.2l-10.6,31.8c4.8-0.2,9.6-0.9,14.5-2l10.4-31.2C372.4,1401.7,367.7,1402.2,363,1402.2z"/>
	<path class="st2" d="M415.5,1286.3l9.9-29.8c-3.2-3.8-6.7-7.2-10.4-10.3l-10.1,30.4C408.6,1279.4,412.1,1282.6,415.5,1286.3z"/>
	<path class="st1" d="M435.9,1316.2l9.4-28.2c-2.6-5.4-5.4-10.8-8.5-15.9l-9.6,28.9C430.2,1305.7,433.1,1310.8,435.9,1316.2z"/>
	<path class="st2" d="M395.4,1398c-0.1-0.2-0.2-0.5-0.3-0.8l-9.7,29c5.5-2.2,11-4.8,16.4-7.6l1.1-3.3c-0.4-0.9-0.8-1.8-1.1-2.7
		C399.6,1407.8,397.5,1402.8,395.4,1398z"/>
	<path class="st1" d="M432,1377.4l-9.6,29c6.6-4.4,12.7-8.9,18.2-13.2l9.8-29.3l-0.2,0.2C449.7,1364.5,442.8,1370.4,432,1377.4z"/>
	<path class="st2" d="M451.7,1359.3l0.1,0.2l9.3-27.9c-1.8-6.8-4-14-6.7-21.4l-9.2,27.6C449.6,1349.9,451.6,1358.7,451.7,1359.3z"/>
	<path class="st1" d="M143.4,1193.9c-4.4-0.8-8.9-1.3-13.3-1.5l-19,57.2l12.4,4.2L143.4,1193.9z"/>
	<path class="st2" d="M111.1,1249.5l-18.9,56.9c3.7,2.5,7.6,4.8,11.6,6.8l19.8-59.5L111.1,1249.5z"/>
	<path class="st2" d="M170.7,1203.2c-3.9-2-7.9-3.8-12.1-5.3l-20.2,60.7l12.4,4.2L170.7,1203.2z"/>
	<path class="st1" d="M138.4,1258.6l-20.1,60.4c4.2,1.3,8.5,2.3,12.8,3l19.7-59.3L138.4,1258.6z"/>
	<path class="st2" d="M195.2,1220.6c-3.4-3.1-7.1-6.1-10.9-8.9l-18.7,56l12.4,4.2L195.2,1220.6z"/>
	<path class="st1" d="M165.7,1267.7l-18.6,55.7c4.7,0.1,9.4-0.2,14-0.6l17-50.9L165.7,1267.7z"/>
	<path class="st2" d="M193,1276.8l-14.4,43.2c5.2-1.1,10.3-2.5,15.2-4l11.7-35.1L193,1276.8z"/>
	<path class="st1" d="M217.2,1245.5c-3-4.1-6.2-8.2-9.7-12.3l-14.5,43.6l12.4,4.2L217.2,1245.5z"/>
	<path class="st1" d="M220.3,1285.9l-7.8,23.4c6.2-2.6,11.8-5.2,16.4-7.6l3.9-11.7L220.3,1285.9z"/>
	<path class="st2" d="M236.7,1278c-2.3-4.6-5.1-10-8.6-15.8l-7.9,23.7l12.4,4.2L236.7,1278z"/>
	<path class="st1" d="M486.9,1387.7c2.3,4.6,5.1,10,8.5,15.8l7.8-23.3l-12.5-4.2L486.9,1387.7z"/>
	<path class="st2" d="M503.3,1380.2l7.9-23.7c-6.2,2.6-11.8,5.2-16.4,7.6l-4,12L503.3,1380.2z"/>
	<path class="st2" d="M506.4,1420.2c3,4.1,6.2,8.2,9.7,12.3l14.4-43.2l-12.5-4.2L506.4,1420.2z"/>
	<path class="st1" d="M530.6,1389.3l14.5-43.5c-5.2,1.1-10.3,2.5-15.2,4l-11.8,35.4L530.6,1389.3z"/>
	<path class="st1" d="M390.3,1406.1c3.5,2.4,7.2,4.9,11,7.2l0.4-0.7c-2.1-4.9-4.2-9.8-6.3-14.7L390.3,1406.1z"/>
	<path class="st1" d="M528.5,1445.1c3.4,3.1,7,6.1,10.9,8.9l18.5-55.7l-12.5-4.2L528.5,1445.1z"/>
	<path class="st2" d="M557.9,1398.3l18.7-56c-4.7-0.1-9.4,0.2-14,0.6l-17.1,51.2L557.9,1398.3z"/>
	<path class="st1" d="M585.2,1407.4l20.2-60.7c-4.2-1.3-8.5-2.3-12.8-3l-19.8,59.6L585.2,1407.4z"/>
	<path class="st2" d="M553,1462.5c3.9,2,7.9,3.8,12.1,5.3l20.1-60.4l-12.5-4.2L553,1462.5z"/>
	<path class="st2" d="M612.5,1416.5l19-57.2c-3.7-2.5-7.5-4.8-11.6-6.8l-19.9,59.8L612.5,1416.5z"/>
	<path class="st1" d="M580.2,1471.9c4.4,0.8,8.9,1.3,13.3,1.5l18.9-56.9l-12.5-4.2L580.2,1471.9z"/>
	<path class="st1" d="M403.1,1393c-0.3-0.7-0.6-1.3-0.9-2c-3.9-8.8-8-17.4-12.2-25.2c-0.2-0.4-0.4-0.8-0.7-1.2
		c-2.7-4.7-6-8.8-9.8-12c-4.3-3.6-9.2-6.3-14.8-8c-4-1.2-8.4-2-13.1-2.2c-3.3-0.2-6.8-0.1-10.4,0.3c-2.7,0.3-5.4,0.7-7.9,1.2
		c-5.1,1-9.6,2.3-13.3,3.6c-5.5,1.9-9,3.6-9.3,3.7l4,8.2c0,0,0.6-0.3,1.6-0.7c2.7-1.1,8.4-3.4,15.5-5.1c3.3-0.8,6.8-1.4,10.5-1.8
		c2.2-0.2,4.2-0.3,6.3-0.3c4.8,0,9.2,0.6,13.2,1.8c5.7,1.7,10.5,4.7,14.5,8.8c2.1,2.3,4,4.9,5.6,8c1.1,2.1,2.2,4.3,3.4,6.5
		c3.3,6.6,6.5,13.5,9.6,20.7l0.4-1.2C398,1395.1,400.5,1394.1,403.1,1393z"/>
	<path class="st1" d="M519.2,1536.6c-3.9-1.9-7.8-4-11.8-6.1c-4.7-2.5-9.5-5.1-14.1-7.8c-3.9-2.3-7.8-4.6-11.5-6.9
		c-5-3.2-9.8-6.4-14.2-9.7c-4-3-7.7-6-10.8-9c-2.9-2.8-5.4-5.5-7.3-8.1c-1.4-1.9-2.8-4-4.1-6.1c-3-4.7-6-9.8-8.8-15.1
		c-3.9-7.4-7.7-15.3-11.3-23.5c-2.4-5.3-4.8-10.8-7.1-16.3c-1.6-3.7-3.1-7.4-4.6-11c-1.9-4.6-3.9-9.2-5.9-13.9
		c-0.1-0.3-0.3-0.6-0.4-0.9l-4.4,13.1c0.7,1.8,1.5,3.5,2.2,5.2c2.6,6.2,5.3,12.5,8,18.7c2.6,6,5.2,11.9,7.9,17.7
		c3.7,7.9,7.6,15.5,11.6,22.6c2.9,5.1,5.9,9.8,9.1,14.2c0.1,0.2,0.3,0.4,0.4,0.6c2.9,4,6.9,8.1,11.6,12.2c3.3,2.9,7,5.8,11,8.6
		c4.5,3.2,9.2,6.4,14.2,9.5c3.8,2.3,7.6,4.6,11.5,6.9c4.7,2.7,9.4,5.3,14.1,7.8c4,2.1,7.9,4.1,11.8,6.1c4.9,2.4,9.6,4.7,14.1,6.8
		l2.9-8.7C528.8,1541.4,524,1539.1,519.2,1536.6z"/>
	<path class="st1" d="M403.1,1393c-2.6,1.1-5.1,2.1-7.7,3l-0.4,1.2c0.1,0.2,0.2,0.5,0.3,0.8c2.1,4.9,4.2,9.8,6.3,14.7
		c0.4,0.9,0.8,1.8,1.1,2.7l4.4-13.1C405.8,1399.2,404.5,1396.1,403.1,1393z"/>
	<path class="st1" d="M567.2,1558.6c-0.3-0.1-9.1-3.7-21.8-9.4c-3.7-1.7-7.7-3.5-11.9-5.5l-2.9,8.7c4.2,2,8.2,3.8,11.9,5.5
		c11.9,5.3,20.2,8.7,21.3,9.2L567.2,1558.6z"/>
</g>
<g>
	<g>
		<path class="st4" d="M540.9,345.2h7.4v21.3h0.4c5-14.9,20.2-23.6,35.6-23.6c35.1,0,35.5,28.1,35.5,40.3v61.6h-7.4v-63
			c0-10.3-1.2-32.5-28.3-32.5c-22.3,0-35.8,17.2-35.8,41.6v53.9h-7.4V345.2z"/>
		<path class="st4" d="M627.9,313.8v-7.4h106v7.4H685v131h-8.5v-131H627.9z"/>
		<path class="st4" d="M797.5,426.3c0,5.8,0,12,6.6,12c1.4,0,3.1-0.2,5.4-0.6v6.2c-2.1,0.4-4.1,0.8-6,0.8
			c-11.6,0-13.4-6.4-13.4-14.5V425h-0.4c-4.7,11.8-18,22.1-37,22.1c-18.8,0-33.3-7.2-33.3-28.1c0-23.2,20.2-28.1,36.6-29.4
			c32.9-2.3,34.3-4.5,34.3-20.7c0-4.5-5-19.6-27.7-19.6c-17.8,0-29.6,9.3-30.6,26.5h-7.4c1-21.9,14.5-32.9,38-32.9
			c17.4,0,34.9,5.4,34.9,26L797.5,426.3L797.5,426.3z M790.2,388.2c-5.8,6.6-21.7,5.8-36,7.8c-17.4,1.9-27.3,8.1-27.3,23
			c0,12,8.7,21.7,26.2,21.7c33.5,0,37.2-28.7,37.2-33.9L790.2,388.2L790.2,388.2z"/>
		<path class="st4" d="M828.3,367.3h0.6c3.9-13,20.2-23.4,38.2-22.7v7.4c-7.8-1-18.6,1-27.5,9.7c-7.4,7.5-10.5,13.8-11.2,28.7v54.4
			H821v-99.6h7.4L828.3,367.3L828.3,367.3z"/>
		<path class="st4" d="M957.2,345.2v94.3c0,7.8,0,44.5-43,43.2c-21.3,0-37.8-7.9-38.9-31h7.4c1.5,17.6,15.5,24.6,31.8,24.6
			c34.9,0,35.5-28.5,35.5-35.1v-22.9h-0.4c-7,14.7-19.2,22.7-36,22.7c-29.2,0-43-21.5-43-49.2c0-26.3,14.9-49,43-49
			c15.5,0,30.6,8.1,36,23h0.4v-20.7L957.2,345.2L957.2,345.2z M877.7,391.9c0,23.4,12.2,42.8,35.6,42.8c24.2,0,36.2-20.3,36.2-42.8
			c0-22.3-11.8-42.6-36.2-42.6C889.4,349.2,877.7,370.8,877.7,391.9z"/>
		<path class="st4" d="M981.8,395.9c-0.4,23.4,12,44.8,36.6,44.8c18.8,0,32.2-11.2,35.6-29.6h7.4c-3.9,23.2-19.4,36-43,36
			c-29.1,0-44.4-22.9-44-50.4c-0.4-27.3,14-53.9,44-53.9c31.2,0,45.1,24.6,43.8,53.1H981.8z M1054.8,389.5
			c-0.4-20.9-13.6-40.3-36.4-40.3c-22.1,0-35.1,20.5-36.6,40.3H1054.8z"/>
		<path class="st4" d="M1116,351.6h-21.7v69.5c0,16.1,7.6,17.6,21.5,17.2v6.4c-15.1,1-29.6-1.2-28.9-23.6v-69.5h-18.4v-6.4h18.4v-31
			h7.4v31h21.7V351.6z"/>
	</g>
	<g>
		<path class="st4" d="M452,454.4c-0.9,0-1.9,0-2.8-0.1c-14.8-0.8-28-5.7-39.4-14.7c-18.9-15-25.4-41.2-15.8-63.7
			c9-21.3,23-39.7,41.4-54.8c19.7-16.1,48.2-16.5,67.8-0.8l0,0c0.6,0.5,1.2,1,1.7,1.4c14,11.9,20.9,30.7,18,49.1
			c-4,25.9-14.7,48.2-31.8,66.4C481,448.2,466.8,454.4,452,454.4z M470.1,319c-10,0-20,3.4-28.1,10c-17.1,14-30.1,31.2-38.5,50.9
			c-7.8,18.3-2.6,39.5,12.7,51.6c9.8,7.8,20.7,11.8,33.5,12.5c12.8,0.7,25.2-4.4,34.1-13.9c15.6-16.6,25.4-37.2,29.1-60.9
			c2.3-14.9-3.3-30.2-14.5-39.8c-0.5-0.4-1-0.8-1.5-1.2l0,0C489.2,322.1,479.7,319,470.1,319z"/>
	</g>
	<circle class="st4" cx="468.2" cy="358.1" r="23.1"/>
	<g>
		<path class="st2" d="M398,310c-10.5,0-18.9-3.3-24.1-9.7c-7.6-9.3-11.5-28.7,12.4-68.6c0.7-1.1,1.4-2.3,2.1-3.5
			c6.5-11,13.8-23.4,27.4-31.7c15.4-9.4,35.8-11.4,62.5-6.2c0.6,0.1,1.3,0.3,1.9,0.4c29.6,6.6,41.7,31.6,40.5,53.6
			c-1.2,22.1-16,46-46.5,49.4l-5.7,0.6c-14.7,1.6-29.7,5.2-45.8,10.8C413.6,308.4,405.3,310,398,310z M451.5,197.9
			c-33.3,0-44,18.1-54.4,35.6c-0.7,1.2-1.4,2.4-2.1,3.5c-16,26.7-20.8,47.4-13.2,56.8c5.9,7.2,19.9,7.9,37.5,1.8
			c16.8-5.9,32.5-9.6,48-11.3l5.7-0.6c24.5-2.7,36.4-21.9,37.3-39.8c0.9-17.6-8.7-37.7-32.5-43c-0.5-0.1-1.1-0.2-1.6-0.3
			C466.8,198.7,458.6,197.9,451.5,197.9z"/>
	</g>
	<g>
		<path class="st2" d="M322.9,477.3c-7.7,0-15.4-1.6-22.7-4.9c-17.6-7.9-29.8-24.1-32.5-43.3c-2.2-15.9-6.8-32.6-13.8-51.1
			c-5.8-15.3-4.8-32.1,2.9-46.1c6.7-12.2,16.1-22.7,28-31.2c12.9-9.2,29.3-12.5,44.8-8.9c15.5,3.6,28.7,13.6,36.2,27.5
			c2.2,4,4.5,7.8,6.8,11.1c8.4,12.2,11.6,27.8,8.8,42.9c-2.4,12.5-3.3,27.7-2.9,46.7c0.4,19-8.5,36.6-23.9,47.1
			c-0.3,0.2-0.7,0.5-1,0.7C344.3,474.1,333.6,477.3,322.9,477.3z M317.1,300.8c-9.3,0-18.5,2.9-26.3,8.4c-10.6,7.6-19,16.9-25,27.8
			c-6.2,11.4-7.1,25-2.3,37.5c7.3,19.2,12,36.7,14.4,53.3c2.2,15.7,12.1,28.9,26.5,35.3c14.3,6.4,30.5,5,43.5-3.7
			c0.3-0.2,0.6-0.4,0.9-0.6c12.5-8.5,19.7-22.9,19.4-38.3c-0.5-19.7,0.5-35.7,3-48.9c2.4-12.4-0.2-25.2-7.1-35.1
			c-2.6-3.7-5-7.8-7.4-12.1c-6.1-11.3-16.9-19.5-29.5-22.4C323.9,301.1,320.5,300.8,317.1,300.8z"/>
	</g>
	<circle class="st2" cx="320.6" cy="419.8" r="23.1"/>
	<circle class="st2" cx="425.5" cy="256" r="23.1"/>
</g>
<text transform="matrix(1 0 0 1 683 529.7104)"><tspan x="0" y="0" class="st5 st6">In rAAV-based gene therapy,</tspan><tspan x="0" y="33.6" class="st5 st6">viruses may transduce many</tspan><tspan x="0" y="67.2" class="st5 st6">different cells types with DNA</tspan><tspan x="0" y="100.8" class="st5 st6">“cargo” aimed at only</tspan><tspan x="0" y="134.4" class="st5 st6">specific cells types.</tspan></text>
<text transform="matrix(1 0 0 1 350.8373 810.9857)"><tspan x="0" y="0" class="st5 st6">All cells in the human body</tspan><tspan x="0" y="33.6" class="st5 st6">contain the same DNA</tspan><tspan x="0" y="67.2" class="st5 st6">encoding genes needed for</tspan><tspan x="0" y="100.8" class="st5 st6">the full diversity of cells.</tspan><tspan x="0" y="134.4" class="st5 st6">Differential expression of</tspan><tspan x="0" y="168" class="st5 st6">these genes separates</tspan><tspan x="0" y="201.6" class="st5 st6">individual cell types.</tspan></text>
<text transform="matrix(1 0 0 1 645.8251 1310.979)"><tspan x="0" y="0" class="st5 st6">Some genes are “on” in each cell</tspan><tspan x="0" y="33.6" class="st5 st6">of the body, while other are only</tspan><tspan x="0" y="67.2" class="st5 st6">expressed in specific cell types.</tspan><tspan x="0" y="100.8" class="st5 st6">This is controlled by complex</tspan><tspan x="0" y="134.4" class="st5 st6">regulatory mechanisms including</tspan><tspan x="0" y="168" class="st7 st6">cis</tspan><tspan x="34.2" y="168" class="st5 st6">-regulatory regions such as</tspan><tspan x="0" y="201.6" class="st5 st6">promoters and enhancers.</tspan></text>
<g>
	<rect x="597" y="1674" class="st0" width="516" height="15"/>
	<rect x="804" y="1659.6" class="st0" width="179.4" height="42.4"/>
	<rect x="597.4" y="1808.3" class="st0" width="516" height="15"/>
	<rect x="804.4" y="1793.9" class="st0" width="179.4" height="42.4"/>
	<g>
		<path class="st1" d="M1196.5,1737.2c-0.7,0-1.4,0-2.2-0.1c-11.5-0.6-21.8-4.4-30.6-11.4c-14.7-11.6-19.7-31.9-12.2-49.4
			c7-16.5,17.8-30.8,32.1-42.6c15.3-12.5,37.4-12.8,52.6-0.7l0,0c0.5,0.4,0.9,0.7,1.3,1.1c10.8,9.2,16.2,23.8,14,38.2
			c-3.1,20.1-11.4,37.4-24.7,51.5C1219,1732.4,1208,1737.2,1196.5,1737.2z M1210.5,1632.1c-7.7,0-15.5,2.6-21.8,7.8
			c-13.3,10.9-23.3,24.2-29.8,39.5c-6,14.2-2,30.7,9.8,40.1c7.6,6,16.1,9.2,26,9.7c9.9,0.5,19.5-3.4,26.5-10.8
			c12.1-12.9,19.7-28.8,22.6-47.3c1.8-11.6-2.5-23.4-11.3-30.9c-0.4-0.3-0.8-0.6-1.2-1l0,0
			C1225.3,1634.5,1217.9,1632.1,1210.5,1632.1z"/>
	</g>
	<circle class="st1" cx="1209.1" cy="1662.5" r="17.9"/>
	<g>
		<path class="st2" d="M1220.7,1757.5c0.7,0.2,1.4,0.5,2,0.7c10.7,4.1,19.3,10.9,25.6,20.3c10.4,15.6,8.9,36.4-3.6,50.8
			c-11.8,13.6-26.5,23.8-43.7,30.6c-18.4,7.2-39.6,0.7-50.3-15.6l0,0c-0.3-0.5-0.6-1-0.9-1.5c-7.5-12.1-8.1-27.7-1.6-40.6
			c9.1-18.2,22.4-32.1,39.3-41.4C1197.8,1755.2,1209.8,1754,1220.7,1757.5z M1175,1853.2c7.3,2.4,15.5,2.3,23.2-0.7
			c16-6.3,29.7-15.8,40.6-28.4c10.1-11.7,11.3-28.6,3-41.2c-5.4-8.1-12.5-13.7-21.8-17.2c-9.3-3.5-19.7-2.8-28.5,2.1
			c-15.5,8.6-27.7,21.4-36.1,38.1c-5.3,10.5-4.8,23.1,1.2,32.8c0.3,0.4,0.5,0.8,0.8,1.3l0,0
			C1161.7,1846.4,1167.9,1850.9,1175,1853.2z"/>
	</g>
	<circle class="st2" cx="1208.7" cy="1806.8" r="17.9"/>
	<polygon class="st2" points="857,1766 841,1750 841,1759.7 820,1759.7 804.6,1759.7 795.7,1759.7 793.5,1759.7 792.3,1759.7 
		791.8,1759.7 791.7,1759.7 791.7,1759.8 791.7,1760.1 791.7,1764.5 791.7,1794.3 727.4,1794.3 727.4,1836.3 804.4,1836.3 
		804.4,1794.3 804.3,1794.3 804.3,1774.4 804.3,1772.5 804.3,1772.4 804.3,1772.3 804.4,1772.3 804.7,1772.3 805.1,1772.3 
		806.1,1772.3 809.9,1772.3 820,1772.3 841,1772.3 841,1782 	"/>
	<polygon class="st1" points="856.6,1631.6 840.6,1615.6 840.6,1625.3 819.7,1625.3 804.2,1625.3 795.3,1625.3 793.1,1625.3 
		792,1625.3 791.4,1625.3 791.3,1625.3 791.3,1625.4 791.3,1625.7 791.3,1630.1 791.3,1659.9 727.1,1659.9 727.1,1701.9 
		804.1,1701.9 804.1,1659.9 804,1659.9 804,1640.1 804,1638.1 804,1638 804,1637.9 804,1637.9 804.3,1637.9 804.8,1637.9 
		805.7,1637.9 809.6,1637.9 819.7,1637.9 840.6,1637.9 840.6,1647.6 	"/>
</g>
<text transform="matrix(1 0 0 1 259.9589 1657.3147)"><tspan x="0" y="0" class="st5 st6">By inputing cell-type-specific</tspan><tspan x="0" y="33.6" class="st5 st6">genomic evidence, </tspan><tspan x="241.3" y="33.6" class="st8 st6">OnTarget</tspan><tspan x="0" y="67.2" class="st5 st6">helps users identify </tspan><tspan x="247.5" y="67.2" class="st7 st6">cis</tspan><tspan x="281.7" y="67.2" class="st5 st6">-regulatory</tspan><tspan x="0" y="100.8" class="st5 st6">regions and design compact</tspan><tspan x="0" y="134.4" class="st5 st6">promoters called </tspan><tspan x="214.8" y="134.4" class="st8 st6">MiniPromoters</tspan><tspan x="0" y="168" class="st5 st6">to deliver cell-type-specific gene</tspan><tspan x="0" y="201.6" class="st5 st6">expression.</tspan></text>
</svg>
