<svg id="Layer_1" data-name="Layer 1" xmlns="http://www.w3.org/2000/svg" viewBox="0 0 342 132"><defs><style>.cls-1{fill:#fff;}.cls-2{fill:#defcf3;}.cls-3{fill:#6bcaaf;}</style></defs><rect class="cls-1" width="342" height="132"/><rect class="cls-2" y="82.17" width="342" height="5"/><rect class="cls-3" x="131.5" y="75.17" width="79" height="19" rx="3.67"/><path d="M647.58,403.4a1.88,1.88,0,0,0,2,1.8c.8,0,2-.24,2-1.31s-1.06-1.2-2.11-1.41-2.12-.49-2.12-1.75,1.18-1.59,2.23-1.59c1.3,0,2.28.57,2.28,2h-.46c0-1.12-.79-1.57-1.82-1.57-.84,0-1.78.31-1.78,1.19s1.06,1.14,2.05,1.35c1.23.23,2.19.52,2.19,1.81s-1.34,1.71-2.41,1.71a2.23,2.23,0,0,1-2.5-2.2Z" transform="translate(-511.65 -318.18)"/><path d="M653.31,402.43c0,1.45.75,2.77,2.27,2.77a2.14,2.14,0,0,0,2.21-1.84h.45a2.49,2.49,0,0,1-2.66,2.24c-1.8,0-2.75-1.42-2.72-3.12s.86-3.34,2.72-3.34,2.79,1.53,2.71,3.29Zm4.52-.4a2.34,2.34,0,0,0-2.25-2.49,2.48,2.48,0,0,0-2.27,2.49Z" transform="translate(-511.65 -318.18)"/><path d="M659.92,396.89v8.56h-.45v-8.56Z" transform="translate(-511.65 -318.18)"/><path d="M661.56,402.43c0,1.45.74,2.77,2.26,2.77a2.14,2.14,0,0,0,2.21-1.84h.46a2.49,2.49,0,0,1-2.67,2.24c-1.8,0-2.74-1.42-2.72-3.12s.86-3.34,2.72-3.34,2.8,1.53,2.71,3.29Zm4.52-.4a2.34,2.34,0,0,0-2.26-2.49,2.47,2.47,0,0,0-2.26,2.49Z" transform="translate(-511.65 -318.18)"/><path d="M672.25,401.19a1.87,1.87,0,0,0-2.09-1.65,2.52,2.52,0,0,0-2.38,2.77c0,1.67.78,2.89,2.38,2.89a2.13,2.13,0,0,0,2.15-1.92h.45a2.53,2.53,0,0,1-2.6,2.32c-2,0-2.83-1.58-2.83-3.29a2.87,2.87,0,0,1,2.83-3.17,2.27,2.27,0,0,1,2.54,2.05Z" transform="translate(-511.65 -318.18)"/><path d="M676.1,399.68h-1.34V404c0,1,.46,1.09,1.33,1.07v.39c-.94.06-1.84-.07-1.79-1.46v-4.31h-1.14v-.39h1.14v-1.92h.46v1.92h1.34Z" transform="translate(-511.65 -318.18)"/><path d="M677.12,402.43c0,1.45.74,2.77,2.27,2.77a2.13,2.13,0,0,0,2.2-1.84h.46a2.49,2.49,0,0,1-2.66,2.24c-1.8,0-2.75-1.42-2.72-3.12s.86-3.34,2.72-3.34,2.79,1.53,2.71,3.29Zm4.52-.4a2.34,2.34,0,0,0-2.25-2.49,2.48,2.48,0,0,0-2.27,2.49Z" transform="translate(-511.65 -318.18)"/><path d="M687.93,404.13h0a2.49,2.49,0,0,1-2.37,1.47c-1.86,0-2.66-1.52-2.66-3.22s.89-3.24,2.75-3.24a2.34,2.34,0,0,1,2.28,1.53h0v-3.78h.46v8.56h-.46Zm0-1.75c0-1.44-.71-2.84-2.29-2.84s-2.29,1.35-2.29,2.84.72,2.82,2.3,2.82S687.92,403.8,687.92,402.38Z" transform="translate(-511.65 -318.18)"/><path d="M698.27,399.29v5.84a2.39,2.39,0,0,1-2.66,2.67c-1.32,0-2.34-.49-2.41-1.92h.46c.09,1.09,1,1.53,2,1.53a2,2,0,0,0,2.2-2.17v-1.42h0a2.31,2.31,0,0,1-2.23,1.4c-1.81,0-2.66-1.33-2.66-3s.92-3,2.66-3a2.31,2.31,0,0,1,2.23,1.43h0v-1.28Zm-4.91,2.89c0,1.45.75,2.65,2.2,2.65s2.25-1.26,2.25-2.65-.74-2.64-2.25-2.64A2.36,2.36,0,0,0,693.36,402.18Z" transform="translate(-511.65 -318.18)"/><path d="M699.8,402.43c0,1.45.74,2.77,2.27,2.77a2.13,2.13,0,0,0,2.2-1.84h.46a2.49,2.49,0,0,1-2.66,2.24c-1.8,0-2.75-1.42-2.73-3.12s.87-3.34,2.73-3.34,2.79,1.53,2.71,3.29Zm4.52-.4a2.34,2.34,0,0,0-2.25-2.49A2.48,2.48,0,0,0,699.8,402Z" transform="translate(-511.65 -318.18)"/><path d="M705.85,399.29h.45v1.32h0a2.28,2.28,0,0,1,2.2-1.47c2.18,0,2.2,1.74,2.2,2.5v3.81h-.46v-3.9c0-.63-.07-2-1.75-2-1.38,0-2.22,1.07-2.22,2.58v3.33h-.45Z" transform="translate(-511.65 -318.18)"/><path d="M712.26,402.43c0,1.45.74,2.77,2.26,2.77a2.14,2.14,0,0,0,2.21-1.84h.46a2.49,2.49,0,0,1-2.67,2.24c-1.8,0-2.74-1.42-2.72-3.12s.86-3.34,2.72-3.34,2.8,1.53,2.71,3.29Zm4.52-.4a2.34,2.34,0,0,0-2.26-2.49,2.47,2.47,0,0,0-2.26,2.49Z" transform="translate(-511.65 -318.18)"/><polygon class="cls-3" points="243.5 118 99.83 118 99.83 98.67 102.83 98.67 102.83 115.63 240.5 115.63 240.5 98.67 243.5 98.67 243.5 118"/><path d="M642.06,443.8a1.88,1.88,0,0,0,2,1.8c.81,0,2-.24,2-1.31s-1.06-1.2-2.11-1.41-2.12-.49-2.12-1.75,1.18-1.59,2.23-1.59c1.3,0,2.28.57,2.28,2h-.46c0-1.11-.79-1.57-1.82-1.57-.84,0-1.78.31-1.78,1.19s1.06,1.14,2.05,1.35c1.23.23,2.18.52,2.18,1.81s-1.33,1.71-2.41,1.71a2.23,2.23,0,0,1-2.49-2.2Z" transform="translate(-511.65 -318.18)"/><path d="M647.79,442.83c0,1.45.75,2.77,2.27,2.77a2.13,2.13,0,0,0,2.21-1.83h.45a2.48,2.48,0,0,1-2.66,2.23c-1.8,0-2.75-1.42-2.72-3.12s.86-3.34,2.72-3.34,2.79,1.53,2.71,3.29Zm4.52-.4a2.34,2.34,0,0,0-2.25-2.49,2.48,2.48,0,0,0-2.27,2.49Z" transform="translate(-511.65 -318.18)"/><path d="M658.39,444.71c0,.36,0,.75.4.75a2.75,2.75,0,0,0,.34,0v.38a1.64,1.64,0,0,1-.37.05c-.72,0-.83-.39-.83-.9v-.32h0a2.38,2.38,0,0,1-2.29,1.37c-1.17,0-2.07-.45-2.07-1.74s1.25-1.74,2.27-1.83c2-.14,2.12-.27,2.12-1.28,0-.27-.31-1.21-1.71-1.21a1.69,1.69,0,0,0-1.9,1.64h-.45c.06-1.35.9-2,2.35-2,1.08,0,2.16.34,2.16,1.61Zm-.46-2.36c-.36.41-1.34.36-2.23.48-1.08.12-1.69.5-1.69,1.43,0,.74.54,1.34,1.62,1.34a2.14,2.14,0,0,0,2.3-2.1Z" transform="translate(-511.65 -318.18)"/><path d="M660.3,441.05h0a2.34,2.34,0,0,1,2.36-1.4v.46a2.08,2.08,0,0,0-1.7.6,2.27,2.27,0,0,0-.69,1.77v3.37h-.46v-6.16h.46Z" transform="translate(-511.65 -318.18)"/><path d="M667.82,441.59a1.86,1.86,0,0,0-2.09-1.65,2.51,2.51,0,0,0-2.37,2.77c0,1.67.78,2.89,2.37,2.89a2.13,2.13,0,0,0,2.15-1.92h.45a2.53,2.53,0,0,1-2.6,2.32c-2,0-2.83-1.58-2.83-3.29a2.88,2.88,0,0,1,2.83-3.17,2.27,2.27,0,0,1,2.54,2Z" transform="translate(-511.65 -318.18)"/><path d="M669.86,437.29V441h0a2.29,2.29,0,0,1,2.21-1.47c2.17,0,2.2,1.74,2.2,2.5v3.81h-.46V442c0-.63-.07-2-1.75-2-1.38,0-2.22,1.07-2.22,2.58v3.33h-.46v-8.56Z" transform="translate(-511.65 -318.18)"/><path d="M679.42,441.05h0a2.34,2.34,0,0,1,2.36-1.4v.46a2.08,2.08,0,0,0-1.7.6,2.27,2.27,0,0,0-.7,1.77v3.37H679v-6.16h.45Z" transform="translate(-511.65 -318.18)"/><path d="M682.48,442.83c0,1.45.75,2.77,2.27,2.77a2.13,2.13,0,0,0,2.21-1.83h.45a2.48,2.48,0,0,1-2.66,2.23c-1.8,0-2.75-1.42-2.72-3.12s.86-3.34,2.72-3.34,2.79,1.53,2.71,3.29Zm4.52-.4a2.33,2.33,0,0,0-2.25-2.49,2.48,2.48,0,0,0-2.27,2.49Z" transform="translate(-511.65 -318.18)"/><path d="M693.63,439.69v5.84A2.39,2.39,0,0,1,691,448.2c-1.32,0-2.34-.49-2.41-1.92H689c.1,1.1,1,1.53,2,1.53a2,2,0,0,0,2.19-2.17v-1.42h0a2.32,2.32,0,0,1-2.23,1.4c-1.81,0-2.66-1.33-2.66-3s.92-3,2.66-3a2.32,2.32,0,0,1,2.23,1.43h0v-1.28Zm-4.92,2.89c0,1.45.76,2.65,2.21,2.65s2.24-1.26,2.24-2.65-.73-2.64-2.24-2.64A2.36,2.36,0,0,0,688.71,442.58Z" transform="translate(-511.65 -318.18)"/><path d="M695.08,438.52v-1.23h.46v1.23Zm0,7.33v-6.16h.46v6.16Z" transform="translate(-511.65 -318.18)"/><path d="M699.53,439.54c1.82,0,2.84,1.48,2.84,3.23s-1,3.23-2.84,3.23-2.83-1.48-2.83-3.23S697.72,439.54,699.53,439.54Zm0,6.06c1.55,0,2.38-1.35,2.38-2.83s-.83-2.83-2.38-2.83-2.37,1.36-2.37,2.83S698,445.6,699.53,445.6Z" transform="translate(-511.65 -318.18)"/><path d="M703.44,439.69h.45V441h0a2.27,2.27,0,0,1,2.2-1.47c2.17,0,2.2,1.74,2.2,2.5v3.81h-.46V442c0-.63-.07-2-1.75-2-1.38,0-2.22,1.07-2.22,2.58v3.33h-.45Z" transform="translate(-511.65 -318.18)"/><path d="M672,324.37v-.45h6.56v.45h-3v8.11H675v-8.11Z" transform="translate(-511.65 -318.18)"/><path d="M681.62,323.92l3.39,8.56h-.57l-1.08-2.74h-4.1l-1.09,2.74h-.56l3.44-8.56Zm1.58,5.36-1.84-4.85h0l-1.91,4.85Z" transform="translate(-511.65 -318.18)"/><path d="M685.62,323.92h2.81c3.06,0,4,2.1,4,4.27,0,2.42-1.24,4.29-4,4.29h-2.78Zm.53,8.11h2.3c1.6,0,3.41-.88,3.41-3.84,0-3.5-2.24-3.82-3.52-3.82h-2.19Z" transform="translate(-511.65 -318.18)"/><polygon class="cls-3" points="101.65 82.55 101.02 81.78 171.83 23.85 242.32 81.78 241.68 82.55 171.83 25.15 101.65 82.55"/></svg>